{
.formatVersion = 3;
axes = (
{
name = Weight;
tag = wght;
}
);
classes = (
{
code = "zero five seven eight a g i ordfeminine periodcentered agrave aacute acircumflex atilde adieresis aring ae amacron abreve aogonek gcircumflex gbreve gdotaccent gcommaaccent Scedilla scedilla Tcedilla tcedilla gcaron aringacute aeacute adblgrave ainvertedbreve gravecomb acutecomb circumflexcomb tildecomb macroncomb brevecomb dotaccentcomb dieresiscomb hookabovecomb ringcomb hungarumlautcomb dblgravecomb breveinvertedcomb commaturnedabovecomb strokeshortcomb tonos Decyr Kacyr Elcyr acyr becyr vecyr zhecyr zecyr icyr ishortcyr kacyr elcyr tsecyr shacyr shchacyr hardcyr softcyr yucyr gjecyr igravecyr abrevecyr adieresiscyr aiecyr adotbelow ahoi acircumflexacute acircumflexgrave acircumflexhoi acircumflextilde acircumflexdotbelow abreveacute abrevegrave abrevehoi abrevetilde abrevedotbelow zero.tnum five.tnum six.tnum seven.tnum eight.tnum nine.tnum periodcentered.loclCAT caroncomb.case horncomb.case pecyr.loclSRB tecyr.loclSRB gjecyr.loclMKD";
name = aalt;
},
{

glyphs = (
{
glyphname = .notdef;
layers = (
{
layerId = "E5A1D094-7979-46BB-98CB-6CA2CEC0290A";
shapes = (
{
closed = 1;
nodes = (
(1093,0,l),
(1468,1400,l),
(364,1400,l),
(-11,0,l)
);
},
{
closed = 1;
nodes = (
(616,1134,l),
(1072,1134,l),
(839,266,l),
(383,266,l)
);
}
);
width = 1360;
},
{
layerId = "87D444F7-2C21-4B59-A154-9C48869C513F";
shapes = (
{
closed = 1;
nodes = (
(1013,0,l),
(1388,1400,l),
(390,1400,l),
(15,0,l)
);
},
{
closed = 1;
nodes = (
(558,1215,l),
(1120,1215,l),
(844,186,l),
(282,186,l)
);
}
);
width = 1296;
},
{
layerId = "053D553B-8824-4E8E-8E3D-8C773BB81ED6";
shapes = (
{
closed = 1;
nodes = (
(934,0,l),
(1309,1400,l),
(417,1400,l),
(42,0,l)
);
},
{
closed = 1;
nodes = (
(500,1296,l),
(1168,1296,l),
(849,106,l),
(181,106,l)
);
}
);
width = 1232;
}
);
},
{
glyphname = exclam;
layers = (
{
layerId = "E5A1D094-7979-46BB-98CB-6CA2CEC0290A";
shapes = (
{
closed = 1;
nodes = (
(537,536,l),
(844,1440,l),
(361,1440,l),
(181,536,l)
);
},
{
closed = 1;
nodes = (
(315,-30,o),
(380,-6,o),
(431,39,cs),
(482,84,o),
(511,149,o),
(511,230,cs),
(511,290,o),
(486,334,o),
(449,366,cs),
(412,398,o),
(359,416,o),
(299,416,cs),
(231,416,o),
(166,393,o),
(118,350,cs),
(69,306,o),
(36,243,o),
(36,159,cs),
(36,102,o),
(60,54,o),
(97,22,cs),
(134,-10,o),
(189,-30,o),
(250,-30,cs)
);
}
);
width = 720;
},
{
layerId = "87D444F7-2C21-4B59-A154-9C48869C513F";
shapes = (
{
closed = 1;
nodes = (
(436,488,l),
(735,1440,l),
(421,1440,l),
(206,488,l)
);
},
{
closed = 1;
nodes = (
(262,-30,o),
(311,-12,o),
(348,21,cs),
(384,54,o),
(407,100,o),
(407,160,cs),
(407,201,o),
(390,235,o),
(363,259,cs),
(335,283,o),
(296,297,o),
(252,297,cs),
(203,297,o),
(154,280,o),
(118,248,cs),
(81,215,o),
(57,169,o),
(57,109,cs),
(57,68,o),
(74,33,o),
(102,9,cs),
(129,-15,o),
(169,-30,o),
(213,-30,cs)
);
}
);
width = 660;
},
{
layerId = "053D553B-8824-4E8E-8E3D-8C773BB81ED6";
shapes = (
{
closed = 1;
nodes = (
(336,440,l),
(627,1440,l),
(481,1440,l),
(232,440,l)
);
},
{
closed = 1;
nodes = (
(209,-30,o),
(241,-19,o),
(265,4,cs),
(289,27,o),
(303,54,o),
(303,90,cs),
(303,115,o),
(293,136,o),
(277,152,cs),
(260,168,o),
(234,178,o),
(205,178,cs),
(173,178,o),
(142,167,o),
(118,146,cs),
(94,125,o),
(79,95,o),
(79,59,cs),
(79,34,o),
(90,12,o),
(107,-4,cs),
(123,-19,o),
(149,-30,o),
(177,-30,cs)
);
}
);
width = 600;
}
);
leftKerningGroup = b2;
rightKerningGroup = d;
unicode = 33;
},
{
glyphname = numbersign;
layers = (
{
layerId = "E5A1D094-7979-46BB-98CB-6CA2CEC0290A";
shapes = (
{
closed = 1;
nodes = (
(453,32,l),
(525,336,l),
(709,334,l),
(637,32,l),
(909,32,l),
(983,334,l),
(1145,334,l),
(1207,592,l),
(1047,592,l),
(1095,802,l),
(1255,802,l),
(1315,1058,l),
(1157,1058,l),
(1232,1368,l),
(960,1368,l),
(885,1058,l),
(699,1058,l),
(774,1368,l),
(502,1368,l),
(427,1058,l),
(265,1058,l),
(203,802,l),
(365,802,l),
(315,592,l),
(155,592,l),
(93,336,l),
(253,336,l),
(181,32,l)
);
},
{
closed = 1;
nodes = (
(635,802,l),
(823,802,l),
(775,592,l),
(587,592,l)
);
}
);
width = 1314;
},
{
layerId = "87D444F7-2C21-4B59-A154-9C48869C513F";
shapes = (
{
closed = 1;
nodes = (
(398,45,l),
(479,377,l),
(752,376,l),
(671,44,l),
(857,44,l),
(939,376,l),
(1108,376,l),
(1151,555,l),
(983,555,l),
(1048,842,l),
(1217,842,l),
(1258,1020,l),
(1091,1020,l),
(1173,1356,l),
(987,1356,l),
(905,1020,l),
(631,1020,l),
(713,1355,l),
(528,1355,l),
(445,1020,l),
(276,1020,l),
(233,843,l),
(403,843,l),
(335,554,l),
(166,554,l),
(124,377,l),
(293,377,l),
(212,45,l)
);
},
{
closed = 1;
nodes = (
(586,843,l),
(862,842,l),
(797,555,l),
(521,554,l)
);
}
);
width = 1276;
},
{
layerId = "053D553B-8824-4E8E-8E3D-8C773BB81ED6";
shapes = (
{
closed = 1;
nodes = (
(344,58,l),
(434,418,l),
(796,418,l),
(706,56,l),
(806,56,l),
(896,418,l),
(1072,418,l),
(1095,518,l),
(919,518,l),
(1001,882,l),
(1179,882,l),
(1201,982,l),
(1025,982,l),
(1115,1344,l),
(1015,1344,l),
(925,982,l),
(563,982,l),
(653,1342,l),
(555,1342,l),
(463,982,l),
(287,982,l),
(263,884,l),
(441,884,l),
(355,516,l),
(177,516,l),
(156,418,l),
(334,418,l),
(244,58,l)
);
},
{
closed = 1;
nodes = (
(537,884,l),
(901,882,l),
(819,518,l),
(455,516,l)
);
}
);
width = 1238;
}
);
unicode = 35;
},
{
glyphname = dollar;
layers = (
{
layerId = "E5A1D094-7979-46BB-98CB-6CA2CEC0290A";
shapes = (
{
closed = 1;
nodes = (
(815,-30,o),
(1078,153,o),
(1078,470,cs),
(1078,671,o),
(904,789,o),
(746,822,cs),
(639,844,ls),
(571,858,o),
(533,928,o),
(533,1002,cs),
(533,1114,o),
(649,1159,o),
(735,1159,cs),
(850,1159,o),
(966,1111,o),
(1035,1008,c),
(1234,1231,l),
(1129,1377,o),
(927,1432,o),
(764,1432,cs),
(504,1432,o),
(250,1240,o),
(250,938,cs),
(250,797,o),
(315,620,o),
(516,581,cs),
(619,561,ls),
(703,545,o),
(778,497,o),
(778,393,cs),
(778,279,o),
(672,242,o),
(584,242,cs),
(462,242,o),
(304,305,o),
(228,412,c),
(34,181,l),
(155,36,o),
(371,-30,o),
(546,-30,cs)
);
},
{
closed = 1;
nodes = (
(558,-160,l),
(982,1560,l),
(734,1560,l),
(309,-160,l)
);
}
);
width = 1200;
},
{
layerId = "87D444F7-2C21-4B59-A154-9C48869C513F";
shapes = (
{
closed = 1;
nodes = (
(806,-30,o),
(1044,141,o),
(1044,444,cs),
(1044,626,o),
(904,721,o),
(762,770,cs),
(641,812,ls),
(555,842,o),
(481,905,o),
(481,1012,cs),
(481,1167,o),
(617,1243,o),
(744,1243,cs),
(861,1243,o),
(983,1197,o),
(1061,1098,c),
(1201,1253,l),
(1100,1382,o),
(924,1431,o),
(774,1431,cs),
(525,1431,o),
(286,1258,o),
(286,966,cs),
(286,831,o),
(353,698,o),
(537,636,cs),
(653,597,ls),
(746,566,o),
(839,508,o),
(839,389,cs),
(839,227,o),
(705,160,o),
(573,160,cs),
(444,160,o),
(297,213,o),
(208,319,c),
(70,158,l),
(182,27,o),
(388,-30,o),
(547,-30,cs)
);
},
{
closed = 1;
nodes = (
(521,-160,l),
(945,1560,l),
(771,1560,l),
(347,-160,l)
);
}
);
width = 1200;
},
{
layerId = "053D553B-8824-4E8E-8E3D-8C773BB81ED6";
shapes = (
{
closed = 1;
nodes = (
(799,-30,o),
(1010,130,o),
(1010,419,cs),
(1010,578,o),
(906,663,o),
(781,719,cs),
(644,781,ls),
(547,825,o),
(430,891,o),
(430,1022,cs),
(430,1219,o),
(584,1327,o),
(752,1327,cs),
(877,1327,o),
(999,1288,o),
(1087,1188,c),
(1169,1275,l),
(1071,1388,o),
(922,1431,o),
(784,1431,cs),
(547,1431,o),
(321,1273,o),
(321,994,cs),
(321,865,o),
(392,770,o),
(559,692,cs),
(686,633,ls),
(785,587,o),
(902,519,o),
(902,386,cs),
(902,177,o),
(739,78,o),
(564,78,cs),
(428,78,o),
(288,123,o),
(190,228,c),
(106,135,l),
(215,21,o),
(401,-30,o),
(549,-30,cs)
);
},
{
closed = 1;
nodes = (
(484,-160,l),
(908,1560,l),
(809,1560,l),
(385,-160,l)
);
}
);
width = 1200;
}
);
unicode = 36;
},
{
glyphname = percent;
layers = (
{
layerId = "E5A1D094-7979-46BB-98CB-6CA2CEC0290A";
shapes = (
{
closed = 1;
nodes = (
(1749,1298,l),
(1583,1440,l),
(452,101,l),
(619,-40,l)
);
},
{
closed = 1;
nodes = (
(656,606,o),
(773,659,o),
(860,746,cs),
(947,833,o),
(999,948,o),
(999,1076,cs),
(999,1172,o),
(963,1257,o),
(898,1321,cs),
(833,1385,o),
(740,1420,o),
(631,1420,cs),
(506,1420,o),
(387,1368,o),
(299,1284,cs),
(210,1199,o),
(155,1086,o),
(155,958,cs),
(155,861,o),
(190,773,o),
(258,709,cs),
(326,645,o),
(418,606,o),
(527,606,cs)
);
},
{
closed = 1;
nodes = (
(516,852,o),
(481,866,o),
(457,890,c),
(432,913,o),
(417,949,o),
(417,990,cs),
(417,1039,o),
(437,1085,o),
(469,1120,cs),
(501,1155,o),
(545,1174,o),
(596,1174,cs),
(639,1174,o),
(674,1160,o),
(699,1137,cs),
(724,1114,o),
(739,1080,o),
(739,1040,cs),
(739,984,o),
(718,938,o),
(685,905,cs),
(652,872,o),
(607,852,o),
(560,852,cs)
);
},
{
closed = 1;
nodes = (
(1697,-20,o),
(1816,34,o),
(1904,119,cs),
(1992,203,o),
(2046,319,o),
(2046,444,cs),
(2046,545,o),
(2010,631,o),
(1945,695,cs),
(1880,759,o),
(1787,794,o),
(1675,794,cs),
(1547,794,o),
(1432,742,o),
(1344,658,cs),
(1256,573,o),
(1202,460,o),
(1202,332,cs),
(1202,235,o),
(1239,147,o),
(1304,83,cs),
(1369,19,o),
(1463,-20,o),
(1572,-20,cs)
);
},
{
closed = 1;
nodes = (
(1562,226,o),
(1526,240,o),
(1502,264,cs),
(1477,288,o),
(1464,321,o),
(1464,360,cs),
(1464,413,o),
(1483,459,o),
(1516,494,cs),
(1548,529,o),
(1591,548,o),
(1643,548,cs),
(1731,548,o),
(1786,498,o),
(1786,414,cs),
(1786,365,o),
(1766,318,o),
(1734,283,cs),
(1701,248,o),
(1658,226,o),
(1607,226,cs)
);
}
);
width = 2104;
},
{
layerId = "87D444F7-2C21-4B59-A154-9C48869C513F";
shapes = (
{
closed = 1;
nodes = (
(1720,1339,l),
(1608,1435,l),
(459,61,l),
(574,-35,l)
);
},
{
closed = 1;
nodes = (
(666,658,o),
(777,707,o),
(860,787,cs),
(943,867,o),
(994,974,o),
(994,1094,cs),
(994,1186,o),
(960,1266,o),
(900,1326,cs),
(839,1386,o),
(753,1420,o),
(652,1420,cs),
(535,1420,o),
(425,1373,o),
(341,1293,cs),
(257,1213,o),
(204,1109,o),
(204,989,cs),
(204,897,o),
(239,815,o),
(300,755,cs),
(361,695,o),
(448,658,o),
(549,658,cs)
);
},
{
closed = 1;
nodes = (
(516,829,o),
(469,847,o),
(437,878,cs),
(404,909,o),
(385,955,o),
(385,1008,cs),
(385,1076,o),
(411,1136,o),
(454,1180,cs),
(497,1223,o),
(555,1249,o),
(623,1249,cs),
(683,1249,o),
(729,1233,o),
(762,1202,cs),
(795,1171,o),
(814,1128,o),
(814,1076,cs),
(814,1008,o),
(789,946,o),
(746,902,cs),
(703,857,o),
(644,829,o),
(576,829,cs)
);
},
{
closed = 1;
nodes = (
(1646,-20,o),
(1755,28,o),
(1839,108,cs),
(1923,188,o),
(1975,296,o),
(1975,413,cs),
(1975,506,o),
(1941,588,o),
(1881,648,cs),
(1820,708,o),
(1735,742,o),
(1631,742,cs),
(1514,742,o),
(1404,695,o),
(1320,615,cs),
(1236,535,o),
(1185,431,o),
(1185,311,cs),
(1185,219,o),
(1220,137,o),
(1281,77,cs),
(1341,17,o),
(1428,-20,o),
(1529,-20,cs)
);
},
{
closed = 1;
nodes = (
(1498,151,o),
(1450,169,o),
(1417,201,cs),
(1384,232,o),
(1366,276,o),
(1366,328,cs),
(1366,396,o),
(1391,455,o),
(1434,500,cs),
(1477,544,o),
(1536,571,o),
(1605,571,cs),
(1725,571,o),
(1795,504,o),
(1795,399,cs),
(1795,331,o),
(1770,268,o),
(1727,224,cs),
(1684,179,o),
(1626,151,o),
(1558,151,cs)
);
}
);
width = 2071;
},
{
layerId = "053D553B-8824-4E8E-8E3D-8C773BB81ED6";
shapes = (
{
closed = 1;
nodes = (
(1691,1380,l),
(1634,1430,l),
(467,21,l),
(530,-30,l)
);
},
{
closed = 1;
nodes = (
(680,710,o),
(782,755,o),
(861,828,cs),
(940,901,o),
(989,1001,o),
(989,1113,cs),
(989,1197,o),
(958,1274,o),
(902,1331,c),
(845,1387,o),
(766,1420,o),
(673,1420,cs),
(565,1420,o),
(463,1376,o),
(383,1303,cs),
(303,1230,o),
(254,1133,o),
(254,1021,cs),
(254,933,o),
(286,857,o),
(343,801,cs),
(399,745,o),
(479,710,o),
(572,710,cs)
);
},
{
closed = 1;
nodes = (
(519,806,o),
(458,830,o),
(418,867,cs),
(377,904,o),
(353,962,o),
(353,1027,cs),
(353,1111,o),
(386,1187,o),
(439,1240,cs),
(492,1292,o),
(567,1324,o),
(651,1324,cs),
(724,1324,o),
(784,1303,o),
(825,1267,cs),
(866,1230,o),
(890,1177,o),
(890,1113,cs),
(890,1029,o),
(860,954,o),
(808,898,cs),
(756,842,o),
(681,806,o),
(592,806,cs)
);
},
{
closed = 1;
nodes = (
(1594,-20,o),
(1695,26,o),
(1775,99,cs),
(1855,171,o),
(1904,273,o),
(1904,382,cs),
(1904,470,o),
(1873,545,o),
(1817,601,cs),
(1761,657,o),
(1683,690,o),
(1587,690,cs),
(1479,690,o),
(1377,646,o),
(1297,573,cs),
(1217,500,o),
(1169,403,o),
(1169,291,cs),
(1169,203,o),
(1201,127,o),
(1257,71,cs),
(1313,15,o),
(1393,-20,o),
(1486,-20,cs)
);
},
{
closed = 1;
nodes = (
(1433,76,o),
(1376,98,o),
(1333,138,cs),
(1290,177,o),
(1268,232,o),
(1268,296,cs),
(1268,377,o),
(1300,450,o),
(1353,506,cs),
(1406,562,o),
(1480,594,o),
(1568,594,cs),
(1717,594,o),
(1805,514,o),
(1805,385,cs),
(1805,297,o),
(1774,221,o),
(1721,165,cs),
(1668,109,o),
(1597,76,o),
(1509,76,cs)
);
}
);
width = 2038;
}
);
leftKerningGroup = percent;
unicode = 37;
},
{
glyphname = ampersand;
layers = (
{
layerId = "E5A1D094-7979-46BB-98CB-6CA2CEC0290A";
shapes = (
{
closed = 1;
nodes = (
(551,-29,o),
(625,-18,o),
(697,5,cs),
(769,28,o),
(834,58,o),
(898,99,c),
(962,0,l),
(1374,0,l),
(1169,317,l),
(1237,373,o),
(1315,451,o),
(1384,535,cs),
(1452,619,o),
(1515,705,o),
(1547,773,c),
(1256,893,l),
(1217,817,o),
(1179,758,o),
(1139,703,cs),
(1099,648,o),
(1059,604,o),
(1014,560,c),
(737,951,l),
(708,995,o),
(704,1023,o),
(704,1046,cs),
(704,1086,o),
(719,1112,o),
(746,1131,cs),
(773,1150,o),
(809,1156,o),
(850,1156,cs),
(891,1156,o),
(936,1147,o),
(981,1134,cs),
(1026,1121,o),
(1068,1101,o),
(1107,1076,c),
(1253,1321,l),
(1132,1401,o),
(1004,1433,o),
(864,1430,c),
(735,1430,o),
(614,1394,o),
(525,1325,cs),
(436,1256,o),
(378,1152,o),
(378,1015,cs),
(378,950,o),
(394,888,o),
(426,821,c),
(737,344,l),
(690,307,o),
(621,287,o),
(561,287,cs),
(516,287,o),
(481,298,o),
(454,317,cs),
(427,336,o),
(414,365,o),
(414,398,cs),
(414,438,o),
(436,483,o),
(472,520,cs),
(507,557,o),
(553,588,o),
(601,600,c),
(456,832,l),
(340,791,o),
(241,730,o),
(169,646,cs),
(96,562,o),
(52,460,o),
(52,339,cs),
(52,231,o),
(94,140,o),
(170,75,cs),
(246,10,o),
(350,-29,o),
(483,-29,cs)
);
}
);
width = 1558;
},
{
layerId = "87D444F7-2C21-4B59-A154-9C48869C513F";
shapes = (
{
closed = 1;
nodes = (
(567,-27,o),
(644,-13,o),
(720,15,cs),
(796,42,o),
(870,82,o),
(939,135,c),
(1028,0,l),
(1304,0,l),
(1119,283,l),
(1187,344,o),
(1256,421,o),
(1320,504,cs),
(1384,587,o),
(1443,673,o),
(1483,753,c),
(1290,837,l),
(1245,749,o),
(1200,675,o),
(1155,611,cs),
(1110,547,o),
(1064,493,o),
(1015,445,c),
(707,885,ls),
(656,958,o),
(643,1008,o),
(643,1055,cs),
(643,1112,o),
(667,1158,o),
(706,1190,cs),
(745,1222,o),
(798,1239,o),
(855,1239,cs),
(906,1239,o),
(952,1230,o),
(996,1215,cs),
(1040,1200,o),
(1079,1179,o),
(1118,1152,c),
(1224,1323,l),
(1116,1396,o),
(1002,1431,o),
(862,1430,c),
(746,1430,o),
(638,1393,o),
(555,1325,cs),
(472,1257,o),
(419,1159,o),
(419,1034,cs),
(419,961,o),
(441,893,o),
(492,809,c),
(831,299,l),
(743,219,o),
(641,184,o),
(540,184,cs),
(468,184,o),
(413,201,o),
(374,232,cs),
(334,263,o),
(313,306,o),
(313,358,cs),
(313,430,o),
(344,495,o),
(400,550,cs),
(456,605,o),
(533,645,o),
(626,664,c),
(523,818,l),
(398,783,o),
(288,723,o),
(205,639,cs),
(122,555,o),
(72,448,o),
(72,323,cs),
(72,218,o),
(113,130,o),
(186,69,cs),
(259,8,o),
(362,-27,o),
(491,-27,cs)
);
}
);
width = 1510;
},
{
layerId = "053D553B-8824-4E8E-8E3D-8C773BB81ED6";
shapes = (
{
closed = 1;
nodes = (
(580,-24,o),
(664,-7,o),
(745,26,cs),
(825,58,o),
(904,106,o),
(981,171,c),
(1094,0,l),
(1235,0,l),
(1069,249,l),
(1134,317,o),
(1197,392,o),
(1257,473,cs),
(1317,553,o),
(1372,642,o),
(1419,734,c),
(1324,781,l),
(1273,681,o),
(1223,596,o),
(1172,520,cs),
(1120,444,o),
(1070,382,o),
(1017,330,c),
(677,819,ls),
(606,922,o),
(583,993,o),
(583,1064,cs),
(583,1140,o),
(616,1203,o),
(668,1250,cs),
(719,1297,o),
(788,1323,o),
(861,1323,cs),
(921,1323,o),
(968,1312,o),
(1012,1297,c),
(1055,1281,o),
(1090,1257,o),
(1129,1228,c),
(1196,1325,l),
(1103,1394,o),
(1001,1431,o),
(860,1430,c),
(759,1430,o),
(660,1393,o),
(585,1325,cs),
(510,1257,o),
(461,1166,o),
(461,1054,cs),
(461,971,o),
(490,899,o),
(558,798,cs),
(925,255,l),
(796,134,o),
(664,82,o),
(520,82,cs),
(423,82,o),
(346,106,o),
(294,147,c),
(241,187,o),
(213,247,o),
(213,319,cs),
(213,420,o),
(252,508,o),
(328,580,cs),
(404,652,o),
(511,704,o),
(652,729,c),
(590,805,l),
(457,776,o),
(333,718,o),
(241,633,cs),
(149,548,o),
(92,437,o),
(92,308,cs),
(92,204,o),
(131,121,o),
(203,64,cs),
(275,7,o),
(374,-24,o),
(499,-24,cs)
);
}
);
width = 1462;
}
);
rightKerningGroup = x;
unicode = 38;
},
{
glyphname = quotesingle;
layers = (
{
layerId = "E5A1D094-7979-46BB-98CB-6CA2CEC0290A";
shapes = (
{
closed = 1;
nodes = (
(450,702,l),
(675,1400,l),
(315,1400,l),
(170,702,l)
);
}
);
width = 516;
},
{
layerId = "87D444F7-2C21-4B59-A154-9C48869C513F";
shapes = (
{
closed = 1;
nodes = (
(422,847,l),
(594,1400,l),
(359,1400,l),
(237,847,l)
);
}
);
width = 468;
},
{
layerId = "053D553B-8824-4E8E-8E3D-8C773BB81ED6";
shapes = (
{
closed = 1;
nodes = (
(394,992,l),
(513,1400,l),
(403,1400,l),
(304,992,l)
);
}
);
width = 420;
}
);
leftKerningGroup = tonos2;
rightKerningGroup = tonos;
unicode = 39;
},
{
glyphname = parenleft;
layers = (
{
layerId = "E5A1D094-7979-46BB-98CB-6CA2CEC0290A";
shapes = (
{
closed = 1;
nodes = (
(482,-123,l),
(454,-3,o),
(443,116,o),
(443,248,cs),
(443,475,o),
(490,705,o),
(575,922,cs),
(660,1139,o),
(785,1334,o),
(942,1491,c),
(634,1610,l),
(465,1419,o),
(329,1209,o),
(237,984,cs),
(144,757,o),
(94,520,o),
(94,269,cs),
(94,101,o),
(111,-61,o),
(156,-230,c)
);
}
);
width = 732;
},
{
layerId = "87D444F7-2C21-4B59-A154-9C48869C513F";
shapes = (
{
closed = 1;
nodes = (
(412,-157,l),
(383,-32,o),
(368,92,o),
(368,229,cs),
(368,460,o),
(415,701,o),
(503,930,cs),
(591,1158,o),
(720,1366,o),
(885,1527,c),
(691,1610,l),
(519,1425,o),
(384,1211,o),
(289,979,cs),
(194,746,o),
(144,501,o),
(144,250,cs),
(144,85,o),
(161,-73,o),
(205,-230,c)
);
}
);
width = 699;
},
{
layerId = "053D553B-8824-4E8E-8E3D-8C773BB81ED6";
shapes = (
{
closed = 1;
nodes = (
(342,-191,l),
(311,-59,o),
(293,66,o),
(293,210,cs),
(293,445,o),
(339,697,o),
(431,938,cs),
(523,1178,o),
(656,1396,o),
(829,1564,c),
(748,1610,l),
(575,1431,o),
(437,1213,o),
(341,974,cs),
(245,735,o),
(195,483,o),
(195,231,cs),
(195,70,o),
(211,-82,o),
(254,-230,c)
);
}
);
width = 666;
}
);
rightKerningGroup = parenleft;
unicode = 40;
},
{
glyphname = parenright;
layers = (
{
layerId = "E5A1D094-7979-46BB-98CB-6CA2CEC0290A";
shapes = (
{
closed = 1;
nodes = (
(192,-230,l),
(363,-37,o),
(497,170,o),
(590,398,cs),
(682,626,o),
(732,863,o),
(732,1111,cs),
(732,1279,o),
(713,1441,o),
(670,1610,c),
(342,1503,l),
(373,1386,o),
(383,1265,o),
(383,1132,cs),
(383,905,o),
(336,675,o),
(251,459,cs),
(208,351,o),
(157,250,o),
(94,153,cs),
(31,56,o),
(-37,-32,o),
(-116,-109,c)
);
}
);
width = 732;
},
{
layerId = "87D444F7-2C21-4B59-A154-9C48869C513F";
shapes = (
{
closed = 1;
nodes = (
(111,-230,l),
(284,-43,o),
(419,169,o),
(514,402,cs),
(609,635,o),
(658,881,o),
(658,1130,cs),
(658,1295,o),
(640,1453,o),
(597,1610,c),
(389,1537,l),
(420,1413,o),
(434,1291,o),
(434,1151,cs),
(434,920,o),
(387,679,o),
(299,451,cs),
(255,338,o),
(201,231,o),
(137,128,cs),
(72,24,o),
(0,-66,o),
(-83,-146,c)
);
}
);
width = 699;
},
{
layerId = "053D553B-8824-4E8E-8E3D-8C773BB81ED6";
shapes = (
{
closed = 1;
nodes = (
(31,-230,l),
(206,-49,o),
(342,167,o),
(438,407,cs),
(534,647,o),
(584,900,o),
(584,1149,cs),
(584,1310,o),
(566,1462,o),
(525,1610,c),
(436,1571,l),
(468,1442,o),
(486,1315,o),
(486,1170,cs),
(486,935,o),
(440,684,o),
(348,444,cs),
(303,324,o),
(248,211,o),
(180,103,cs),
(112,-5,o),
(37,-99,o),
(-50,-182,c)
);
}
);
width = 666;
}
);
leftKerningGroup = parenright;
unicode = 41;
},
{
glyphname = asterisk;
layers = (
{
layerId = "E5A1D094-7979-46BB-98CB-6CA2CEC0290A";
shapes = (
{
closed = 1;
nodes = (
(629,651,l),
(700,375,l),
(1055,499,l),
(926,750,l),
(1209,743,l),
(1191,1115,l),
(911,1075,l),
(1016,1337,l),
(651,1435,l),
(607,1158,l),
(387,1334,l),
(179,1022,l),
(426,888,l),
(190,732,l),
(428,450,l)
);
}
);
width = 1192;
},
{
layerId = "87D444F7-2C21-4B59-A154-9C48869C513F";
shapes = (
{
closed = 1;
nodes = (
(642,804,l),
(726,519,l),
(957,600,l),
(831,870,l),
(1129,867,l),
(1117,1111,l),
(822,1077,l),
(920,1356,l),
(685,1420,l),
(627,1128,l),
(390,1307,l),
(254,1103,l),
(512,956,l),
(270,785,l),
(423,601,l)
);
}
);
width = 1118;
},
{
layerId = "053D553B-8824-4E8E-8E3D-8C773BB81ED6";
shapes = (
{
closed = 1;
nodes = (
(656,958,l),
(752,663,l),
(860,701,l),
(736,990,l),
(1050,991,l),
(1043,1107,l),
(734,1080,l),
(824,1375,l),
(720,1405,l),
(648,1099,l),
(394,1281,l),
(329,1185,l),
(599,1025,l),
(351,838,l),
(419,753,l)
);
}
);
width = 1044;
}
);
leftKerningGroup = degree2;
rightKerningGroup = degree;
unicode = 42;
},
{
glyphname = plus;
layers = (
{
layerId = "E5A1D094-7979-46BB-98CB-6CA2CEC0290A";
shapes = (
{
closed = 1;
nodes = (
(678,110,l),
(793,536,l),
(1233,536,l),
(1304,804,l),
(864,804,l),
(980,1230,l),
(700,1230,l),
(584,804,l),
(144,804,l),
(73,536,l),
(513,536,l),
(398,110,l)
);
}
);
width = 1296;
},
{
layerId = "87D444F7-2C21-4B59-A154-9C48869C513F";
shapes = (
{
closed = 1;
nodes = (
(653,165,l),
(764,576,l),
(1193,576,l),
(1241,758,l),
(812,758,l),
(923,1169,l),
(733,1169,l),
(622,758,l),
(193,758,l),
(145,576,l),
(574,576,l),
(463,165,l)
);
}
);
width = 1296;
},
{
layerId = "053D553B-8824-4E8E-8E3D-8C773BB81ED6";
shapes = (
{
closed = 1;
nodes = (
(629,220,l),
(735,616,l),
(1153,616,l),
(1178,712,l),
(760,712,l),
(866,1108,l),
(766,1108,l),
(660,712,l),
(242,712,l),
(217,616,l),
(635,616,l),
(529,220,l)
);
}
);
width = 1296;
}
);
leftKerningGroup = plus2;
rightKerningGroup = plus;
unicode = 43;
},
{
glyphname = hyphen;
layers = (
{
layerId = "E5A1D094-7979-46BB-98CB-6CA2CEC0290A";
shapes = (
{
closed = 1;
nodes = (
(676,392,l),
(771,742,l),
(151,742,l),
(56,392,l)
);
}
);
width = 800;
},
{
layerId = "87D444F7-2C21-4B59-A154-9C48869C513F";
shapes = (
{
closed = 1;
nodes = (
(656,452,l),
(716,675,l),
(160,675,l),
(100,452,l)
);
}
);
width = 782;
},
{
layerId = "053D553B-8824-4E8E-8E3D-8C773BB81ED6";
shapes = (
{
closed = 1;
nodes = (
(637,512,l),
(661,608,l),
(169,608,l),
(145,512,l)
);
}
);
width = 764;
}
);
leftKerningGroup = hyphen2;
rightKerningGroup = hyphen;
unicode = 45;
},
{
glyphname = slash;
layers = (
{
layerId = "E5A1D094-7979-46BB-98CB-6CA2CEC0290A";
shapes = (
{
closed = 1;
nodes = (
(1202,1428,l),
(928,1610,l),
(-155,-47,l),
(119,-230,l)
);
}
);
width = 948;
},
{
layerId = "87D444F7-2C21-4B59-A154-9C48869C513F";
shapes = (
{
closed = 1;
nodes = (
(1179,1489,l),
(1000,1610,l),
(-152,-111,l),
(29,-230,l)
);
}
);
width = 920;
},
{
layerId = "053D553B-8824-4E8E-8E3D-8C773BB81ED6";
shapes = (
{
closed = 1;
nodes = (
(1157,1550,l),
(1073,1610,l),
(-148,-174,l),
(-60,-230,l)
);
}
);
width = 892;
}
);
unicode = 47;
},
{
glyphname = zero.tnum;
layers = (
{
layerId = "E5A1D094-7979-46BB-98CB-6CA2CEC0290A";
shapes = (
{
closed = 1;
nodes = (
(1002,-30,o),
(1236,497,o),
(1236,887,cs),
(1236,1221,o),
(1056,1430,o),
(745,1430,cs),
(292,1430,o),
(57,905,o),
(57,514,cs),
(57,183,o),
(240,-30,o),
(549,-30,cs)
);
},
{
closed = 1;
nodes = (
(459,312,o),
(420,407,o),
(420,520,cs),
(420,697,o),
(501,1088,o),
(717,1088,cs),
(832,1088,o),
(875,997,o),
(875,883,cs),
(875,706,o),
(792,312,o),
(576,312,cs)
);
}
);
width = 1200;
},
{
layerId = "87D444F7-2C21-4B59-A154-9C48869C513F";
shapes = (
{
closed = 1;
nodes = (
(979,-30,o),
(1215,515,o),
(1215,892,cs),
(1215,1200,o),
(1058,1430,o),
(760,1430,cs),
(318,1430,o),
(87,884,o),
(87,506,cs),
(87,199,o),
(245,-30,o),
(541,-30,cs)
);
},
{
closed = 1;
nodes = (
(395,197,o),
(329,339,o),
(329,505,cs),
(329,748,o),
(455,1203,o),
(737,1203,cs),
(907,1203,o),
(974,1065,o),
(974,898,cs),
(974,656,o),
(846,197,o),
(564,197,cs)
);
}
);
width = 1200;
},
{
layerId = "053D553B-8824-4E8E-8E3D-8C773BB81ED6";
shapes = (
{
closed = 1;
nodes = (
(941,-30,o),
(1194,502,o),
(1194,897,cs),
(1194,1179,o),
(1060,1430,o),
(777,1430,cs),
(350,1430,o),
(116,865,o),
(116,499,cs),
(116,219,o),
(253,-30,o),
(534,-30,cs)
);
},
{
closed = 1;
nodes = (
(331,82,o),
(238,272,o),
(238,490,cs),
(238,801,o),
(410,1318,o),
(758,1318,cs),
(983,1318,o),
(1072,1135,o),
(1072,914,cs),
(1072,604,o),
(901,82,o),
(552,82,cs)
);
}
);
width = 1200;
}
);
leftKerningGroup = plus2;
rightKerningGroup = plus;
unicode = 48;
},
{
glyphname = one.tnum;
layers = (
{
layerId = "E5A1D094-7979-46BB-98CB-6CA2CEC0290A";
shapes = (
{
closed = 1;
nodes = (
(1015,0,l),
(1103,358,l),
(785,358,l),
(1044,1400,l),
(973,1400,l),
(212,1146,l),
(296,840,l),
(584,932,l),
(439,358,l),
(80,358,l),
(-8,0,l)
);
}
);
width = 1200;
},
{
layerId = "87D444F7-2C21-4B59-A154-9C48869C513F";
shapes = (
{
closed = 1;
nodes = (
(972,0,l),
(1029,233,l),
(688,233,l),
(978,1400,l),
(913,1400,l),
(274,1178,l),
(331,979,l),
(678,1100,l),
(460,233,l),
(79,233,l),
(22,0,l)
);
}
);
width = 1200;
},
{
layerId = "053D553B-8824-4E8E-8E3D-8C773BB81ED6";
shapes = (
{
closed = 1;
nodes = (
(929,0,l),
(954,108,l),
(592,108,l),
(914,1400,l),
(854,1400,l),
(335,1211,l),
(366,1120,l),
(773,1269,l),
(481,108,l),
(79,108,l),
(53,0,l)
);
}
);
width = 1200;
}
);
leftKerningGroup = plus2;
rightKerningGroup = plus;
unicode = 49;
},
{
glyphname = two.tnum;
layers = (
{
layerId = "E5A1D094-7979-46BB-98CB-6CA2CEC0290A";
shapes = (
{
closed = 1;
nodes = (
(414,846,l),
(481,950,o),
(615,1124,o),
(748,1124,cs),
(817,1124,o),
(878,1090,o),
(878,1014,cs),
(878,994,o),
(875,972,o),
(869,953,cs),
(818,786,o),
(213,394,o),
(39,289,c),
(-38,0,l),
(970,0,l),
(1056,320,l),
(601,320,l),
(816,413,o),
(1086,586,o),
(1198,815,cs),
(1231,883,o),
(1251,956,o),
(1251,1033,cs),
(1251,1310,o),
(1015,1430,o),
(763,1430,cs),
(462,1430,o),
(260,1244,o),
(125,1002,c)
);
}
);
width = 1200;
},
{
layerId = "87D444F7-2C21-4B59-A154-9C48869C513F";
shapes = (
{
closed = 1;
nodes = (
(407,958,l),
(470,1083,o),
(626,1226,o),
(769,1226,cs),
(911,1226,o),
(995,1172,o),
(995,1063,cs),
(995,1019,o),
(979,968,o),
(960,929,c),
(861,709,o),
(267,324,o),
(39,191,c),
(-12,0,l),
(945,0,l),
(1003,215,l),
(423,215,l),
(644,327,o),
(1009,562,o),
(1164,825,cs),
(1210,903,o),
(1238,984,o),
(1238,1064,cs),
(1238,1317,o),
(1054,1428,o),
(779,1428,cs),
(525,1428,o),
(321,1270,o),
(207,1056,c)
);
}
);
width = 1200;
},
{
layerId = "053D553B-8824-4E8E-8E3D-8C773BB81ED6";
shapes = (
{
closed = 1;
nodes = (
(400,1070,l),
(458,1215,o),
(636,1327,o),
(789,1327,cs),
(1005,1327,o),
(1112,1254,o),
(1112,1111,cs),
(1112,1043,o),
(1082,963,o),
(1050,904,cs),
(904,632,o),
(320,254,o),
(39,92,c),
(14,0,l),
(920,0,l),
(949,110,l),
(244,110,l),
(472,241,o),
(931,537,o),
(1129,834,cs),
(1188,922,o),
(1224,1011,o),
(1224,1095,cs),
(1224,1323,o),
(1092,1425,o),
(795,1425,cs),
(587,1425,o),
(381,1295,o),
(289,1110,c)
);
}
);
width = 1200;
}
);
leftKerningGroup = two.tnum2;
rightKerningGroup = two.tnum;
unicode = 50;
},
{
glyphname = three.tnum;
layers = (
{
layerId = "E5A1D094-7979-46BB-98CB-6CA2CEC0290A";
shapes = (
{
closed = 1;
nodes = (
(785,-32,o),
(1079,153,o),
(1079,476,cs),
(1079,640,o),
(988,763,o),
(838,810,c),
(1199,1107,l),
(1276,1400,l),
(351,1400,l),
(265,1078,l),
(738,1078,l),
(371,822,l),
(404,590,l),
(443,598,o),
(487,600,o),
(528,600,cs),
(626,600,o),
(721,567,o),
(721,468,cs),
(721,354,o),
(611,302,o),
(508,302,cs),
(386,302,o),
(248,351,o),
(194,453,c),
(11,166,l),
(88,31,o),
(345,-32,o),
(493,-32,cs)
);
}
);
width = 1200;
},
{
layerId = "87D444F7-2C21-4B59-A154-9C48869C513F";
shapes = (
{
closed = 1;
nodes = (
(777,-31,o),
(1053,159,o),
(1053,471,cs),
(1053,678,o),
(893,787,o),
(709,814,c),
(1197,1204,l),
(1248,1400,l),
(366,1400,l),
(309,1185,l),
(881,1185,l),
(384,806,l),
(409,655,l),
(444,661,o),
(485,662,o),
(520,662,cs),
(653,662,o),
(813,620,o),
(813,461,cs),
(813,288,o),
(668,192,o),
(502,192,cs),
(372,192,o),
(231,241,o),
(155,338,c),
(29,145,l),
(123,23,o),
(347,-31,o),
(491,-31,cs)
);
}
);
width = 1200;
},
{
layerId = "053D553B-8824-4E8E-8E3D-8C773BB81ED6";
shapes = (
{
closed = 1;
nodes = (
(774,-29,o),
(1032,167,o),
(1032,466,cs),
(1032,716,o),
(797,807,o),
(588,818,c),
(1200,1301,l),
(1226,1400,l),
(387,1400,l),
(359,1292,l),
(1031,1292,l),
(404,790,l),
(420,719,l),
(446,724,o),
(482,724,o),
(517,724,cs),
(695,724,o),
(912,667,o),
(912,454,cs),
(912,222,o),
(729,83,o),
(504,83,cs),
(365,83,o),
(215,130,o),
(122,223,c),
(52,124,l),
(157,19,o),
(355,-29,o),
(496,-29,cs)
);
}
);
width = 1200;
}
);
leftKerningGroup = plus2;
rightKerningGroup = plus;
unicode = 51;
},
{
glyphname = four.tnum;
layers = (
{
layerId = "E5A1D094-7979-46BB-98CB-6CA2CEC0290A";
shapes = (
{
closed = 1;
nodes = (
(854,0,l),
(917,246,l),
(1084,246,l),
(1166,564,l),
(999,564,l),
(1061,812,l),
(744,812,l),
(682,564,l),
(480,564,l),
(1041,1400,l),
(646,1400,l),
(57,523,l),
(-17,246,l),
(599,246,l),
(537,0,l)
);
}
);
width = 1200;
},
{
layerId = "87D444F7-2C21-4B59-A154-9C48869C513F";
shapes = (
{
closed = 1;
nodes = (
(807,0,l),
(879,279,l),
(1078,279,l),
(1132,492,l),
(933,492,l),
(1009,790,l),
(795,790,l),
(719,492,l),
(336,492,l),
(1012,1400,l),
(747,1400,l),
(58,469,l),
(9,279,l),
(665,279,l),
(593,0,l)
);
}
);
width = 1200;
},
{
layerId = "053D553B-8824-4E8E-8E3D-8C773BB81ED6";
shapes = (
{
closed = 1;
nodes = (
(761,0,l),
(841,312,l),
(1072,312,l),
(1099,420,l),
(868,420,l),
(957,768,l),
(846,768,l),
(757,420,l),
(193,420,l),
(984,1400,l),
(850,1400,l),
(59,415,l),
(34,312,l),
(730,312,l),
(650,0,l)
);
}
);
width = 1200;
}
);
leftKerningGroup = plus2;
rightKerningGroup = plus;
unicode = 52;
},
{
glyphname = five.tnum;
layers = (
{
layerId = "E5A1D094-7979-46BB-98CB-6CA2CEC0290A";
shapes = (
{
closed = 1;
nodes = (
(832,-30,o),
(1076,192,o),
(1076,511,cs),
(1076,776,o),
(882,898,o),
(625,898,cs),
(617,898,o),
(609,898,o),
(601,896,c),
(598,896,l),
(660,1054,l),
(1192,1054,l),
(1281,1396,l),
(483,1400,l),
(243,738,l),
(343,568,l),
(409,590,o),
(467,598,o),
(519,598,cs),
(600,598,o),
(713,577,o),
(713,471,cs),
(713,356,o),
(618,304,o),
(517,304,cs),
(391,304,o),
(268,340,o),
(193,449,c),
(18,160,l),
(130,25,o),
(343,-30,o),
(506,-30,cs)
);
}
);
width = 1200;
},
{
layerId = "87D444F7-2C21-4B59-A154-9C48869C513F";
shapes = (
{
closed = 1;
nodes = (
(792,-30,o),
(1050,174,o),
(1050,500,cs),
(1050,759,o),
(846,878,o),
(623,878,cs),
(585,878,o),
(551,874,o),
(512,864,c),
(509,864,l),
(625,1173,l),
(1200,1173,l),
(1258,1398,l),
(505,1398,l),
(266,738,l),
(325,639,l),
(403,665,o),
(471,676,o),
(535,676,cs),
(662,676,o),
(807,626,o),
(807,471,cs),
(807,295,o),
(670,193,o),
(509,193,cs),
(381,193,o),
(245,238,o),
(160,337,c),
(38,142,l),
(144,24,o),
(348,-30,o),
(497,-30,cs)
);
}
);
width = 1200;
},
{
layerId = "053D553B-8824-4E8E-8E3D-8C773BB81ED6";
shapes = (
{
closed = 1;
nodes = (
(770,-30,o),
(1024,177,o),
(1024,489,cs),
(1024,741,o),
(819,858,o),
(602,858,cs),
(542,858,o),
(485,850,o),
(423,833,c),
(420,833,l),
(588,1292,l),
(1207,1292,l),
(1233,1400,l),
(524,1396,l),
(286,739,l),
(307,711,l),
(396,741,o),
(476,754,o),
(549,754,cs),
(720,754,o),
(899,673,o),
(899,471,cs),
(899,235,o),
(720,82,o),
(500,82,cs),
(372,82,o),
(219,137,o),
(126,227,c),
(56,125,l),
(153,24,o),
(353,-30,o),
(486,-30,cs)
);
}
);
width = 1200;
}
);
leftKerningGroup = plus2;
rightKerningGroup = plus;
unicode = 53;
},
{
glyphname = six.tnum;
layers = (
{
layerId = "E5A1D094-7979-46BB-98CB-6CA2CEC0290A";
shapes = (
{
closed = 1;
nodes = (
(887,-31,o),
(1137,200,o),
(1137,500,cs),
(1137,744,o),
(962,918,o),
(702,918,cs),
(646,918,o),
(593,903,o),
(544,874,c),
(655,1025,o),
(889,1095,o),
(1163,1119,c),
(1148,1425,l),
(582,1425,o),
(67,1058,o),
(67,501,cs),
(67,181,o),
(273,-31,o),
(580,-31,cs)
);
},
{
closed = 1;
nodes = (
(503,286,o),
(443,352,o),
(443,438,cs),
(443,543,o),
(520,617,o),
(613,617,cs),
(699,617,o),
(759,551,o),
(759,467,cs),
(759,362,o),
(682,286,o),
(591,286,cs)
);
}
);
width = 1200;
},
{
layerId = "87D444F7-2C21-4B59-A154-9C48869C513F";
shapes = (
{
closed = 1;
nodes = (
(878,-31,o),
(1129,203,o),
(1129,498,cs),
(1129,734,o),
(949,901,o),
(698,901,cs),
(594,901,o),
(497,861,o),
(420,788,c),
(539,1048,o),
(828,1207,o),
(1188,1219,c),
(1183,1426,l),
(613,1426,o),
(101,1036,o),
(101,461,cs),
(101,162,o),
(288,-31,o),
(583,-31,cs)
);
},
{
closed = 1;
nodes = (
(442,185,o),
(347,283,o),
(347,415,cs),
(347,578,o),
(478,697,o),
(633,697,cs),
(776,697,o),
(876,596,o),
(876,466,cs),
(876,311,o),
(749,185,o),
(594,185,cs)
);
}
);
width = 1200;
},
{
layerId = "053D553B-8824-4E8E-8E3D-8C773BB81ED6";
shapes = (
{
closed = 1;
nodes = (
(868,-31,o),
(1120,205,o),
(1120,495,cs),
(1120,724,o),
(935,884,o),
(693,884,cs),
(542,884,o),
(401,818,o),
(296,701,c),
(422,1070,o),
(766,1319,o),
(1212,1319,c),
(1218,1427,l),
(644,1427,o),
(134,1014,o),
(134,421,cs),
(134,143,o),
(303,-31,o),
(585,-31,cs)
);
},
{
closed = 1;
nodes = (
(380,84,o),
(250,213,o),
(250,391,cs),
(250,612,o),
(436,777,o),
(652,777,cs),
(852,777,o),
(992,640,o),
(992,464,cs),
(992,259,o),
(816,84,o),
(596,84,cs)
);
}
);
width = 1200;
}
);
leftKerningGroup = plus2;
rightKerningGroup = plus;
unicode = 54;
},
{
glyphname = seven.tnum;
layers = (
{
layerId = "E5A1D094-7979-46BB-98CB-6CA2CEC0290A";
shapes = (
{
closed = 1;
nodes = (
(485,0,l),
(1264,1131,l),
(1332,1400,l),
(350,1400,l),
(259,1042,l),
(790,1042,l),
(58,0,l)
);
}
);
width = 1200;
},
{
layerId = "87D444F7-2C21-4B59-A154-9C48869C513F";
shapes = (
{
closed = 1;
nodes = (
(389,0,l),
(1246,1218,l),
(1292,1400,l),
(391,1400,l),
(332,1167,l),
(939,1167,l),
(106,0,l)
);
}
);
width = 1200;
},
{
layerId = "053D553B-8824-4E8E-8E3D-8C773BB81ED6";
shapes = (
{
closed = 1;
nodes = (
(293,0,l),
(1228,1306,l),
(1252,1400,l),
(432,1400,l),
(405,1292,l),
(1089,1292,l),
(157,0,l)
);
}
);
width = 1200;
}
);
leftKerningGroup = plus2;
rightKerningGroup = plus;
unicode = 55;
},
{
glyphname = eight.tnum;
layers = (
{
layerId = "E5A1D094-7979-46BB-98CB-6CA2CEC0290A";
shapes = (
{
closed = 1;
nodes = (
(796,-30,o),
(1104,133,o),
(1103,438,cs),
(1102,547,o),
(1051,644,o),
(946,710,c),
(1097,765,o),
(1224,898,o),
(1224,1073,cs),
(1224,1323,o),
(989,1430,o),
(782,1430,cs),
(518,1430,o),
(262,1281,o),
(262,1002,cs),
(262,915,o),
(314,815,o),
(382,768,c),
(198,719,o),
(40,550,o),
(40,344,cs),
(40,73,o),
(290,-30,o),
(512,-30,cs)
);
},
{
closed = 1;
nodes = (
(479,276,o),
(406,328,o),
(406,416,cs),
(406,521,o),
(496,598,o),
(595,598,cs),
(677,598,o),
(752,557,o),
(752,463,cs),
(752,352,o),
(664,276,o),
(560,276,cs)
);
},
{
closed = 1;
nodes = (
(663,908,o),
(598,946,o),
(598,1022,cs),
(598,1110,o),
(673,1168,o),
(755,1168,cs),
(818,1168,o),
(880,1132,o),
(880,1059,cs),
(880,973,o),
(813,908,o),
(731,908,cs)
);
}
);
width = 1200;
},
{
layerId = "87D444F7-2C21-4B59-A154-9C48869C513F";
shapes = (
{
closed = 1;
nodes = (
(778,-30,o),
(1069,128,o),
(1069,429,cs),
(1069,552,o),
(1008,644,o),
(895,713,c),
(1056,763,o),
(1195,898,o),
(1195,1083,cs),
(1195,1309,o),
(990,1430,o),
(776,1430,cs),
(524,1430,o),
(289,1278,o),
(289,1017,cs),
(289,920,o),
(347,817,o),
(427,767,c),
(233,717,o),
(70,559,o),
(70,339,cs),
(70,75,o),
(304,-30,o),
(522,-30,cs)
);
},
{
closed = 1;
nodes = (
(435,179,o),
(314,244,o),
(314,379,cs),
(314,543,o),
(442,639,o),
(592,639,cs),
(713,639,o),
(832,581,o),
(832,439,cs),
(832,275,o),
(700,179,o),
(551,179,cs)
);
},
{
closed = 1;
nodes = (
(619,850,o),
(517,903,o),
(517,1029,cs),
(517,1166,o),
(635,1243,o),
(757,1243,cs),
(863,1243,o),
(964,1185,o),
(964,1064,cs),
(964,928,o),
(851,850,o),
(728,850,cs)
);
}
);
width = 1200;
},
{
layerId = "053D553B-8824-4E8E-8E3D-8C773BB81ED6";
shapes = (
{
closed = 1;
nodes = (
(779,-30,o),
(1037,141,o),
(1037,420,cs),
(1037,556,o),
(967,647,o),
(849,716,c),
(1018,763,o),
(1168,897,o),
(1168,1093,cs),
(1168,1306,o),
(978,1430,o),
(773,1430,cs),
(554,1430,o),
(320,1285,o),
(320,1032,cs),
(320,924,o),
(386,817,o),
(474,766,c),
(270,720,o),
(101,565,o),
(101,334,cs),
(101,80,o),
(322,-30,o),
(536,-30,cs)
);
},
{
closed = 1;
nodes = (
(390,82,o),
(224,160,o),
(224,343,cs),
(224,562,o),
(396,680,o),
(591,680,cs),
(750,680,o),
(914,603,o),
(914,415,cs),
(914,198,o),
(737,82,o),
(544,82,cs)
);
},
{
closed = 1;
nodes = (
(577,792,o),
(438,863,o),
(438,1037,cs),
(438,1220,o),
(601,1318,o),
(762,1318,cs),
(910,1318,o),
(1050,1240,o),
(1050,1070,cs),
(1050,883,o),
(890,792,o),
(728,792,cs)
);
}
);
width = 1200;
}
);
leftKerningGroup = plus2;
rightKerningGroup = plus;
unicode = 56;
},
{
glyphname = nine.tnum;
layers = (
{
layerId = "E5A1D094-7979-46BB-98CB-6CA2CEC0290A";
shapes = (
{
closed = 1;
nodes = (
(117,-26,l),
(678,-26,o),
(1190,345,o),
(1190,910,cs),
(1190,1223,o),
(984,1430,o),
(676,1430,cs),
(375,1430,o),
(141,1216,o),
(141,923,cs),
(141,679,o),
(311,505,o),
(565,505,cs),
(619,505,o),
(668,520,o),
(713,549,c),
(602,383,o),
(373,306,o),
(103,280,c)
);
},
{
closed = 1;
nodes = (
(573,806,o),
(519,867,o),
(519,944,cs),
(519,1043,o),
(590,1113,o),
(677,1113,cs),
(757,1113,o),
(815,1052,o),
(815,973,cs),
(815,876,o),
(742,806,o),
(655,806,cs)
);
}
);
width = 1200;
},
{
layerId = "87D444F7-2C21-4B59-A154-9C48869C513F";
shapes = (
{
closed = 1;
nodes = (
(137,-30,l),
(684,-30,o),
(1223,419,o),
(1223,958,cs),
(1223,1242,o),
(1029,1430,o),
(734,1430,cs),
(444,1430,o),
(206,1213,o),
(206,931,cs),
(206,706,o),
(382,529,o),
(644,529,cs),
(731,529,o),
(804,554,o),
(866,610,c),
(698,343,o),
(412,166,o),
(102,166,c)
);
},
{
closed = 1;
nodes = (
(549,726,o),
(452,815,o),
(452,944,cs),
(452,1096,o),
(580,1215,o),
(735,1215,cs),
(886,1215,o),
(981,1125,o),
(981,1003,cs),
(981,843,o),
(847,726,o),
(693,726,cs)
);
}
);
width = 1200;
},
{
layerId = "053D553B-8824-4E8E-8E3D-8C773BB81ED6";
shapes = (
{
closed = 1;
nodes = (
(97,-28,l),
(664,-28,o),
(1172,390,o),
(1172,989,cs),
(1172,1261,o),
(1000,1430,o),
(718,1430,cs),
(440,1430,o),
(209,1209,o),
(209,928,cs),
(209,699,o),
(394,539,o),
(624,539,cs),
(783,539,o),
(909,605,o),
(1009,722,c),
(889,337,o),
(543,80,o),
(104,80,c)
);
},
{
closed = 1;
nodes = (
(470,647,o),
(338,770,o),
(338,947,cs),
(338,1145,o),
(508,1315,o),
(721,1315,cs),
(930,1315,o),
(1055,1192,o),
(1055,1021,cs),
(1055,807,o),
(875,647,o),
(666,647,cs)
);
}
);
width = 1200;
}
);
leftKerningGroup = plus2;
rightKerningGroup = plus;
unicode = 57;
},
{
glyphname = less;
layers = (
{
layerId = "E5A1D094-7979-46BB-98CB-6CA2CEC0290A";
shapes = (
{
closed = 1;
nodes = (
(1153,324,l),
(513,608,l),
(1376,927,l),
(1283,1182,l),
(134,765,l),
(63,495,l),
(1045,69,l)
);
}
);
width = 1296;
},
{
layerId = "87D444F7-2C21-4B59-A154-9C48869C513F";
shapes = (
{
closed = 1;
nodes = (
(1117,337,l),
(448,633,l),
(1325,953,l),
(1260,1133,l),
(188,738,l),
(141,557,l),
(1041,160,l)
);
}
);
width = 1296;
},
{
layerId = "053D553B-8824-4E8E-8E3D-8C773BB81ED6";
shapes = (
{
closed = 1;
nodes = (
(1082,351,l),
(383,659,l),
(1275,979,l),
(1237,1085,l),
(242,712,l),
(219,620,l),
(1037,251,l)
);
}
);
width = 1296;
}
);
leftKerningGroup = plus2;
rightKerningGroup = plus;
unicode = 60;
},
{
glyphname = equal;
layers = (
{
layerId = "E5A1D094-7979-46BB-98CB-6CA2CEC0290A";
shapes = (
{
closed = 1;
nodes = (
(1300,782,l),
(1371,1050,l),
(211,1050,l),
(140,782,l)
);
},
{
closed = 1;
nodes = (
(1170,291,l),
(1240,559,l),
(80,559,l),
(10,291,l)
);
}
);
width = 1296;
},
{
layerId = "87D444F7-2C21-4B59-A154-9C48869C513F";
shapes = (
{
closed = 1;
nodes = (
(1250,782,l),
(1298,964,l),
(250,964,l),
(202,782,l)
);
},
{
closed = 1;
nodes = (
(1139,372,l),
(1187,554,l),
(139,554,l),
(91,372,l)
);
}
);
width = 1296;
},
{
layerId = "053D553B-8824-4E8E-8E3D-8C773BB81ED6";
shapes = (
{
closed = 1;
nodes = (
(1200,782,l),
(1225,878,l),
(289,878,l),
(264,782,l)
);
},
{
closed = 1;
nodes = (
(1109,454,l),
(1135,550,l),
(199,550,l),
(173,454,l)
);
}
);
width = 1296;
}
);
leftKerningGroup = plus2;
rightKerningGroup = plus;
unicode = 61;
},
{
glyphname = greater;
layers = (
{
layerId = "E5A1D094-7979-46BB-98CB-6CA2CEC0290A";
shapes = (
{
closed = 1;
nodes = (
(1222,495,l),
(1293,765,l),
(311,1189,l),
(203,936,l),
(843,652,l),
(-20,331,l),
(73,78,l)
);
}
);
width = 1296;
},
{
layerId = "87D444F7-2C21-4B59-A154-9C48869C513F";
shapes = (
{
closed = 1;
nodes = (
(1188,558,l),
(1235,739,l),
(335,1135,l),
(259,959,l),
(928,663,l),
(51,342,l),
(116,163,l)
);
}
);
width = 1296;
},
{
layerId = "053D553B-8824-4E8E-8E3D-8C773BB81ED6";
shapes = (
{
closed = 1;
nodes = (
(1154,622,l),
(1177,714,l),
(359,1081,l),
(315,983,l),
(1014,675,l),
(122,353,l),
(160,249,l)
);
}
);
width = 1296;
}
);
leftKerningGroup = plus2;
rightKerningGroup = plus;
unicode = 62;
},
{
glyphname = question;
layers = (
{
guides = (
{
position = "{0, 1400}";
}
);
layerId = "E5A1D094-7979-46BB-98CB-6CA2CEC0290A";
shapes = (
{
closed = 1;
nodes = (
(349,503,l),
(292,545,o),
(209,609,o),
(209,688,cs),
(209,796,o),
(281,851,o),
(363,888,cs),
(466,934,ls),
(528,962,o),
(577,994,o),
(577,1050,cs),
(577,1114,o),
(470,1118,o),
(425,1118,cs),
(352,1118,o),
(280,1096,o),
(209,1073,c),
(221,1407,l),
(298,1461,o),
(470,1470,o),
(563,1470,cs),
(774,1470,o),
(1099,1384,o),
(1099,1122,cs),
(1099,944,o),
(975,863,o),
(821,803,cs),
(673,745,ls),
(609,720,o),
(566,686,o),
(566,637,cs),
(566,596,o),
(607,553,o),
(633,526,c)
);
},
{
closed = 1;
nodes = (
(442,-30,o),
(569,81,o),
(569,227,cs),
(569,354,o),
(458,420,o),
(342,420,cs),
(199,420,o),
(76,312,o),
(76,164,cs),
(76,40,o),
(183,-30,o),
(299,-30,cs)
);
}
);
width = 1052;
},
{
guides = (
{
position = "{0, 1400}";
}
);
layerId = "87D444F7-2C21-4B59-A154-9C48869C513F";
shapes = (
{
closed = 1;
nodes = (
(336,440,l),
(275,488,o),
(213,549,o),
(213,633,cs),
(213,781,o),
(313,844,o),
(425,884,cs),
(566,935,ls),
(653,966,o),
(719,1012,o),
(719,1103,cs),
(719,1213,o),
(545,1235,o),
(466,1235,cs),
(386,1235,o),
(308,1216,o),
(237,1182,c),
(231,1402,l),
(318,1456,o),
(447,1470,o),
(548,1470,cs),
(753,1470,o),
(1038,1381,o),
(1038,1131,cs),
(1038,935,o),
(904,808,o),
(722,755,cs),
(557,707,ls),
(487,687,o),
(439,657,o),
(439,599,cs),
(439,550,o),
(491,496,o),
(523,463,c)
);
},
{
closed = 1;
nodes = (
(371,-30,o),
(463,52,o),
(463,159,cs),
(463,250,o),
(382,300,o),
(298,300,cs),
(194,300,o),
(102,221,o),
(102,114,cs),
(102,23,o),
(182,-30,o),
(267,-30,cs)
);
}
);
width = 1001;
},
{
layerId = "053D553B-8824-4E8E-8E3D-8C773BB81ED6";
shapes = (
{
closed = 1;
nodes = (
(322,386,l),
(266,438,o),
(214,501,o),
(214,582,cs),
(214,718,o),
(342,777,o),
(482,835,cs),
(660,908,ls),
(771,953,o),
(854,1028,o),
(854,1151,cs),
(854,1320,o),
(633,1363,o),
(502,1363,cs),
(418,1363,o),
(334,1345,o),
(263,1299,c),
(239,1407,l),
(327,1455,o),
(426,1479,o),
(525,1479,cs),
(711,1479,o),
(986,1393,o),
(986,1166,cs),
(986,960,o),
(805,864,o),
(637,793,cs),
(451,714,ls),
(370,680,o),
(317,635,o),
(317,576,cs),
(317,507,o),
(369,453,o),
(412,407,c)
);
},
{
closed = 1;
nodes = (
(297,-21,o),
(357,30,o),
(357,97,cs),
(357,156,o),
(305,188,o),
(250,188,cs),
(186,188,o),
(126,140,o),
(126,73,cs),
(126,14,o),
(178,-21,o),
(233,-21,cs)
);
}
);
width = 950;
}
);
unicode = 63;
},
{
glyphname = at;
layers = (
{
layerId = "E5A1D094-7979-46BB-98CB-6CA2CEC0290A";
shapes = (
{
closed = 1;
nodes = (
(968,-234,o),
(1065,-219,o),
(1161,-191,cs),
(1257,-162,o),
(1345,-120,o),
(1426,-64,c),
(1346,116,l),
(1277,67,o),
(1201,27,o),
(1118,0,cs),
(1035,-27,o),
(949,-40,o),
(860,-40,cs),
(687,-40,o),
(545,13,o),
(445,105,cs),
(344,197,o),
(286,324,o),
(286,480,cs),
(286,647,o),
(347,789,o),
(454,892,cs),
(561,995,o),
(705,1054,o),
(876,1054,cs),
(1037,1054,o),
(1171,1007,o),
(1267,923,cs),
(1363,839,o),
(1418,720,o),
(1418,576,cs),
(1418,503,o),
(1405,445,o),
(1380,406,cs),
(1355,366,o),
(1317,346,o),
(1272,346,cs),
(1241,346,o),
(1220,356,o),
(1205,373,cs),
(1190,390,o),
(1183,418,o),
(1186,450,c),
(1208,840,l),
(1022,840,l),
(1020,788,l),
(952,844,o),
(887,866,o),
(810,866,cs),
(705,866,o),
(613,829,o),
(549,761,cs),
(485,693,o),
(448,600,o),
(448,492,cs),
(448,392,o),
(481,309,o),
(541,249,cs),
(601,189,o),
(682,154,o),
(782,154,cs),
(881,154,o),
(950,187,o),
(1026,262,c),
(1070,190,o),
(1147,154,o),
(1252,154,cs),
(1356,154,o),
(1448,203,o),
(1516,279,cs),
(1584,355,o),
(1626,460,o),
(1626,576,cs),
(1626,775,o),
(1551,939,o),
(1419,1058,cs),
(1286,1177,o),
(1103,1242,o),
(882,1242,cs),
(649,1242,o),
(451,1164,o),
(307,1028,cs),
(162,891,o),
(78,705,o),
(78,486,cs),
(78,273,o),
(156,95,o),
(296,-34,cs),
(436,-162,o),
(631,-234,o),
(864,-234,cs)
);
},
{
closed = 1;
nodes = (
(736,366,o),
(696,410,o),
(696,490,cs),
(696,539,o),
(709,581,o),
(734,609,cs),
(759,637,o),
(793,652,o),
(836,652,cs),
(908,652,o),
(950,608,o),
(950,528,cs),
(950,428,o),
(896,366,o),
(808,366,cs)
);
}
);
width = 1688;
},
{
layerId = "87D444F7-2C21-4B59-A154-9C48869C513F";
shapes = (
{
closed = 1;
nodes = (
(975,-234,o),
(1078,-219,o),
(1174,-191,cs),
(1270,-163,o),
(1355,-122,o),
(1427,-71,c),
(1367,59,l),
(1307,12,o),
(1230,-26,o),
(1146,-53,cs),
(1061,-80,o),
(969,-94,o),
(877,-94,cs),
(689,-94,o),
(535,-37,o),
(426,67,cs),
(317,170,o),
(254,312,o),
(254,485,cs),
(254,664,o),
(321,816,o),
(436,928,cs),
(551,1040,o),
(706,1105,o),
(889,1105,cs),
(1064,1105,o),
(1209,1051,o),
(1313,958,cs),
(1417,865,o),
(1477,731,o),
(1477,574,cs),
(1477,485,o),
(1459,411,o),
(1424,360,cs),
(1389,308,o),
(1343,280,o),
(1287,280,cs),
(1244,280,o),
(1216,291,o),
(1199,315,cs),
(1182,338,o),
(1175,374,o),
(1178,422,cs),
(1201,852,l),
(1058,852,l),
(1055,780,l),
(990,848,o),
(917,878,o),
(829,878,cs),
(728,878,o),
(638,838,o),
(574,767,cs),
(510,696,o),
(472,599,o),
(472,490,cs),
(472,390,o),
(506,305,o),
(563,242,cs),
(619,179,o),
(699,143,o),
(792,143,cs),
(904,143,o),
(991,188,o),
(1056,273,c),
(1085,189,o),
(1157,143,o),
(1270,143,cs),
(1370,143,o),
(1458,191,o),
(1523,268,cs),
(1587,345,o),
(1628,454,o),
(1628,575,cs),
(1628,774,o),
(1554,938,o),
(1423,1057,cs),
(1292,1176,o),
(1111,1242,o),
(892,1242,cs),
(664,1242,o),
(469,1163,o),
(328,1027,cs),
(187,890,o),
(103,704,o),
(103,485,cs),
(103,270,o),
(179,93,o),
(316,-35,cs),
(452,-163,o),
(642,-234,o),
(871,-234,cs)
);
},
{
closed = 1;
nodes = (
(707,297,o),
(648,363,o),
(648,487,cs),
(648,560,o),
(666,620,o),
(701,661,cs),
(736,701,o),
(785,723,o),
(846,723,cs),
(954,723,o),
(1013,656,o),
(1013,535,cs),
(1013,386,o),
(940,297,o),
(815,297,cs)
);
}
);
width = 1707;
},
{
layerId = "053D553B-8824-4E8E-8E3D-8C773BB81ED6";
shapes = (
{
closed = 1;
nodes = (
(984,-234,o),
(1091,-219,o),
(1188,-192,cs),
(1284,-164,o),
(1368,-125,o),
(1429,-78,c),
(1389,2,l),
(1338,-41,o),
(1262,-78,o),
(1174,-106,cs),
(1086,-133,o),
(988,-148,o),
(895,-148,cs),
(691,-148,o),
(528,-83,o),
(409,30,cs),
(290,143,o),
(223,299,o),
(223,490,cs),
(223,681,o),
(294,845,o),
(418,966,cs),
(542,1086,o),
(708,1156,o),
(903,1156,cs),
(1090,1156,o),
(1247,1098,o),
(1360,994,cs),
(1473,890,o),
(1537,745,o),
(1537,572,cs),
(1537,467,o),
(1511,378,o),
(1468,314,cs),
(1424,250,o),
(1367,214,o),
(1303,214,cs),
(1247,214,o),
(1214,228,o),
(1194,257,cs),
(1174,285,o),
(1167,330,o),
(1171,394,cs),
(1195,864,l),
(1095,864,l),
(1091,772,l),
(1027,852,o),
(946,890,o),
(849,890,cs),
(752,890,o),
(663,846,o),
(599,773,cs),
(535,700,o),
(497,600,o),
(497,488,cs),
(497,388,o),
(529,299,o),
(585,235,cs),
(641,171,o),
(715,132,o),
(803,132,cs),
(928,132,o),
(1031,189,o),
(1087,284,c),
(1102,188,o),
(1165,132,o),
(1289,132,cs),
(1385,132,o),
(1469,178,o),
(1530,258,cs),
(1591,338,o),
(1631,446,o),
(1631,574,cs),
(1631,773,o),
(1556,936,o),
(1427,1056,cs),
(1298,1176,o),
(1119,1242,o),
(903,1242,cs),
(679,1242,o),
(489,1163,o),
(350,1026,cs),
(211,889,o),
(129,703,o),
(129,484,cs),
(129,269,o),
(202,92,o),
(335,-36,cs),
(468,-164,o),
(654,-234,o),
(879,-234,cs)
);
},
{
closed = 1;
nodes = (
(678,228,o),
(601,316,o),
(601,484,cs),
(601,581,o),
(624,660,o),
(669,713,cs),
(713,766,o),
(776,794,o),
(857,794,cs),
(998,794,o),
(1077,707,o),
(1077,542,cs),
(1077,342,o),
(984,228,o),
(823,228,cs)
);
}
);
width = 1726;
}
);
rightKerningGroup = at;
unicode = 64;
},
{
glyphname = A;
layers = (
{
layerId = "E5A1D094-7979-46BB-98CB-6CA2CEC0290A";
shapes = (
{
closed = 1;
nodes = (
(327,0,l),
(474,250,l),
(903,250,l),
(916,0,l),
(1359,0,l),
(1233,1400,l),
(755,1400,l),
(-141,0,l)
);
},
{
closed = 1;
nodes = (
(885,971,l),
(909,584,l),
(648,584,l)
);
}
);
width = 1498;
},
{
layerId = "87D444F7-2C21-4B59-A154-9C48869C513F";
shapes = (
{
closed = 1;
nodes = (
(184,0,l),
(384,317,l),
(939,317,l),
(975,0,l),
(1259,0,l),
(1088,1400,l),
(799,1400,l),
(-117,0,l)
);
},
{
closed = 1;
nodes = (
(867,1098,l),
(934,538,l),
(506,538,l)
);
}
);
width = 1411;
},
{
layerId = "053D553B-8824-4E8E-8E3D-8C773BB81ED6";
shapes = (
{
closed = 1;
nodes = (
(41,0,l),
(295,384,l),
(975,384,l),
(1035,0,l),
(1160,0,l),
(943,1400,l),
(843,1400,l),
(-92,0,l)
);
},
{
closed = 1;
nodes = (
(849,1225,l),
(960,492,l),
(364,492,l)
);
}
);
width = 1324;
}
);
leftKerningGroup = A2;
rightKerningGroup = A;
unicode = 65;
},
{
glyphname = B;
layers = (
{
layerId = "E5A1D094-7979-46BB-98CB-6CA2CEC0290A";
shapes = (
{
closed = 1;
nodes = (
(683,0,ls),
(836,0,o),
(981,43,o),
(1086,122,cs),
(1191,201,o),
(1260,313,o),
(1260,461,cs),
(1260,525,o),
(1246,580,o),
(1219,631,cs),
(1192,682,o),
(1151,720,o),
(1099,752,c),
(1179,781,o),
(1247,822,o),
(1296,878,cs),
(1344,934,o),
(1373,1002,o),
(1373,1082,cs),
(1373,1182,o),
(1332,1262,o),
(1252,1317,cs),
(1172,1372,o),
(1055,1400,o),
(906,1400,cs),
(390,1400,l),
(15,0,l)
);
},
{
closed = 1;
nodes = (
(573,574,l),
(678,574,ls),
(730,574,o),
(769,564,o),
(796,545,cs),
(823,525,o),
(834,496,o),
(834,456,cs),
(834,407,o),
(818,367,o),
(789,338,cs),
(760,309,o),
(717,290,o),
(668,290,cs),
(495,290,l)
);
},
{
closed = 1;
nodes = (
(718,1110,l),
(807,1110,ls),
(915,1110,o),
(966,1075,o),
(966,999,cs),
(966,962,o),
(952,923,o),
(928,892,cs),
(904,861,o),
(869,842,o),
(828,842,cs),
(645,842,l)
);
}
);
width = 1354;
},
{
layerId = "87D444F7-2C21-4B59-A154-9C48869C513F";
shapes = (
{
closed = 1;
nodes = (
(638,0,ls),
(782,0,o),
(912,44,o),
(1008,123,cs),
(1104,202,o),
(1163,313,o),
(1163,450,cs),
(1163,511,o),
(1149,569,o),
(1118,620,cs),
(1087,671,o),
(1042,711,o),
(978,739,c),
(1067,763,o),
(1146,807,o),
(1202,867,cs),
(1258,927,o),
(1290,1000,o),
(1290,1084,cs),
(1290,1184,o),
(1251,1262,o),
(1175,1317,cs),
(1099,1372,o),
(990,1400,o),
(850,1400,cs),
(417,1400,l),
(42,0,l)
);
},
{
closed = 1;
nodes = (
(469,622,l),
(667,622,ls),
(739,622,o),
(794,607,o),
(834,579,c),
(873,550,o),
(893,506,o),
(893,449,cs),
(893,369,o),
(868,309,o),
(821,266,cs),
(774,223,o),
(708,199,o),
(624,199,cs),
(354,199,l)
);
},
{
closed = 1;
nodes = (
(625,1201,l),
(780,1201,ls),
(947,1201,o),
(1027,1147,o),
(1027,1039,cs),
(1027,975,o),
(997,917,o),
(946,876,cs),
(895,835,o),
(824,810,o),
(743,810,cs),
(519,810,l)
);
}
);
width = 1287;
},
{
layerId = "053D553B-8824-4E8E-8E3D-8C773BB81ED6";
shapes = (
{
closed = 1;
nodes = (
(593,0,ls),
(726,0,o),
(845,47,o),
(930,124,cs),
(1014,201,o),
(1067,311,o),
(1067,440,cs),
(1067,500,o),
(1050,558,o),
(1017,610,cs),
(984,662,o),
(931,702,o),
(858,727,c),
(958,746,o),
(1045,791,o),
(1108,855,cs),
(1171,919,o),
(1207,1002,o),
(1207,1086,cs),
(1207,1183,o),
(1170,1262,o),
(1098,1317,cs),
(1026,1372,o),
(924,1400,o),
(795,1400,cs),
(445,1400,l),
(70,0,l)
);
},
{
closed = 1;
nodes = (
(365,670,l),
(657,670,ls),
(745,670,o),
(819,652,o),
(872,613,cs),
(924,574,o),
(952,519,o),
(952,443,cs),
(952,334,o),
(917,251,o),
(853,195,cs),
(789,139,o),
(697,108,o),
(581,108,cs),
(214,108,l)
);
},
{
closed = 1;
nodes = (
(533,1292,l),
(754,1292,ls),
(978,1292,o),
(1088,1217,o),
(1088,1080,cs),
(1088,988,o),
(1041,913,o),
(964,861,cs),
(887,808,o),
(780,778,o),
(659,778,cs),
(394,778,l)
);
}
);
width = 1220;
}
);
leftKerningGroup = B2;
rightKerningGroup = B;
unicode = 66;
},
{
glyphname = C;
layers = (
{
layerId = "E5A1D094-7979-46BB-98CB-6CA2CEC0290A";
shapes = (
{
closed = 1;
nodes = (
(979,-30,o),
(1138,16,o),
(1266,93,c),
(1170,449,l),
(1065,388,o),
(950,364,o),
(857,364,cs),
(756,364,o),
(678,391,o),
(626,436,cs),
(573,481,o),
(546,547,o),
(546,627,cs),
(546,744,o),
(580,846,o),
(644,919,cs),
(708,991,o),
(801,1036,o),
(914,1036,cs),
(1047,1036,o),
(1157,988,o),
(1214,899,c),
(1486,1204,l),
(1413,1288,o),
(1337,1344,o),
(1249,1380,cs),
(1161,1415,o),
(1062,1430,o),
(942,1430,cs),
(865,1430,o),
(793,1420,o),
(721,1399,cs),
(580,1358,o),
(456,1282,o),
(356,1177,cs),
(305,1124,o),
(262,1066,o),
(227,1001,cs),
(155,870,o),
(113,721,o),
(113,557,cs),
(113,369,o),
(187,224,o),
(308,124,cs),
(429,23,o),
(595,-30,o),
(788,-30,cs)
);
}
);
width = 1406;
},
{
layerId = "87D444F7-2C21-4B59-A154-9C48869C513F";
shapes = (
{
closed = 1;
nodes = (
(963,-30,o),
(1110,10,o),
(1242,90,c),
(1179,322,l),
(1071,254,o),
(957,223,o),
(841,223,cs),
(708,223,o),
(602,259,o),
(530,323,cs),
(457,387,o),
(418,479,o),
(418,596,cs),
(418,757,o),
(467,902,o),
(558,1007,cs),
(649,1112,o),
(776,1178,o),
(936,1178,cs),
(1093,1178,o),
(1211,1125,o),
(1283,1032,c),
(1463,1229,l),
(1402,1298,o),
(1333,1349,o),
(1249,1382,cs),
(1165,1414,o),
(1068,1430,o),
(955,1430,cs),
(879,1430,o),
(807,1419,o),
(736,1398,cs),
(595,1355,o),
(476,1279,o),
(376,1171,cs),
(327,1116,o),
(285,1057,o),
(250,992,cs),
(179,860,o),
(139,712,o),
(139,551,cs),
(139,370,o),
(204,226,o),
(320,126,cs),
(436,25,o),
(596,-30,o),
(792,-30,cs)
);
}
);
width = 1399;
},
{
layerId = "053D553B-8824-4E8E-8E3D-8C773BB81ED6";
shapes = (
{
closed = 1;
nodes = (
(946,-30,o),
(1083,4,o),
(1219,88,c),
(1189,196,l),
(1077,120,o),
(962,82,o),
(826,82,cs),
(658,82,o),
(526,127,o),
(434,211,cs),
(341,295,o),
(291,413,o),
(291,565,cs),
(291,770,o),
(354,959,o),
(471,1096,cs),
(588,1233,o),
(754,1320,o),
(959,1320,cs),
(1142,1320,o),
(1268,1262,o),
(1352,1166,c),
(1441,1254,l),
(1392,1310,o),
(1329,1355,o),
(1249,1384,cs),
(1169,1413,o),
(1076,1430,o),
(968,1430,cs),
(892,1430,o),
(821,1420,o),
(752,1397,cs),
(613,1353,o),
(494,1274,o),
(398,1165,cs),
(349,1109,o),
(309,1051,o),
(274,984,cs),
(205,851,o),
(165,702,o),
(165,545,cs),
(165,372,o),
(225,229,o),
(334,128,cs),
(442,27,o),
(598,-30,o),
(797,-30,cs)
);
}
);
width = 1392;
}
);
leftKerningGroup = C2;
rightKerningGroup = C;
unicode = 67;
},
{
glyphname = D;
layers = (
{
layerId = "E5A1D094-7979-46BB-98CB-6CA2CEC0290A";
shapes = (
{
closed = 1;
nodes = (
(640,0,ls),
(880,0,o),
(1083,89,o),
(1232,234,cs),
(1380,379,o),
(1465,581,o),
(1465,812,cs),
(1465,1008,o),
(1391,1152,o),
(1263,1252,cs),
(1134,1352,o),
(960,1400,o),
(752,1400,cs),
(388,1400,l),
(13,0,l)
);
},
{
closed = 1;
nodes = (
(690,1024,l),
(729,1024,ls),
(821,1024,o),
(899,1004,o),
(954,961,cs),
(1009,918,o),
(1037,857,o),
(1037,769,cs),
(1037,657,o),
(1006,561,o),
(942,490,cs),
(878,419,o),
(787,376,o),
(670,376,cs),
(519,376,l)
);
}
);
width = 1480;
},
{
layerId = "87D444F7-2C21-4B59-A154-9C48869C513F";
shapes = (
{
closed = 1;
nodes = (
(566,0,ls),
(815,0,o),
(1024,83,o),
(1173,228,cs),
(1322,373,o),
(1407,575,o),
(1407,816,cs),
(1407,1012,o),
(1333,1157,o),
(1205,1254,cs),
(1077,1351,o),
(903,1400,o),
(698,1400,cs),
(414,1400,l),
(39,0,l)
);
},
{
closed = 1;
nodes = (
(609,1158,l),
(703,1158,ls),
(836,1158,o),
(942,1123,o),
(1018,1059,cs),
(1094,994,o),
(1133,901,o),
(1133,784,cs),
(1133,632,o),
(1083,497,o),
(991,400,cs),
(899,303,o),
(770,242,o),
(610,242,cs),
(364,242,l)
);
}
);
width = 1438;
},
{
layerId = "053D553B-8824-4E8E-8E3D-8C773BB81ED6";
shapes = (
{
closed = 1;
nodes = (
(493,0,ls),
(752,0,o),
(962,79,o),
(1114,223,cs),
(1266,367,o),
(1350,569,o),
(1350,821,cs),
(1350,1017,o),
(1276,1161,o),
(1148,1257,cs),
(1020,1353,o),
(848,1400,o),
(645,1400,cs),
(441,1400,l),
(66,0,l)
);
},
{
closed = 1;
nodes = (
(528,1292,l),
(678,1292,ls),
(850,1292,o),
(988,1245,o),
(1084,1157,cs),
(1180,1069,o),
(1229,949,o),
(1229,800,cs),
(1229,608,o),
(1161,437,o),
(1040,312,cs),
(919,187,o),
(751,108,o),
(550,108,cs),
(210,108,l)
);
}
);
width = 1396;
}
);
leftKerningGroup = B2;
rightKerningGroup = D;
unicode = 68;
},
{
glyphname = E;
layers = (
{
layerId = "E5A1D094-7979-46BB-98CB-6CA2CEC0290A";
shapes = (
{
closed = 1;
nodes = (
(1063,0,l),
(1157,352,l),
(515,352,l),
(568,552,l),
(1088,552,l),
(1174,870,l),
(654,870,l),
(702,1052,l),
(1336,1052,l),
(1430,1400,l),
(392,1400,l),
(17,0,l)
);
}
);
width = 1306;
},
{
layerId = "87D444F7-2C21-4B59-A154-9C48869C513F";
shapes = (
{
closed = 1;
nodes = (
(982,0,l),
(1043,230,l),
(365,230,l),
(470,620,l),
(1044,620,l),
(1101,833,l),
(527,833,l),
(618,1172,l),
(1289,1172,l),
(1350,1400,l),
(419,1400,l),
(44,0,l)
);
}
);
width = 1243;
},
{
layerId = "053D553B-8824-4E8E-8E3D-8C773BB81ED6";
shapes = (
{
closed = 1;
nodes = (
(901,0,l),
(929,108,l),
(215,108,l),
(372,688,l),
(1000,688,l),
(1028,796,l),
(400,796,l),
(534,1292,l),
(1242,1292,l),
(1270,1400,l),
(446,1400,l),
(71,0,l)
);
}
);
width = 1180;
}
);
leftKerningGroup = B2;
rightKerningGroup = E;
unicode = 69;
},
{
glyphname = F;
layers = (
{
layerId = "E5A1D094-7979-46BB-98CB-6CA2CEC0290A";
shapes = (
{
closed = 1;
nodes = (
(421,0,l),
(545,466,l),
(1039,466,l),
(1137,818,l),
(643,818,l),
(698,1032,l),
(1254,1032,l),
(1352,1400,l),
(392,1400,l),
(17,0,l)
);
}
);
width = 1216;
},
{
layerId = "87D444F7-2C21-4B59-A154-9C48869C513F";
shapes = (
{
closed = 1;
nodes = (
(304,0,l),
(456,567,l),
(1019,567,l),
(1082,797,l),
(519,797,l),
(616,1162,l),
(1240,1162,l),
(1303,1400,l),
(419,1400,l),
(44,0,l)
);
}
);
width = 1174;
},
{
layerId = "053D553B-8824-4E8E-8E3D-8C773BB81ED6";
shapes = (
{
closed = 1;
nodes = (
(187,0,l),
(367,668,l),
(999,668,l),
(1028,776,l),
(396,776,l),
(535,1292,l),
(1227,1292,l),
(1254,1400,l),
(446,1400,l),
(71,0,l)
);
}
);
width = 1132;
}
);
leftKerningGroup = B2;
rightKerningGroup = F;
unicode = 70;
},
{
glyphname = G;
layers = (
{
layerId = "E5A1D094-7979-46BB-98CB-6CA2CEC0290A";
shapes = (
{
closed = 1;
nodes = (
(903,-30,o),
(974,-25,o),
(1046,-14,cs),
(1118,-3,o),
(1192,13,o),
(1253,34,c),
(1469,838,l),
(853,838,l),
(767,522,l),
(1033,522,l),
(979,326,l),
(951,322,o),
(925,322,o),
(898,322,cs),
(798,322,o),
(707,347,o),
(640,399,cs),
(573,451,o),
(533,528,o),
(533,628,cs),
(533,757,o),
(574,864,o),
(650,944,cs),
(726,1024,o),
(836,1068,o),
(969,1068,cs),
(1041,1068,o),
(1101,1059,o),
(1156,1042,c),
(1211,1023,o),
(1259,996,o),
(1304,957,c),
(1541,1248,l),
(1448,1325,o),
(1349,1370,o),
(1253,1397,cs),
(1157,1424,o),
(1063,1430,o),
(982,1430,cs),
(901,1430,o),
(824,1420,o),
(749,1401,cs),
(600,1362,o),
(469,1290,o),
(365,1190,cs),
(312,1139,o),
(268,1083,o),
(231,1022,cs),
(158,897,o),
(115,753,o),
(115,596,cs),
(115,403,o),
(194,247,o),
(323,139,cs),
(452,30,o),
(631,-30,o),
(835,-30,cs)
);
}
);
width = 1512;
},
{
layerId = "87D444F7-2C21-4B59-A154-9C48869C513F";
shapes = (
{
closed = 1;
nodes = (
(897,-30,o),
(966,-25,o),
(1035,-14,cs),
(1103,-3,o),
(1173,13,o),
(1230,34,c),
(1425,762,l),
(862,762,l),
(804,550,l),
(1136,550,l),
(1048,215,l),
(1004,206,o),
(952,200,o),
(892,200,cs),
(747,200,o),
(626,236,o),
(542,307,cs),
(457,378,o),
(408,477,o),
(408,606,cs),
(408,771,o),
(462,916,o),
(562,1023,cs),
(662,1130,o),
(801,1193,o),
(973,1193,cs),
(1046,1193,o),
(1115,1183,o),
(1179,1163,cs),
(1243,1142,o),
(1300,1111,o),
(1351,1070,c),
(1508,1261,l),
(1435,1325,o),
(1350,1367,o),
(1262,1394,cs),
(1174,1421,o),
(1084,1430,o),
(996,1430,cs),
(915,1430,o),
(838,1420,o),
(765,1401,cs),
(616,1361,o),
(490,1290,o),
(386,1187,cs),
(334,1136,o),
(290,1080,o),
(254,1017,cs),
(181,892,o),
(139,745,o),
(139,588,cs),
(139,397,o),
(215,245,o),
(340,137,cs),
(465,29,o),
(638,-30,o),
(837,-30,cs)
);
}
);
width = 1506;
},
{
layerId = "053D553B-8824-4E8E-8E3D-8C773BB81ED6";
shapes = (
{
closed = 1;
nodes = (
(893,-30,o),
(959,-25,o),
(1024,-14,cs),
(1088,-3,o),
(1155,14,o),
(1207,35,c),
(1382,686,l),
(872,686,l),
(842,578,l),
(1240,578,l),
(1117,104,l),
(1057,91,o),
(978,79,o),
(886,79,cs),
(698,79,o),
(549,126,o),
(445,215,cs),
(341,303,o),
(284,428,o),
(284,584,cs),
(284,787,o),
(353,967,o),
(474,1102,cs),
(595,1237,o),
(768,1318,o),
(977,1318,cs),
(1053,1318,o),
(1127,1307,o),
(1202,1284,cs),
(1277,1261,o),
(1341,1228,o),
(1398,1183,c),
(1475,1275,l),
(1422,1326,o),
(1352,1364,o),
(1272,1391,cs),
(1192,1418,o),
(1102,1430,o),
(1010,1430,cs),
(930,1430,o),
(854,1420,o),
(781,1400,cs),
(636,1360,o),
(510,1289,o),
(407,1185,cs),
(356,1133,o),
(312,1077,o),
(277,1013,cs),
(205,886,o),
(164,740,o),
(164,580,cs),
(164,393,o),
(237,243,o),
(358,135,cs),
(479,27,o),
(647,-30,o),
(840,-30,cs)
);
}
);
width = 1500;
}
);
leftKerningGroup = C2;
rightKerningGroup = G;
unicode = 71;
},
{
glyphname = H;
layers = (
{
layerId = "E5A1D094-7979-46BB-98CB-6CA2CEC0290A";
shapes = (
{
closed = 1;
nodes = (
(421,0,l),
(565,538,l),
(1033,538,l),
(889,0,l),
(1293,0,l),
(1668,1400,l),
(1264,1400,l),
(1131,906,l),
(663,906,l),
(796,1400,l),
(392,1400,l),
(17,0,l)
);
}
);
width = 1588;
},
{
layerId = "87D444F7-2C21-4B59-A154-9C48869C513F";
shapes = (
{
closed = 1;
nodes = (
(304,0,l),
(470,618,l),
(1106,618,l),
(940,0,l),
(1200,0,l),
(1575,1400,l),
(1315,1400,l),
(1169,856,l),
(533,856,l),
(679,1400,l),
(419,1400,l),
(44,0,l)
);
}
);
width = 1512;
},
{
layerId = "053D553B-8824-4E8E-8E3D-8C773BB81ED6";
shapes = (
{
closed = 1;
nodes = (
(188,0,l),
(375,698,l),
(1179,698,l),
(992,0,l),
(1108,0,l),
(1483,1400,l),
(1367,1400,l),
(1207,806,l),
(403,806,l),
(563,1400,l),
(447,1400,l),
(72,0,l)
);
}
);
width = 1436;
}
);
leftKerningGroup = B2;
rightKerningGroup = H;
unicode = 72;
},
{
glyphname = I;
layers = (
{
layerId = "E5A1D094-7979-46BB-98CB-6CA2CEC0290A";
shapes = (
{
closed = 1;
nodes = (
(421,0,l),
(796,1400,l),
(392,1400,l),
(17,0,l)
);
}
);
width = 716;
},
{
layerId = "87D444F7-2C21-4B59-A154-9C48869C513F";
shapes = (
{
closed = 1;
nodes = (
(304,0,l),
(679,1400,l),
(419,1400,l),
(44,0,l)
);
}
);
width = 616;
},
{
layerId = "053D553B-8824-4E8E-8E3D-8C773BB81ED6";
shapes = (
{
closed = 1;
nodes = (
(188,0,l),
(563,1400,l),
(447,1400,l),
(72,0,l)
);
}
);
width = 516;
}
);
leftKerningGroup = B2;
rightKerningGroup = H;
unicode = 73;
},
{
glyphname = J;
layers = (
{
layerId = "E5A1D094-7979-46BB-98CB-6CA2CEC0290A";
shapes = (
{
closed = 1;
nodes = (
(497,-30,o),
(619,16,o),
(716,99,cs),
(812,182,o),
(882,300,o),
(923,448,cs),
(1179,1400,l),
(775,1400,l),
(541,538,ls),
(522,469,o),
(492,418,o),
(456,386,cs),
(419,354,o),
(374,338,o),
(322,338,cs),
(246,338,o),
(172,370,o),
(88,427,c),
(-105,119,l),
(-4,27,o),
(150,-30,o),
(345,-30,cs)
);
}
);
width = 1100;
},
{
layerId = "87D444F7-2C21-4B59-A154-9C48869C513F";
shapes = (
{
closed = 1;
nodes = (
(432,-30,o),
(543,10,o),
(631,85,cs),
(719,160,o),
(783,268,o),
(820,405,cs),
(1087,1400,l),
(827,1400,l),
(571,452,ls),
(547,364,o),
(511,303,o),
(464,264,cs),
(416,225,o),
(357,208,o),
(285,208,cs),
(201,208,o),
(126,236,o),
(50,288,c),
(-83,89,l),
(14,12,o),
(142,-30,o),
(295,-30,cs)
);
}
);
width = 1025;
},
{
layerId = "053D553B-8824-4E8E-8E3D-8C773BB81ED6";
shapes = (
{
closed = 1;
nodes = (
(367,-30,o),
(467,5,o),
(547,72,cs),
(627,139,o),
(683,234,o),
(718,362,cs),
(996,1400,l),
(880,1400,l),
(601,366,ls),
(572,261,o),
(529,188,o),
(472,143,cs),
(415,98,o),
(341,78,o),
(248,78,cs),
(156,78,o),
(77,103,o),
(12,150,c),
(-61,59,l),
(32,-5,o),
(134,-30,o),
(246,-30,cs)
);
}
);
width = 950;
}
);
leftKerningGroup = J2;
rightKerningGroup = J;
unicode = 74;
},
{
glyphname = K;
layers = (
{
layerId = "E5A1D094-7979-46BB-98CB-6CA2CEC0290A";
shapes = (
{
closed = 1;
nodes = (
(421,0,l),
(507,316,l),
(666,452,l),
(898,0,l),
(1395,0,l),
(996,733,l),
(1704,1400,l),
(1166,1400,l),
(664,924,l),
(796,1400,l),
(392,1400,l),
(17,0,l)
);
}
);
width = 1522;
},
{
layerId = "87D444F7-2C21-4B59-A154-9C48869C513F";
shapes = (
{
closed = 1;
nodes = (
(304,0,l),
(399,355,l),
(638,568,l),
(926,0,l),
(1245,0,l),
(850,752,l),
(1542,1400,l),
(1200,1400,l),
(503,749,l),
(679,1400,l),
(419,1400,l),
(44,0,l)
);
}
);
width = 1418;
},
{
layerId = "053D553B-8824-4E8E-8E3D-8C773BB81ED6";
shapes = (
{
closed = 1;
nodes = (
(188,0,l),
(292,395,l),
(610,685,l),
(955,0,l),
(1095,0,l),
(705,772,l),
(1380,1400,l),
(1234,1400,l),
(343,575,l),
(563,1400,l),
(447,1400,l),
(72,0,l)
);
}
);
width = 1314;
}
);
leftKerningGroup = B2;
rightKerningGroup = K;
unicode = 75;
},
{
glyphname = L;
layers = (
{
layerId = "E5A1D094-7979-46BB-98CB-6CA2CEC0290A";
shapes = (
{
closed = 1;
nodes = (
(951,0,l),
(1051,368,l),
(521,368,l),
(796,1400,l),
(392,1400,l),
(17,0,l)
);
}
);
width = 1150;
},
{
layerId = "87D444F7-2C21-4B59-A154-9C48869C513F";
shapes = (
{
closed = 1;
nodes = (
(898,0,l),
(962,238,l),
(368,238,l),
(679,1400,l),
(419,1400,l),
(44,0,l)
);
}
);
width = 1102;
},
{
layerId = "053D553B-8824-4E8E-8E3D-8C773BB81ED6";
shapes = (
{
closed = 1;
nodes = (
(845,0,l),
(874,108,l),
(216,108,l),
(562,1400,l),
(446,1400,l),
(71,0,l)
);
}
);
width = 1054;
}
);
leftKerningGroup = B2;
rightKerningGroup = L;
unicode = 76;
},
{
glyphname = M;
layers = (
{
layerId = "E5A1D094-7979-46BB-98CB-6CA2CEC0290A";
shapes = (
{
closed = 1;
nodes = (
(387,0,l),
(621,907,l),
(541,904,l),
(748,238,l),
(1011,238,l),
(1515,821,l),
(1461,862,l),
(1223,0,l),
(1613,0,l),
(1988,1400,l),
(1599,1400,l),
(894,569,l),
(1047,530,l),
(785,1400,l),
(392,1400,l),
(17,0,l)
);
}
);
width = 1908;
},
{
layerId = "87D444F7-2C21-4B59-A154-9C48869C513F";
shapes = (
{
closed = 1;
nodes = (
(282,0,l),
(565,1074,l),
(516,1071,l),
(773,289,l),
(960,289,l),
(1601,1009,l),
(1562,1036,l),
(1281,0,l),
(1534,0,l),
(1909,1400,l),
(1662,1400,l),
(877,498,l),
(973,473,l),
(674,1400,l),
(419,1400,l),
(44,0,l)
);
}
);
width = 1846;
},
{
layerId = "053D553B-8824-4E8E-8E3D-8C773BB81ED6";
shapes = (
{
closed = 1;
nodes = (
(178,0,l),
(509,1241,l),
(491,1238,l),
(798,340,l),
(910,340,l),
(1687,1198,l),
(1663,1210,l),
(1340,0,l),
(1456,0,l),
(1831,1400,l),
(1725,1400,l),
(861,427,l),
(899,416,l),
(564,1400,l),
(447,1400,l),
(72,0,l)
);
}
);
width = 1784;
}
);
leftKerningGroup = B2;
rightKerningGroup = H;
unicode = 77;
},
{
glyphname = N;
layers = (
{
layerId = "E5A1D094-7979-46BB-98CB-6CA2CEC0290A";
shapes = (
{
closed = 1;
nodes = (
(407,0,l),
(617,783,l),
(907,0,l),
(1301,0,l),
(1676,1400,l),
(1286,1400,l),
(1077,631,l),
(787,1400,l),
(392,1400,l),
(17,0,l)
);
}
);
width = 1596;
},
{
layerId = "87D444F7-2C21-4B59-A154-9C48869C513F";
shapes = (
{
closed = 1;
nodes = (
(297,0,l),
(563,992,l),
(964,0,l),
(1212,0,l),
(1587,1400,l),
(1334,1400,l),
(1070,420,l),
(669,1400,l),
(419,1400,l),
(44,0,l)
);
}
);
width = 1524;
},
{
layerId = "053D553B-8824-4E8E-8E3D-8C773BB81ED6";
shapes = (
{
closed = 1;
nodes = (
(188,0,l),
(510,1202,l),
(1022,0,l),
(1124,0,l),
(1499,1400,l),
(1383,1400,l),
(1063,210,l),
(551,1400,l),
(447,1400,l),
(72,0,l)
);
}
);
width = 1452;
}
);
leftKerningGroup = B2;
rightKerningGroup = H;
unicode = 78;
},
{
glyphname = O;
layers = (
{
layerId = "E5A1D094-7979-46BB-98CB-6CA2CEC0290A";
shapes = (
{
closed = 1;
nodes = (
(864,-30,o),
(938,-20,o),
(1009,-1,cs),
(1152,39,o),
(1279,113,o),
(1383,214,cs),
(1435,265,o),
(1480,321,o),
(1518,383,cs),
(1593,506,o),
(1636,651,o),
(1636,804,cs),
(1636,981,o),
(1571,1138,o),
(1453,1250,cs),
(1335,1362,o),
(1164,1430,o),
(956,1430,cs),
(879,1430,o),
(805,1420,o),
(734,1401,cs),
(590,1361,o),
(463,1287,o),
(360,1186,cs),
(308,1135,o),
(263,1079,o),
(226,1017,cs),
(151,892,o),
(108,747,o),
(108,591,cs),
(108,414,o),
(175,258,o),
(293,147,cs),
(411,36,o),
(580,-30,o),
(787,-30,cs)
);
},
{
closed = 1;
nodes = (
(738,348,o),
(665,375,o),
(614,424,cs),
(563,472,o),
(535,542,o),
(535,629,cs),
(535,745,o),
(573,851,o),
(640,928,cs),
(707,1004,o),
(803,1052,o),
(916,1052,cs),
(1007,1052,o),
(1080,1025,o),
(1131,977,cs),
(1182,929,o),
(1211,859,o),
(1211,771,cs),
(1211,714,o),
(1202,659,o),
(1183,608,cs),
(1164,557,o),
(1138,512,o),
(1105,474,cs),
(1038,397,o),
(942,348,o),
(829,348,cs)
);
}
);
width = 1648;
},
{
layerId = "87D444F7-2C21-4B59-A154-9C48869C513F";
shapes = (
{
closed = 1;
nodes = (
(871,-30,o),
(945,-20,o),
(1016,1,cs),
(1158,41,o),
(1283,114,o),
(1387,217,cs),
(1438,268,o),
(1483,325,o),
(1520,387,cs),
(1594,510,o),
(1636,653,o),
(1636,804,cs),
(1636,981,o),
(1571,1138,o),
(1455,1250,cs),
(1339,1362,o),
(1173,1430,o),
(972,1430,cs),
(896,1430,o),
(823,1420,o),
(752,1400,cs),
(610,1360,o),
(485,1286,o),
(382,1184,cs),
(331,1133,o),
(287,1076,o),
(250,1014,cs),
(176,889,o),
(133,744,o),
(133,591,cs),
(133,414,o),
(199,258,o),
(315,147,cs),
(430,36,o),
(595,-30,o),
(795,-30,cs)
);
},
{
closed = 1;
nodes = (
(700,215,o),
(596,255,o),
(524,324,cs),
(451,393,o),
(408,493,o),
(408,614,cs),
(408,770,o),
(465,912,o),
(561,1016,cs),
(656,1120,o),
(790,1185,o),
(946,1185,cs),
(1070,1185,o),
(1175,1146,o),
(1248,1077,cs),
(1320,1008,o),
(1362,909,o),
(1362,786,cs),
(1362,709,o),
(1349,636,o),
(1322,567,cs),
(1295,498,o),
(1257,437,o),
(1210,385,cs),
(1114,281,o),
(980,215,o),
(824,215,cs)
);
}
);
width = 1662;
},
{
layerId = "053D553B-8824-4E8E-8E3D-8C773BB81ED6";
shapes = (
{
closed = 1;
nodes = (
(879,-30,o),
(951,-20,o),
(1021,1,cs),
(1161,41,o),
(1285,116,o),
(1388,219,cs),
(1439,270,o),
(1483,327,o),
(1520,389,cs),
(1593,512,o),
(1636,655,o),
(1636,804,cs),
(1636,981,o),
(1572,1138,o),
(1458,1250,cs),
(1344,1362,o),
(1183,1430,o),
(988,1430,cs),
(913,1430,o),
(841,1420,o),
(771,1400,cs),
(630,1359,o),
(507,1284,o),
(405,1181,cs),
(354,1130,o),
(310,1073,o),
(274,1011,cs),
(201,887,o),
(158,743,o),
(158,591,cs),
(158,415,o),
(223,259,o),
(336,148,cs),
(449,37,o),
(611,-30,o),
(804,-30,cs)
);
},
{
closed = 1;
nodes = (
(663,82,o),
(528,133,o),
(433,224,cs),
(337,315,o),
(281,444,o),
(281,599,cs),
(281,794,o),
(356,973,o),
(481,1105,cs),
(605,1236,o),
(780,1318,o),
(977,1318,cs),
(1136,1318,o),
(1269,1268,o),
(1364,1178,cs),
(1459,1088,o),
(1514,958,o),
(1514,801,cs),
(1515,704,o),
(1497,612,o),
(1462,525,cs),
(1427,438,o),
(1378,361,o),
(1315,296,cs),
(1190,165,o),
(1016,82,o),
(819,82,cs)
);
}
);
width = 1676;
}
);
leftKerningGroup = C2;
rightKerningGroup = D;
unicode = 79;
},
{
glyphname = P;
layers = (
{
layerId = "E5A1D094-7979-46BB-98CB-6CA2CEC0290A";
shapes = (
{
closed = 1;
nodes = (
(416,0,l),
(532,432,l),
(805,432,ls),
(981,432,o),
(1135,487,o),
(1247,583,cs),
(1359,679,o),
(1424,816,o),
(1424,988,cs),
(1424,1113,o),
(1375,1217,o),
(1283,1289,cs),
(1191,1361,o),
(1062,1400,o),
(895,1400,cs),
(387,1400,l),
(12,0,l)
);
},
{
closed = 1;
nodes = (
(699,1056,l),
(824,1056,ls),
(880,1056,o),
(927,1051,o),
(960,1034,cs),
(993,1017,o),
(1012,986,o),
(1012,935,cs),
(1012,886,o),
(995,845,o),
(966,814,cs),
(937,783,o),
(894,766,o),
(834,766,cs),
(620,766,l)
);
}
);
width = 1352;
},
{
layerId = "87D444F7-2C21-4B59-A154-9C48869C513F";
shapes = (
{
closed = 1;
nodes = (
(299,0,l),
(438,518,l),
(781,518,ls),
(942,518,o),
(1085,565,o),
(1186,653,cs),
(1287,741,o),
(1348,865,o),
(1348,1022,cs),
(1348,1139,o),
(1302,1233,o),
(1218,1298,cs),
(1133,1363,o),
(1012,1400,o),
(856,1400,cs),
(414,1400,l),
(39,0,l)
);
},
{
closed = 1;
nodes = (
(614,1174,l),
(820,1174,ls),
(904,1174,o),
(970,1160,o),
(1015,1129,cs),
(1059,1098,o),
(1083,1051,o),
(1083,987,cs),
(1083,914,o),
(1056,852,o),
(1009,808,cs),
(961,764,o),
(893,739,o),
(809,739,cs),
(496,739,l)
);
}
);
width = 1286;
},
{
layerId = "053D553B-8824-4E8E-8E3D-8C773BB81ED6";
shapes = (
{
closed = 1;
nodes = (
(183,0,l),
(344,604,l),
(758,604,ls),
(906,604,o),
(1034,647,o),
(1126,724,cs),
(1218,801,o),
(1273,916,o),
(1273,1057,cs),
(1273,1162,o),
(1233,1248,o),
(1154,1308,cs),
(1075,1368,o),
(962,1400,o),
(817,1400,cs),
(442,1400,l),
(67,0,l)
);
},
{
closed = 1;
nodes = (
(529,1292,l),
(817,1292,ls),
(929,1292,o),
(1013,1269,o),
(1070,1225,cs),
(1126,1181,o),
(1155,1116,o),
(1155,1039,cs),
(1155,942,o),
(1116,862,o),
(1052,803,cs),
(987,744,o),
(896,712,o),
(784,712,cs),
(372,712,l)
);
}
);
width = 1220;
}
);
leftKerningGroup = B2;
rightKerningGroup = P;
unicode = 80;
},
{
glyphname = Q;
layers = (
{
layerId = "E5A1D094-7979-46BB-98CB-6CA2CEC0290A";
shapes = (
{
closed = 1;
nodes = (
(878,90,l),
(1263,-231,l),
(1530,107,l),
(1161,406,l)
);
},
{
closed = 1;
nodes = (
(864,-30,o),
(938,-20,o),
(1009,-1,cs),
(1152,39,o),
(1279,113,o),
(1383,214,cs),
(1435,265,o),
(1480,321,o),
(1518,383,cs),
(1593,506,o),
(1636,651,o),
(1636,804,cs),
(1636,981,o),
(1571,1138,o),
(1453,1250,cs),
(1335,1362,o),
(1164,1430,o),
(956,1430,cs),
(879,1430,o),
(805,1420,o),
(734,1401,cs),
(590,1361,o),
(463,1287,o),
(360,1186,cs),
(308,1135,o),
(263,1079,o),
(226,1017,cs),
(151,892,o),
(108,747,o),
(108,591,cs),
(108,414,o),
(175,258,o),
(293,147,cs),
(411,36,o),
(580,-30,o),
(787,-30,cs)
);
},
{
closed = 1;
nodes = (
(738,348,o),
(665,375,o),
(614,424,cs),
(563,472,o),
(535,542,o),
(535,629,cs),
(535,745,o),
(573,851,o),
(640,928,cs),
(707,1004,o),
(803,1052,o),
(916,1052,cs),
(1007,1052,o),
(1080,1025,o),
(1131,977,cs),
(1182,929,o),
(1211,859,o),
(1211,771,cs),
(1211,714,o),
(1202,659,o),
(1183,608,cs),
(1164,557,o),
(1138,512,o),
(1105,474,cs),
(1038,397,o),
(942,348,o),
(829,348,cs)
);
}
);
width = 1648;
},
{
layerId = "87D444F7-2C21-4B59-A154-9C48869C513F";
shapes = (
{
closed = 1;
nodes = (
(933,62,l),
(1328,-249,l),
(1501,-30,l),
(1123,259,l)
);
},
{
closed = 1;
nodes = (
(872,-30,o),
(945,-20,o),
(1015,0,cs),
(1157,40,o),
(1282,115,o),
(1386,217,cs),
(1437,268,o),
(1482,324,o),
(1519,386,cs),
(1593,509,o),
(1636,653,o),
(1636,804,cs),
(1636,981,o),
(1572,1138,o),
(1456,1250,cs),
(1340,1362,o),
(1174,1430,o),
(972,1430,cs),
(896,1430,o),
(823,1420,o),
(753,1401,cs),
(610,1360,o),
(485,1286,o),
(383,1184,cs),
(331,1133,o),
(287,1076,o),
(250,1014,cs),
(176,890,o),
(133,745,o),
(133,591,cs),
(133,415,o),
(199,259,o),
(315,148,cs),
(430,37,o),
(596,-30,o),
(796,-30,cs)
);
},
{
closed = 1;
nodes = (
(701,215,o),
(597,254,o),
(524,324,cs),
(450,394,o),
(408,493,o),
(408,614,cs),
(408,770,o),
(465,912,o),
(561,1017,cs),
(656,1120,o),
(792,1185,o),
(947,1185,cs),
(1072,1185,o),
(1175,1147,o),
(1248,1078,cs),
(1321,1009,o),
(1363,909,o),
(1363,786,cs),
(1363,709,o),
(1350,636,o),
(1323,567,cs),
(1296,498,o),
(1258,437,o),
(1210,385,cs),
(1114,281,o),
(979,215,o),
(824,215,cs)
);
}
);
width = 1662;
},
{
layerId = "053D553B-8824-4E8E-8E3D-8C773BB81ED6";
shapes = (
{
closed = 1;
nodes = (
(988,34,l),
(1373,-251,l),
(1453,-151,l),
(1085,112,l)
);
},
{
closed = 1;
nodes = (
(879,-30,o),
(951,-20,o),
(1021,1,cs),
(1161,41,o),
(1285,116,o),
(1388,219,cs),
(1439,270,o),
(1483,327,o),
(1520,389,cs),
(1593,512,o),
(1636,655,o),
(1636,804,cs),
(1636,981,o),
(1572,1138,o),
(1458,1250,cs),
(1344,1362,o),
(1183,1430,o),
(988,1430,cs),
(913,1430,o),
(841,1420,o),
(771,1400,cs),
(630,1359,o),
(507,1284,o),
(405,1181,cs),
(354,1130,o),
(310,1073,o),
(274,1011,cs),
(201,887,o),
(158,743,o),
(158,591,cs),
(158,415,o),
(223,259,o),
(336,148,cs),
(449,37,o),
(611,-30,o),
(804,-30,cs)
);
},
{
closed = 1;
nodes = (
(663,82,o),
(528,133,o),
(433,224,cs),
(337,315,o),
(281,444,o),
(281,599,cs),
(281,794,o),
(356,973,o),
(481,1105,cs),
(605,1236,o),
(780,1318,o),
(977,1318,cs),
(1136,1318,o),
(1269,1268,o),
(1364,1178,cs),
(1459,1088,o),
(1514,958,o),
(1514,801,cs),
(1515,704,o),
(1497,612,o),
(1462,525,cs),
(1427,438,o),
(1378,361,o),
(1315,296,cs),
(1190,165,o),
(1016,82,o),
(819,82,cs)
);
}
);
width = 1676;
}
);
leftKerningGroup = C2;
unicode = 81;
},
{
glyphname = R;
layers = (
{
layerId = "E5A1D094-7979-46BB-98CB-6CA2CEC0290A";
shapes = (
{
closed = 1;
nodes = (
(421,0,l),
(550,482,l),
(628,482,l),
(781,0,l),
(1239,0,l),
(1033,549,l),
(1150,581,o),
(1246,644,o),
(1315,727,cs),
(1384,810,o),
(1423,910,o),
(1423,1022,cs),
(1423,1139,o),
(1376,1232,o),
(1288,1299,cs),
(1200,1366,o),
(1072,1400,o),
(904,1400,cs),
(392,1400,l),
(17,0,l)
);
},
{
closed = 1;
nodes = (
(710,1072,l),
(819,1072,ls),
(879,1072,o),
(924,1066,o),
(956,1049,cs),
(988,1032,o),
(1005,1003,o),
(1005,960,cs),
(1005,911,o),
(989,870,o),
(958,843,cs),
(927,816,o),
(882,800,o),
(833,800,cs),
(636,800,l)
);
}
);
width = 1410;
},
{
layerId = "87D444F7-2C21-4B59-A154-9C48869C513F";
shapes = (
{
closed = 1;
nodes = (
(304,0,l),
(451,548,l),
(619,548,l),
(848,0,l),
(1147,0,l),
(890,580,l),
(1022,600,o),
(1134,654,o),
(1217,734,cs),
(1300,814,o),
(1347,918,o),
(1347,1043,cs),
(1347,1151,o),
(1307,1239,o),
(1227,1303,cs),
(1147,1367,o),
(1034,1400,o),
(882,1400,cs),
(419,1400,l),
(44,0,l)
);
},
{
closed = 1;
nodes = (
(622,1182,l),
(827,1182,ls),
(912,1182,o),
(975,1167,o),
(1018,1138,cs),
(1061,1109,o),
(1080,1064,o),
(1080,1007,cs),
(1080,931,o),
(1052,871,o),
(1004,828,cs),
(956,785,o),
(888,761,o),
(808,761,cs),
(508,761,l)
);
}
);
width = 1347;
},
{
layerId = "053D553B-8824-4E8E-8E3D-8C773BB81ED6";
shapes = (
{
closed = 1;
nodes = (
(188,0,l),
(353,614,l),
(611,614,l),
(915,0,l),
(1055,0,l),
(748,611,l),
(893,619,o),
(1023,665,o),
(1119,741,cs),
(1215,817,o),
(1271,927,o),
(1271,1064,cs),
(1271,1164,o),
(1235,1248,o),
(1167,1308,cs),
(1098,1368,o),
(997,1400,o),
(860,1400,cs),
(447,1400,l),
(72,0,l)
);
},
{
closed = 1;
nodes = (
(535,1292,l),
(836,1292,ls),
(948,1292,o),
(1027,1268,o),
(1079,1227,cs),
(1131,1186,o),
(1155,1127,o),
(1155,1055,cs),
(1155,955,o),
(1116,870,o),
(1051,813,cs),
(986,756,o),
(892,722,o),
(784,722,cs),
(381,722,l)
);
}
);
width = 1284;
}
);
leftKerningGroup = B2;
rightKerningGroup = R;
unicode = 82;
},
{
glyphname = S;
layers = (
{
layerId = "E5A1D094-7979-46BB-98CB-6CA2CEC0290A";
shapes = (
{
closed = 1;
nodes = (
(765,-30,o),
(917,19,o),
(1030,110,cs),
(1143,201,o),
(1217,326,o),
(1217,483,cs),
(1217,643,o),
(1109,754,o),
(885,846,cs),
(784,886,ls),
(728,909,o),
(691,927,o),
(668,944,c),
(644,960,o),
(636,977,o),
(636,997,cs),
(636,1025,o),
(652,1051,o),
(683,1068,cs),
(714,1084,o),
(754,1093,o),
(805,1093,cs),
(873,1093,o),
(938,1078,o),
(998,1051,cs),
(1058,1023,o),
(1105,988,o),
(1136,944,c),
(1393,1215,l),
(1340,1280,o),
(1262,1333,o),
(1166,1372,cs),
(1069,1411,o),
(953,1432,o),
(832,1432,cs),
(679,1432,o),
(531,1380,o),
(419,1292,cs),
(307,1203,o),
(237,1075,o),
(237,922,cs),
(237,846,o),
(262,778,o),
(313,714,cs),
(364,650,o),
(445,598,o),
(558,555,cs),
(651,519,l),
(708,499,o),
(747,477,o),
(772,458,c),
(796,438,o),
(807,417,o),
(807,394,cs),
(807,365,o),
(789,343,o),
(761,328,cs),
(732,313,o),
(690,306,o),
(641,306,cs),
(569,306,o),
(489,324,o),
(416,355,cs),
(343,386,o),
(280,428,o),
(241,476,c),
(-8,198,l),
(56,126,o),
(148,71,o),
(253,32,cs),
(357,-8,o),
(477,-30,o),
(598,-30,cs)
);
}
);
width = 1298;
},
{
layerId = "87D444F7-2C21-4B59-A154-9C48869C513F";
shapes = (
{
closed = 1;
nodes = (
(736,-30,o),
(874,14,o),
(978,98,cs),
(1082,182,o),
(1146,299,o),
(1146,448,cs),
(1146,597,o),
(1050,699,o),
(851,782,c),
(722,833,l),
(649,864,o),
(599,891,o),
(568,919,cs),
(536,947,o),
(524,976,o),
(524,1011,cs),
(524,1071,o),
(552,1121,o),
(600,1156,cs),
(648,1191,o),
(715,1210,o),
(792,1210,cs),
(864,1210,o),
(931,1196,o),
(995,1171,cs),
(1059,1146,o),
(1111,1111,o),
(1148,1067,c),
(1319,1245,l),
(1270,1301,o),
(1200,1347,o),
(1116,1380,cs),
(1031,1412,o),
(931,1431,o),
(823,1431,cs),
(675,1431,o),
(539,1386,o),
(436,1303,cs),
(333,1220,o),
(269,1104,o),
(269,959,cs),
(269,887,o),
(293,824,o),
(340,768,cs),
(387,712,o),
(461,664,o),
(564,623,cs),
(683,576,ls),
(759,547,o),
(808,518,o),
(840,487,cs),
(872,456,o),
(886,424,o),
(886,388,cs),
(886,324,o),
(856,276,o),
(808,243,cs),
(759,210,o),
(690,192,o),
(610,192,cs),
(530,192,o),
(450,208,o),
(378,236,cs),
(305,263,o),
(242,303,o),
(197,350,c),
(29,167,l),
(89,106,o),
(172,58,o),
(268,23,cs),
(364,-12,o),
(471,-30,o),
(580,-30,cs)
);
}
);
width = 1266;
},
{
layerId = "053D553B-8824-4E8E-8E3D-8C773BB81ED6";
shapes = (
{
closed = 1;
nodes = (
(708,-30,o),
(834,11,o),
(926,87,cs),
(1018,163,o),
(1076,272,o),
(1076,413,cs),
(1076,553,o),
(990,646,o),
(818,719,c),
(660,781,l),
(568,820,o),
(507,856,o),
(468,896,c),
(428,935,o),
(413,977,o),
(413,1026,cs),
(413,1118,o),
(451,1193,o),
(518,1246,cs),
(585,1298,o),
(675,1328,o),
(780,1328,cs),
(856,1328,o),
(925,1316,o),
(993,1292,cs),
(1061,1268,o),
(1116,1235,o),
(1161,1190,c),
(1246,1276,l),
(1199,1323,o),
(1139,1360,o),
(1067,1388,cs),
(994,1415,o),
(910,1431,o),
(814,1431,cs),
(673,1431,o),
(545,1390,o),
(452,1314,cs),
(359,1238,o),
(301,1132,o),
(301,996,cs),
(301,928,o),
(323,871,o),
(368,822,cs),
(412,773,o),
(479,731,o),
(571,692,cs),
(715,633,ls),
(807,596,o),
(869,556,o),
(909,516,cs),
(948,476,o),
(966,431,o),
(966,382,cs),
(966,286,o),
(923,210,o),
(855,158,cs),
(787,106,o),
(692,78,o),
(580,78,cs),
(492,78,o),
(412,92,o),
(340,117,cs),
(267,141,o),
(206,180,o),
(154,224,c),
(67,136,l),
(120,85,o),
(197,43,o),
(284,15,cs),
(371,-14,o),
(466,-30,o),
(563,-30,cs)
);
}
);
width = 1234;
}
);
leftKerningGroup = S2;
rightKerningGroup = S;
unicode = 83;
},
{
glyphname = T;
layers = (
{
layerId = "E5A1D094-7979-46BB-98CB-6CA2CEC0290A";
shapes = (
{
closed = 1;
nodes = (
(657,0,l),
(934,1032,l),
(1294,1032,l),
(1392,1400,l),
(266,1400,l),
(168,1032,l),
(528,1032,l),
(251,0,l)
);
}
);
width = 1186;
},
{
layerId = "87D444F7-2C21-4B59-A154-9C48869C513F";
shapes = (
{
closed = 1;
nodes = (
(564,0,l),
(876,1162,l),
(1263,1162,l),
(1326,1400,l),
(291,1400,l),
(228,1162,l),
(615,1162,l),
(303,0,l)
);
}
);
width = 1135;
},
{
layerId = "053D553B-8824-4E8E-8E3D-8C773BB81ED6";
shapes = (
{
closed = 1;
nodes = (
(471,0,l),
(819,1292,l),
(1233,1292,l),
(1260,1400,l),
(316,1400,l),
(289,1292,l),
(703,1292,l),
(355,0,l)
);
}
);
width = 1084;
}
);
leftKerningGroup = T2;
rightKerningGroup = T;
unicode = 84;
},
{
glyphname = U;
layers = (
{
layerId = "E5A1D094-7979-46BB-98CB-6CA2CEC0290A";
shapes = (
{
closed = 1;
nodes = (
(882,-30,o),
(1035,28,o),
(1156,136,cs),
(1277,244,o),
(1362,399,o),
(1414,596,cs),
(1630,1400,l),
(1224,1400,l),
(1001,574,ls),
(978,494,o),
(944,437,o),
(899,401,cs),
(854,365,o),
(800,348,o),
(736,348,cs),
(656,348,o),
(605,367,o),
(577,406,cs),
(549,445,o),
(546,498,o),
(567,574,cs),
(790,1400,l),
(386,1400,l),
(170,596,ls),
(117,396,o),
(148,242,o),
(243,134,cs),
(338,26,o),
(493,-30,o),
(697,-30,cs)
);
}
);
width = 1542;
},
{
layerId = "87D444F7-2C21-4B59-A154-9C48869C513F";
shapes = (
{
closed = 1;
nodes = (
(844,-30,o),
(987,27,o),
(1100,130,cs),
(1213,233,o),
(1292,377,o),
(1339,556,cs),
(1566,1400,l),
(1305,1400,l),
(1077,553,ls),
(1045,433,o),
(994,351,o),
(929,295,cs),
(864,239,o),
(784,215,o),
(695,215,cs),
(582,215,o),
(506,246,o),
(463,305,cs),
(420,364,o),
(415,445,o),
(444,553,cs),
(672,1400,l),
(412,1400,l),
(185,556,ls),
(137,375,o),
(164,229,o),
(251,128,cs),
(338,27,o),
(480,-30,o),
(669,-30,cs)
);
}
);
width = 1493;
},
{
layerId = "053D553B-8824-4E8E-8E3D-8C773BB81ED6";
shapes = (
{
closed = 1;
nodes = (
(803,-30,o),
(939,27,o),
(1044,124,cs),
(1149,220,o),
(1223,356,o),
(1264,516,cs),
(1503,1400,l),
(1387,1400,l),
(1154,532,ls),
(1111,375,o),
(1044,263,o),
(959,190,cs),
(874,117,o),
(771,82,o),
(654,82,cs),
(505,82,o),
(404,125,o),
(348,204,cs),
(292,283,o),
(283,392,o),
(322,532,cs),
(555,1400,l),
(439,1400,l),
(200,516,ls),
(157,355,o),
(181,219,o),
(260,123,cs),
(339,27,o),
(466,-30,o),
(642,-30,cs)
);
}
);
width = 1444;
}
);
leftKerningGroup = U;
rightKerningGroup = J;
unicode = 85;
},
{
glyphname = V;
layers = (
{
layerId = "E5A1D094-7979-46BB-98CB-6CA2CEC0290A";
shapes = (
{
closed = 1;
nodes = (
(806,0,l),
(1697,1400,l),
(1221,1400,l),
(703,522,l),
(662,1400,l),
(217,1400,l),
(338,0,l)
);
}
);
width = 1440;
},
{
layerId = "87D444F7-2C21-4B59-A154-9C48869C513F";
shapes = (
{
closed = 1;
nodes = (
(680,0,l),
(1585,1400,l),
(1281,1400,l),
(626,349,l),
(533,1400,l),
(248,1400,l),
(396,0,l)
);
}
);
width = 1348;
},
{
layerId = "053D553B-8824-4E8E-8E3D-8C773BB81ED6";
shapes = (
{
closed = 1;
nodes = (
(554,0,l),
(1473,1400,l),
(1341,1400,l),
(550,176,l),
(404,1400,l),
(280,1400,l),
(454,0,l)
);
}
);
width = 1256;
}
);
leftKerningGroup = V2;
rightKerningGroup = V;
unicode = 86;
},
{
glyphname = W;
layers = (
{
layerId = "E5A1D094-7979-46BB-98CB-6CA2CEC0290A";
shapes = (
{
closed = 1;
nodes = (
(691,0,l),
(1130,793,l),
(1133,0,l),
(1519,0,l),
(2320,1400,l),
(1894,1400,l),
(1499,641,l),
(1492,1400,l),
(1093,1400,l),
(657,631,l),
(668,1400,l),
(260,1400,l),
(309,0,l)
);
}
);
width = 2104;
},
{
layerId = "87D444F7-2C21-4B59-A154-9C48869C513F";
shapes = (
{
closed = 1;
nodes = (
(596,0,l),
(1167,1003,l),
(1188,0,l),
(1456,0,l),
(2252,1400,l),
(1974,1400,l),
(1423,386,l),
(1404,1400,l),
(1136,1400,l),
(558,377,l),
(552,1400,l),
(286,1400,l),
(331,0,l)
);
}
);
width = 2052;
},
{
layerId = "053D553B-8824-4E8E-8E3D-8C773BB81ED6";
shapes = (
{
closed = 1;
nodes = (
(502,0,l),
(1204,1213,l),
(1243,0,l),
(1393,0,l),
(2185,1400,l),
(2055,1400,l),
(1348,131,l),
(1317,1400,l),
(1179,1400,l),
(460,123,l),
(436,1400,l),
(312,1400,l),
(354,0,l)
);
}
);
width = 2000;
}
);
leftKerningGroup = V2;
rightKerningGroup = V;
unicode = 87;
},
{
glyphname = X;
layers = (
{
layerId = "E5A1D094-7979-46BB-98CB-6CA2CEC0290A";
shapes = (
{
closed = 1;
nodes = (
(381,0,l),
(690,402,l),
(804,0,l),
(1273,0,l),
(1047,679,l),
(1652,1400,l),
(1144,1400,l),
(847,1023,l),
(738,1400,l),
(270,1400,l),
(492,736,l),
(-129,0,l)
);
}
);
width = 1424;
},
{
layerId = "87D444F7-2C21-4B59-A154-9C48869C513F";
shapes = (
{
closed = 1;
nodes = (
(235,0,l),
(685,521,l),
(879,0,l),
(1179,0,l),
(913,695,l),
(1547,1400,l),
(1225,1400,l),
(783,913,l),
(610,1400,l),
(312,1400,l),
(555,734,l),
(-90,0,l)
);
}
);
width = 1358;
},
{
layerId = "053D553B-8824-4E8E-8E3D-8C773BB81ED6";
shapes = (
{
closed = 1;
nodes = (
(89,0,l),
(681,640,l),
(955,0,l),
(1086,0,l),
(779,711,l),
(1443,1400,l),
(1306,1400,l),
(719,803,l),
(483,1400,l),
(354,1400,l),
(619,733,l),
(-51,0,l)
);
}
);
width = 1292;
}
);
leftKerningGroup = X2;
rightKerningGroup = X;
unicode = 88;
},
{
glyphname = Y;
layers = (
{
layerId = "E5A1D094-7979-46BB-98CB-6CA2CEC0290A";
shapes = (
{
closed = 1;
nodes = (
(725,0,l),
(876,564,l),
(1594,1400,l),
(1126,1400,l),
(767,967,l),
(648,1400,l),
(220,1400,l),
(470,572,l),
(319,0,l)
);
}
);
width = 1342;
},
{
layerId = "87D444F7-2C21-4B59-A154-9C48869C513F";
shapes = (
{
closed = 1;
nodes = (
(622,0,l),
(781,594,l),
(1494,1400,l),
(1188,1400,l),
(711,854,l),
(531,1400,l),
(251,1400,l),
(520,598,l),
(361,0,l)
);
}
);
width = 1261;
},
{
layerId = "053D553B-8824-4E8E-8E3D-8C773BB81ED6";
shapes = (
{
closed = 1;
nodes = (
(520,0,l),
(686,625,l),
(1394,1400,l),
(1250,1400,l),
(656,742,l),
(415,1400,l),
(282,1400,l),
(570,624,l),
(404,0,l)
);
}
);
width = 1180;
}
);
leftKerningGroup = Y2;
rightKerningGroup = Y;
unicode = 89;
},
{
glyphname = Z;
layers = (
{
layerId = "E5A1D094-7979-46BB-98CB-6CA2CEC0290A";
shapes = (
{
closed = 1;
nodes = (
(985,0,l),
(1085,368,l),
(544,368,l),
(1267,1061,l),
(1356,1400,l),
(330,1400,l),
(232,1032,l),
(745,1032,l),
(21,339,l),
(-69,0,l)
);
}
);
width = 1190;
},
{
layerId = "87D444F7-2C21-4B59-A154-9C48869C513F";
shapes = (
{
closed = 1;
nodes = (
(959,0,l),
(1023,238,l),
(347,238,l),
(1271,1179,l),
(1328,1400,l),
(352,1400,l),
(289,1162,l),
(937,1162,l),
(12,221,l),
(-46,0,l)
);
}
);
width = 1173;
},
{
layerId = "053D553B-8824-4E8E-8E3D-8C773BB81ED6";
shapes = (
{
closed = 1;
nodes = (
(933,0,l),
(962,108,l),
(150,108,l),
(1275,1297,l),
(1300,1400,l),
(374,1400,l),
(347,1292,l),
(1130,1292,l),
(4,103,l),
(-23,0,l)
);
}
);
width = 1156;
}
);
leftKerningGroup = Z2;
rightKerningGroup = Z;
unicode = 90;
},
{
glyphname = bracketleft;
layers = (
{
layerId = "E5A1D094-7979-46BB-98CB-6CA2CEC0290A";
shapes = (
{
closed = 1;
nodes = (
(454,-220,l),
(527,46,l),
(327,46,l),
(671,1334,l),
(871,1334,l),
(945,1600,l),
(429,1600,l),
(-62,-220,l)
);
}
);
width = 732;
},
{
layerId = "87D444F7-2C21-4B59-A154-9C48869C513F";
shapes = (
{
closed = 1;
nodes = (
(393,-220,l),
(442,-39,l),
(238,-39,l),
(630,1419,l),
(834,1419,l),
(884,1600,l),
(472,1600,l),
(-19,-220,l)
);
}
);
width = 699;
},
{
layerId = "053D553B-8824-4E8E-8E3D-8C773BB81ED6";
shapes = (
{
closed = 1;
nodes = (
(332,-220,l),
(357,-124,l),
(149,-124,l),
(589,1504,l),
(797,1504,l),
(823,1600,l),
(515,1600,l),
(24,-220,l)
);
}
);
width = 666;
}
);
leftKerningGroup = bar2;
rightKerningGroup = parenleft;
unicode = 91;
},
{
glyphname = backslash;
layers = (
{
layerId = "E5A1D094-7979-46BB-98CB-6CA2CEC0290A";
shapes = (
{
closed = 1;
nodes = (
(826,-177,l),
(578,1610,l),
(218,1563,l),
(466,-230,l)
);
}
);
width = 948;
},
{
layerId = "87D444F7-2C21-4B59-A154-9C48869C513F";
shapes = (
{
closed = 1;
nodes = (
(762,-195,l),
(500,1610,l),
(265,1578,l),
(527,-230,l)
);
}
);
width = 920;
},
{
layerId = "053D553B-8824-4E8E-8E3D-8C773BB81ED6";
shapes = (
{
closed = 1;
nodes = (
(698,-213,l),
(423,1610,l),
(313,1594,l),
(588,-230,l)
);
}
);
width = 892;
}
);
unicode = 92;
},
{
glyphname = bracketright;
layers = (
{
layerId = "E5A1D094-7979-46BB-98CB-6CA2CEC0290A";
shapes = (
{
closed = 1;
nodes = (
(887,1600,l),
(371,1600,l),
(299,1334,l),
(499,1334,l),
(151,46,l),
(-49,46,l),
(-118,-220,l),
(398,-220,l)
);
}
);
width = 732;
},
{
layerId = "87D444F7-2C21-4B59-A154-9C48869C513F";
shapes = (
{
closed = 1;
nodes = (
(821,1600,l),
(409,1600,l),
(359,1419,l),
(563,1419,l),
(171,-39,l),
(-33,-39,l),
(-80,-220,l),
(332,-220,l)
);
}
);
width = 699;
},
{
layerId = "053D553B-8824-4E8E-8E3D-8C773BB81ED6";
shapes = (
{
closed = 1;
nodes = (
(756,1600,l),
(448,1600,l),
(419,1504,l),
(627,1504,l),
(192,-124,l),
(-16,-124,l),
(-41,-220,l),
(267,-220,l)
);
}
);
width = 666;
}
);
leftKerningGroup = parenright;
rightKerningGroup = bar;
unicode = 93;
},
{
glyphname = asciicircum;
layers = (
{
layerId = "E5A1D094-7979-46BB-98CB-6CA2CEC0290A";
shapes = (
{
closed = 1;
nodes = (
(558,782,l),
(835,1127,l),
(918,782,l),
(1237,782,l),
(1073,1400,l),
(712,1400,l),
(201,782,l)
);
}
);
width = 1296;
},
{
layerId = "87D444F7-2C21-4B59-A154-9C48869C513F";
shapes = (
{
closed = 1;
nodes = (
(504,816,l),
(854,1217,l),
(987,816,l),
(1207,816,l),
(1014,1400,l),
(771,1400,l),
(260,816,l)
);
}
);
width = 1296;
},
{
layerId = "053D553B-8824-4E8E-8E3D-8C773BB81ED6";
shapes = (
{
closed = 1;
nodes = (
(450,850,l),
(873,1308,l),
(1056,850,l),
(1177,850,l),
(955,1400,l),
(830,1400,l),
(319,850,l)
);
}
);
width = 1296;
}
);
leftKerningGroup = plus2;
rightKerningGroup = plus;
unicode = 94;
},
{
glyphname = underscore;
layers = (
{
layerId = "E5A1D094-7979-46BB-98CB-6CA2CEC0290A";
shapes = (
{
closed = 1;
nodes = (
(869,-408,l),
(956,-92,l),
(-144,-92,l),
(-231,-408,l)
);
}
);
width = 1140;
},
{
layerId = "87D444F7-2C21-4B59-A154-9C48869C513F";
shapes = (
{
closed = 1;
nodes = (
(847,-345,l),
(903,-141,l),
(-147,-141,l),
(-203,-345,l)
);
}
);
width = 1100;
},
{
layerId = "053D553B-8824-4E8E-8E3D-8C773BB81ED6";
shapes = (
{
closed = 1;
nodes = (
(825,-282,l),
(851,-190,l),
(-149,-190,l),
(-175,-282,l)
);
}
);
width = 1060;
}
);
unicode = 95;
},
{
glyphname = a;
layers = (
{
layerId = "E5A1D094-7979-46BB-98CB-6CA2CEC0290A";
shapes = (
{
closed = 1;
nodes = (
(389,-26,o),
(454,-14,o),
(509,9,cs),
(564,32,o),
(608,63,o),
(640,102,c),
(614,0,l),
(958,0,l),
(1103,548,ls),
(1143,701,o),
(1126,834,o),
(1049,930,cs),
(972,1026,o),
(836,1080,o),
(639,1080,cs),
(468,1080,o),
(329,1049,o),
(212,977,c),
(258,706,l),
(290,730,o),
(334,747,o),
(383,762,cs),
(432,777,o),
(485,784,o),
(534,784,cs),
(614,784,o),
(675,771,o),
(710,744,cs),
(745,717,o),
(755,675,o),
(740,615,c),
(681,402,ls),
(668,355,o),
(643,318,o),
(608,291,cs),
(573,264,o),
(528,250,o),
(475,250,cs),
(442,250,o),
(413,258,o),
(394,270,cs),
(375,282,o),
(365,300,o),
(365,320,cs),
(365,336,o),
(370,350,o),
(379,362,cs),
(398,385,o),
(431,404,o),
(476,417,cs),
(499,424,o),
(523,427,o),
(550,430,cs),
(603,435,o),
(665,435,o),
(733,426,c),
(797,648,l),
(713,655,o),
(636,659,o),
(564,656,cs),
(419,651,o),
(301,628,o),
(208,585,cs),
(161,564,o),
(122,538,o),
(91,509,cs),
(27,449,o),
(-7,374,o),
(-7,281,cs),
(-7,185,o),
(24,110,o),
(81,57,cs),
(137,4,o),
(219,-26,o),
(324,-26,cs)
);
}
);
width = 1204;
},
{
layerId = "87D444F7-2C21-4B59-A154-9C48869C513F";
shapes = (
{
closed = 1;
nodes = (
(395,-28,o),
(460,-17,o),
(517,7,cs),
(574,30,o),
(625,66,o),
(662,114,c),
(633,0,l),
(861,0,l),
(1017,572,ls),
(1054,717,o),
(1036,833,o),
(968,914,cs),
(899,995,o),
(783,1040,o),
(623,1040,cs),
(475,1040,o),
(350,1008,o),
(238,936,c),
(268,749,l),
(308,777,o),
(356,798,o),
(408,814,cs),
(459,830,o),
(510,838,o),
(557,838,cs),
(637,838,o),
(704,821,o),
(744,785,cs),
(784,748,o),
(798,689,o),
(777,604,c),
(713,376,ls),
(697,316,o),
(660,265,o),
(609,226,cs),
(557,187,o),
(492,164,o),
(416,164,cs),
(369,164,o),
(329,176,o),
(301,197,cs),
(273,217,o),
(257,248,o),
(257,285,cs),
(257,314,o),
(265,339,o),
(280,359,cs),
(311,399,o),
(362,425,o),
(431,440,cs),
(466,447,o),
(501,450,o),
(540,453,cs),
(616,457,o),
(699,453,o),
(779,442,c),
(822,599,l),
(749,608,o),
(678,612,o),
(610,613,cs),
(473,614,o),
(354,598,o),
(254,562,cs),
(203,543,o),
(161,521,o),
(126,493,cs),
(54,436,o),
(14,360,o),
(14,256,cs),
(14,168,o),
(43,97,o),
(99,48,cs),
(155,-1,o),
(231,-28,o),
(331,-28,cs)
);
}
);
width = 1126;
},
{
layerId = "053D553B-8824-4E8E-8E3D-8C773BB81ED6";
shapes = (
{
closed = 1;
nodes = (
(400,-29,o),
(466,-19,o),
(527,6,cs),
(587,30,o),
(642,70,o),
(685,126,c),
(652,0,l),
(765,0,l),
(931,597,ls),
(966,730,o),
(946,831,o),
(886,899,cs),
(826,967,o),
(729,1000,o),
(608,1000,cs),
(483,1000,o),
(369,968,o),
(265,896,c),
(279,792,l),
(327,825,o),
(380,848,o),
(433,867,cs),
(486,886,o),
(537,893,o),
(581,893,cs),
(661,893,o),
(734,872,o),
(779,825,cs),
(824,778,o),
(842,706,o),
(815,594,c),
(746,350,ls),
(727,281,o),
(678,213,o),
(610,162,cs),
(542,110,o),
(453,78,o),
(357,78,cs),
(297,78,o),
(245,95,o),
(208,124,cs),
(171,153,o),
(149,197,o),
(149,250,cs),
(149,293,o),
(160,329,o),
(181,357,cs),
(224,413,o),
(294,447,o),
(386,463,c),
(433,470,o),
(479,475,o),
(530,476,cs),
(630,479,o),
(734,471,o),
(826,459,c),
(848,550,l),
(784,561,o),
(721,567,o),
(656,571,cs),
(527,579,o),
(407,571,o),
(300,540,cs),
(247,525,o),
(201,504,o),
(162,477,cs),
(83,422,o),
(35,345,o),
(35,232,cs),
(35,148,o),
(65,84,o),
(118,39,cs),
(170,-6,o),
(246,-29,o),
(339,-29,cs)
);
}
);
width = 1049;
}
);
leftKerningGroup = a2;
rightKerningGroup = a;
unicode = 97;
},
{
glyphname = b;
layers = (
{
layerId = "E5A1D094-7979-46BB-98CB-6CA2CEC0290A";
shapes = (
{
closed = 1;
nodes = (
(901,-30,o),
(1048,46,o),
(1153,165,cs),
(1258,284,o),
(1319,443,o),
(1319,616,cs),
(1319,749,o),
(1277,863,o),
(1197,943,cs),
(1117,1023,o),
(1003,1070,o),
(862,1070,cs),
(797,1070,o),
(742,1059,o),
(689,1035,cs),
(636,1011,o),
(587,976,o),
(531,924,c),
(601,808,l),
(769,1440,l),
(371,1440,l),
(-16,0,l),
(324,0,l),
(401,280,l),
(322,223,l),
(335,147,o),
(386,84,o),
(458,40,cs),
(530,-4,o),
(623,-30,o),
(724,-30,cs)
);
},
{
closed = 1;
nodes = (
(644,311,o),
(601,326,o),
(569,357,cs),
(537,388,o),
(519,430,o),
(519,483,cs),
(519,543,o),
(540,606,o),
(581,653,cs),
(621,700,o),
(678,730,o),
(750,730,cs),
(801,730,o),
(846,714,o),
(878,686,cs),
(909,658,o),
(927,617,o),
(927,566,cs),
(927,502,o),
(904,439,o),
(864,391,cs),
(824,342,o),
(766,311,o),
(697,311,cs)
);
}
);
width = 1364;
},
{
layerId = "87D444F7-2C21-4B59-A154-9C48869C513F";
shapes = (
{
closed = 1;
nodes = (
(839,-30,o),
(981,43,o),
(1085,158,cs),
(1189,273,o),
(1249,426,o),
(1249,591,cs),
(1249,716,o),
(1207,826,o),
(1131,905,cs),
(1054,984,o),
(943,1030,o),
(803,1030,cs),
(723,1030,o),
(659,1015,o),
(599,984,cs),
(539,953,o),
(486,912,o),
(433,856,c),
(473,771,l),
(652,1440,l),
(397,1440,l),
(10,0,l),
(236,0,l),
(305,253,l),
(254,230,l),
(275,154,o),
(326,91,o),
(398,44,cs),
(470,-3,o),
(564,-30,o),
(672,-30,cs)
);
},
{
closed = 1;
nodes = (
(576,196,o),
(513,219,o),
(466,263,cs),
(419,306,o),
(394,369,o),
(394,446,cs),
(394,539,o),
(426,629,o),
(486,697,cs),
(546,765,o),
(629,806,o),
(733,806,cs),
(810,806,o),
(876,784,o),
(921,741,cs),
(966,698,o),
(992,638,o),
(992,565,cs),
(992,469,o),
(960,377,o),
(900,309,cs),
(840,240,o),
(757,196,o),
(656,196,cs)
);
}
);
width = 1309;
},
{
layerId = "053D553B-8824-4E8E-8E3D-8C773BB81ED6";
shapes = (
{
closed = 1;
nodes = (
(777,-30,o),
(916,41,o),
(1017,152,cs),
(1118,263,o),
(1179,409,o),
(1179,566,cs),
(1179,686,o),
(1141,791,o),
(1065,867,cs),
(989,943,o),
(882,990,o),
(745,990,cs),
(652,990,o),
(578,968,o),
(510,932,cs),
(442,896,o),
(387,846,o),
(335,789,c),
(346,734,l),
(535,1440,l),
(423,1440,l),
(36,0,l),
(148,0,l),
(210,227,l),
(187,238,l),
(216,161,o),
(267,95,o),
(339,47,cs),
(411,-1,o),
(504,-30,o),
(620,-30,cs)
);
},
{
closed = 1;
nodes = (
(508,82,o),
(423,112,o),
(363,169,cs),
(302,225,o),
(269,306,o),
(269,410,cs),
(269,535,o),
(311,654,o),
(391,742,cs),
(471,830,o),
(580,882,o),
(717,882,cs),
(821,882,o),
(906,851,o),
(966,795,cs),
(1026,739,o),
(1058,660,o),
(1058,564,cs),
(1058,435,o),
(1013,316,o),
(936,227,cs),
(859,138,o),
(749,82,o),
(616,82,cs)
);
}
);
width = 1254;
}
);
leftKerningGroup = b2;
rightKerningGroup = b;
unicode = 98;
},
{
glyphname = c;
layers = (
{
layerId = "E5A1D094-7979-46BB-98CB-6CA2CEC0290A";
shapes = (
{
closed = 1;
nodes = (
(702,-30,o),
(851,9,o),
(975,77,c),
(898,398,l),
(814,338,o),
(731,310,o),
(647,310,cs),
(578,310,o),
(525,326,o),
(490,357,cs),
(454,388,o),
(435,433,o),
(435,493,cs),
(435,558,o),
(458,617,o),
(501,660,cs),
(544,703,o),
(603,730,o),
(683,730,cs),
(775,730,o),
(858,702,o),
(919,626,c),
(1152,899,l),
(1040,1012,o),
(886,1070,o),
(703,1070,cs),
(524,1070,o),
(359,1003,o),
(235,890,cs),
(111,777,o),
(35,620,o),
(35,445,cs),
(35,308,o),
(89,190,o),
(182,106,cs),
(274,21,o),
(404,-30,o),
(565,-30,cs)
);
}
);
width = 1106;
},
{
layerId = "87D444F7-2C21-4B59-A154-9C48869C513F";
shapes = (
{
closed = 1;
nodes = (
(667,-30,o),
(790,6,o),
(903,70,c),
(835,276,l),
(763,224,o),
(680,194,o),
(592,194,cs),
(500,194,o),
(431,218,o),
(383,262,cs),
(335,305,o),
(309,367,o),
(309,447,cs),
(309,547,o),
(342,636,o),
(402,701,cs),
(462,765,o),
(549,806,o),
(658,806,cs),
(762,806,o),
(848,776,o),
(908,707,c),
(1069,887,l),
(972,983,o),
(843,1030,o),
(686,1030,cs),
(511,1030,o),
(354,964,o),
(237,855,cs),
(120,746,o),
(49,594,o),
(49,422,cs),
(49,290,o),
(97,179,o),
(184,99,cs),
(271,18,o),
(391,-30,o),
(543,-30,cs)
);
}
);
width = 1048;
},
{
layerId = "053D553B-8824-4E8E-8E3D-8C773BB81ED6";
shapes = (
{
closed = 1;
nodes = (
(630,-30,o),
(731,4,o),
(832,64,c),
(772,154,l),
(716,110,o),
(626,78,o),
(538,78,cs),
(425,78,o),
(337,111,o),
(277,167,cs),
(217,223,o),
(184,304,o),
(184,401,cs),
(184,534,o),
(226,655,o),
(305,742,cs),
(384,829,o),
(493,882,o),
(634,882,cs),
(751,882,o),
(841,853,o),
(898,789,c),
(987,875,l),
(902,956,o),
(803,990,o),
(670,990,cs),
(499,990,o),
(348,929,o),
(239,822,cs),
(130,715,o),
(63,568,o),
(63,400,cs),
(63,275,o),
(107,169,o),
(187,93,cs),
(267,16,o),
(378,-30,o),
(522,-30,cs)
);
}
);
width = 991;
}
);
leftKerningGroup = c2;
rightKerningGroup = c;
unicode = 99;
},
{
glyphname = d;
layers = (
{
layerId = "E5A1D094-7979-46BB-98CB-6CA2CEC0290A";
shapes = (
{
closed = 1;
nodes = (
(581,-30,o),
(654,-11,o),
(717,24,cs),
(780,59,o),
(828,109,o),
(865,173,c),
(835,282,l),
(759,0,l),
(1099,0,l),
(1488,1440,l),
(1090,1440,l),
(921,808,l),
(1032,876,l),
(995,944,o),
(940,992,o),
(872,1024,cs),
(804,1056,o),
(731,1070,o),
(651,1070,cs),
(476,1070,o),
(324,996,o),
(216,875,cs),
(108,754,o),
(42,591,o),
(42,414,cs),
(42,277,o),
(89,166,o),
(170,90,cs),
(250,13,o),
(361,-30,o),
(497,-30,cs)
);
},
{
closed = 1;
nodes = (
(564,310,o),
(518,326,o),
(487,357,cs),
(455,388,o),
(436,428,o),
(436,480,cs),
(436,545,o),
(459,607,o),
(500,654,cs),
(540,701,o),
(599,730,o),
(668,730,cs),
(720,730,o),
(765,713,o),
(797,684,cs),
(829,655,o),
(847,610,o),
(847,558,cs),
(847,497,o),
(824,435,o),
(783,388,cs),
(742,341,o),
(685,310,o),
(613,310,cs)
);
}
);
width = 1364;
},
{
layerId = "87D444F7-2C21-4B59-A154-9C48869C513F";
shapes = (
{
closed = 1;
nodes = (
(595,-30,o),
(668,-10,o),
(732,25,cs),
(796,60,o),
(845,107,o),
(889,167,c),
(870,247,l),
(803,0,l),
(1029,0,l),
(1417,1440,l),
(1162,1440,l),
(984,775,l),
(1052,806,l),
(1017,878,o),
(965,932,o),
(894,971,cs),
(823,1010,o),
(739,1030,o),
(642,1030,cs),
(478,1030,o),
(332,959,o),
(228,843,cs),
(123,727,o),
(58,573,o),
(58,405,cs),
(58,273,o),
(102,165,o),
(182,89,cs),
(262,13,o),
(371,-30,o),
(507,-30,cs)
);
},
{
closed = 1;
nodes = (
(498,194,o),
(432,218,o),
(387,262,cs),
(342,305,o),
(316,365,o),
(316,441,cs),
(316,541,o),
(350,629,o),
(410,697,cs),
(470,765,o),
(553,806,o),
(653,806,cs),
(733,806,o),
(797,782,o),
(844,739,cs),
(891,696,o),
(915,633,o),
(915,557,cs),
(915,460,o),
(881,370,o),
(821,303,cs),
(761,236,o),
(676,194,o),
(575,194,cs)
);
}
);
width = 1309;
},
{
layerId = "053D553B-8824-4E8E-8E3D-8C773BB81ED6";
shapes = (
{
closed = 1;
nodes = (
(610,-30,o),
(685,-7,o),
(749,26,cs),
(813,59,o),
(862,109,o),
(914,162,c),
(905,212,l),
(847,0,l),
(959,0,l),
(1347,1440,l),
(1235,1440,l),
(1048,742,l),
(1073,737,l),
(1041,810,o),
(991,874,o),
(916,919,cs),
(841,964,o),
(750,990,o),
(633,990,cs),
(481,990,o),
(340,921,o),
(240,812,cs),
(139,703,o),
(74,553,o),
(74,396,cs),
(74,271,o),
(118,165,o),
(195,89,cs),
(272,13,o),
(381,-30,o),
(518,-30,cs)
);
},
{
closed = 1;
nodes = (
(433,78,o),
(348,110,o),
(288,167,cs),
(228,224,o),
(196,305,o),
(196,402,cs),
(196,535,o),
(240,653,o),
(320,741,cs),
(400,829,o),
(509,882,o),
(638,882,cs),
(743,882,o),
(831,851,o),
(891,795,cs),
(951,739,o),
(984,656,o),
(984,556,cs),
(984,423,o),
(940,303,o),
(860,218,cs),
(780,133,o),
(670,78,o),
(537,78,cs)
);
}
);
width = 1254;
}
);
leftKerningGroup = c2;
rightKerningGroup = d;
unicode = 100;
},
{
glyphname = e;
layers = (
{
layerId = "E5A1D094-7979-46BB-98CB-6CA2CEC0290A";
shapes = (
{
closed = 1;
nodes = (
(646,-30,o),
(725,-21,o),
(801,-6,cs),
(877,9,o),
(945,31,o),
(997,56,c),
(946,337,l),
(842,292,o),
(750,270,o),
(642,270,cs),
(578,270,o),
(517,279,o),
(470,302,cs),
(423,325,o),
(393,360,o),
(392,408,c),
(1150,408,l),
(1215,591,o),
(1201,754,o),
(1117,875,cs),
(1032,996,o),
(884,1070,o),
(680,1070,cs),
(497,1070,o),
(340,1007,o),
(227,895,cs),
(114,782,o),
(45,629,o),
(45,445,cs),
(45,304,o),
(94,188,o),
(186,104,cs),
(278,19,o),
(407,-30,o),
(574,-30,cs)
);
},
{
closed = 1;
nodes = (
(471,668,l),
(479,707,o),
(500,737,o),
(532,758,cs),
(564,778,o),
(608,790,o),
(655,790,cs),
(703,790,o),
(745,782,o),
(774,762,cs),
(803,741,o),
(820,711,o),
(820,668,c)
);
}
);
width = 1223;
},
{
layerId = "87D444F7-2C21-4B59-A154-9C48869C513F";
shapes = (
{
closed = 1;
nodes = (
(619,-30,o),
(687,-22,o),
(752,-7,cs),
(817,8,o),
(880,30,o),
(932,58,c),
(885,249,l),
(793,198,o),
(697,174,o),
(597,174,cs),
(505,174,o),
(426,196,o),
(370,240,cs),
(314,284,o),
(284,350,o),
(295,438,c),
(1086,438,l),
(1138,599,o),
(1123,746,o),
(1047,854,cs),
(971,962,o),
(841,1030,o),
(662,1030,cs),
(490,1030,o),
(340,964,o),
(232,852,cs),
(124,739,o),
(58,588,o),
(58,415,cs),
(58,282,o),
(105,174,o),
(192,94,cs),
(279,14,o),
(402,-30,o),
(555,-30,cs)
);
},
{
closed = 1;
nodes = (
(348,620,l),
(364,689,o),
(399,743,o),
(450,780,cs),
(501,816,o),
(565,836,o),
(637,836,cs),
(713,836,o),
(773,821,o),
(814,786,cs),
(855,750,o),
(876,696,o),
(871,620,c)
);
}
);
width = 1162;
},
{
layerId = "053D553B-8824-4E8E-8E3D-8C773BB81ED6";
shapes = (
{
closed = 1;
nodes = (
(590,-30,o),
(648,-23,o),
(704,-8,cs),
(760,7,o),
(815,29,o),
(868,60,c),
(824,161,l),
(744,105,o),
(645,78,o),
(553,78,cs),
(433,78,o),
(333,112,o),
(269,179,cs),
(205,246,o),
(177,343,o),
(198,468,c),
(1023,468,l),
(1060,608,o),
(1045,737,o),
(977,833,cs),
(909,929,o),
(797,990,o),
(644,990,cs),
(483,990,o),
(342,922,o),
(238,809,cs),
(134,696,o),
(72,547,o),
(72,386,cs),
(72,261,o),
(117,158,o),
(198,85,cs),
(278,12,o),
(393,-30,o),
(537,-30,cs)
);
},
{
closed = 1;
nodes = (
(225,572,l),
(250,673,o),
(300,750,o),
(368,802,cs),
(436,854,o),
(523,882,o),
(619,882,cs),
(720,882,o),
(802,861,o),
(855,810,cs),
(908,759,o),
(934,681,o),
(923,572,c)
);
}
);
width = 1101;
}
);
leftKerningGroup = c2;
rightKerningGroup = b;
unicode = 101;
},
{
glyphname = f;
layers = (
{
layerId = "E5A1D094-7979-46BB-98CB-6CA2CEC0290A";
shapes = (
{
closed = 1;
nodes = (
(465,0,l),
(661,728,l),
(903,728,l),
(985,1040,l),
(743,1040,l),
(752,1064,l),
(759,1091,o),
(772,1112,o),
(791,1125,cs),
(810,1138,o),
(835,1144,o),
(864,1144,cs),
(896,1144,o),
(933,1139,o),
(968,1111,c),
(1097,1398,l),
(1008,1455,o),
(909,1470,o),
(812,1470,cs),
(572,1470,o),
(423,1331,o),
(356,1086,cs),
(65,0,l)
);
},
{
closed = 1;
nodes = (
(293,728,l),
(373,1040,l),
(177,1040,l),
(97,728,l)
);
}
);
width = 884;
},
{
layerId = "87D444F7-2C21-4B59-A154-9C48869C513F";
shapes = (
{
closed = 1;
nodes = (
(363,0,l),
(576,792,l),
(832,792,l),
(887,1000,l),
(631,1000,l),
(666,1127,ls),
(678,1172,o),
(696,1205,o),
(723,1224,cs),
(748,1243,o),
(777,1253,o),
(812,1253,cs),
(849,1253,o),
(890,1246,o),
(929,1221,c),
(1021,1410,l),
(961,1451,o),
(888,1470,o),
(799,1470,cs),
(603,1470,o),
(471,1354,o),
(414,1139,cs),
(108,0,l)
);
},
{
closed = 1;
nodes = (
(350,792,l),
(403,1000,l),
(182,1000,l),
(129,792,l)
);
}
);
width = 799;
},
{
layerId = "053D553B-8824-4E8E-8E3D-8C773BB81ED6";
shapes = (
{
closed = 1;
nodes = (
(261,0,l),
(492,856,l),
(762,856,l),
(789,960,l),
(519,960,l),
(581,1190,ls),
(598,1254,o),
(622,1299,o),
(654,1324,cs),
(686,1349,o),
(722,1362,o),
(761,1362,cs),
(804,1362,o),
(847,1355,o),
(891,1331,c),
(945,1422,l),
(914,1449,o),
(868,1470,o),
(787,1470,cs),
(635,1470,o),
(520,1376,o),
(472,1192,cs),
(151,0,l)
);
},
{
closed = 1;
nodes = (
(408,856,l),
(433,960,l),
(187,960,l),
(162,856,l)
);
}
);
width = 714;
}
);
leftKerningGroup = f2;
rightKerningGroup = f;
unicode = 102;
},
{
glyphname = g;
layers = (
{
layerId = "E5A1D094-7979-46BB-98CB-6CA2CEC0290A";
shapes = (
{
closed = 1;
nodes = (
(458,-450,o),
(498,-448,o),
(541,-444,cs),
(628,-435,o),
(718,-415,o),
(801,-380,cs),
(842,-363,o),
(879,-341,o),
(912,-315,cs),
(976,-263,o),
(1018,-192,o),
(1018,-99,cs),
(1018,-20,o),
(978,37,o),
(919,80,cs),
(859,123,o),
(779,151,o),
(699,170,cs),
(516,213,ls),
(443,230,o),
(391,247,o),
(391,275,cs),
(391,303,o),
(421,318,o),
(455,324,cs),
(489,330,o),
(527,328,o),
(546,328,c),
(516,470,l),
(491,471,o),
(463,470,o),
(430,468,cs),
(365,463,o),
(296,450,o),
(231,426,cs),
(198,414,o),
(169,399,o),
(144,380,c),
(92,343,o),
(58,292,o),
(58,223,cs),
(58,163,o),
(82,113,o),
(129,77,c),
(65,72,o),
(-7,51,o),
(-64,13,cs),
(-120,-26,o),
(-160,-81,o),
(-160,-157,cs),
(-160,-198,o),
(-150,-233,o),
(-130,-263,cs),
(-89,-323,o),
(-20,-367,o),
(64,-395,cs),
(106,-409,o),
(149,-420,o),
(192,-428,cs),
(278,-444,o),
(362,-450,o),
(422,-450,cs)
);
},
{
closed = 1;
nodes = (
(431,-218,o),
(418,-217,o),
(401,-216,cs),
(368,-213,o),
(329,-207,o),
(293,-196,cs),
(274,-190,o),
(258,-183,o),
(243,-175,cs),
(214,-159,o),
(193,-137,o),
(193,-106,cs),
(193,-77,o),
(217,-59,o),
(248,-49,cs),
(279,-39,o),
(314,-37,o),
(337,-40,c),
(533,-81,ls),
(550,-85,o),
(578,-91,o),
(601,-101,cs),
(624,-111,o),
(643,-126,o),
(643,-149,cs),
(643,-184,o),
(604,-200,o),
(560,-209,cs),
(515,-218,o),
(465,-218,o),
(442,-218,cs)
);
},
{
closed = 1;
nodes = (
(707,320,o),
(833,356,o),
(930,424,cs),
(1026,492,o),
(1094,593,o),
(1094,725,cs),
(1094,849,o),
(1031,936,o),
(942,991,cs),
(853,1046,o),
(737,1070,o),
(632,1070,cs),
(513,1070,o),
(388,1036,o),
(293,968,cs),
(197,900,o),
(131,799,o),
(131,666,cs),
(131,545,o),
(194,458,o),
(283,402,cs),
(372,346,o),
(486,320,o),
(590,320,cs)
);
},
{
closed = 1;
nodes = (
(574,580,o),
(536,589,o),
(508,607,cs),
(479,625,o),
(459,653,o),
(459,692,cs),
(459,732,o),
(482,762,o),
(514,782,cs),
(545,802,o),
(585,812,o),
(620,812,cs),
(652,812,o),
(687,804,o),
(715,788,c),
(742,771,o),
(761,744,o),
(761,707,cs),
(761,666,o),
(740,634,o),
(711,613,cs),
(682,592,o),
(643,580,o),
(607,580,cs)
);
},
{
closed = 1;
nodes = (
(1375,1040,l),
(721,1040,l),
(767,828,l),
(882,793,o),
(976,768,o),
(1055,752,cs),
(1134,736,o),
(1198,728,o),
(1251,728,c)
);
}
);
width = 1250;
},
{
layerId = "87D444F7-2C21-4B59-A154-9C48869C513F";
shapes = (
{
closed = 1;
nodes = (
(450,-450,o),
(487,-448,o),
(528,-444,cs),
(608,-435,o),
(690,-414,o),
(765,-381,cs),
(802,-364,o),
(836,-344,o),
(865,-319,cs),
(923,-269,o),
(960,-201,o),
(960,-113,cs),
(960,-46,o),
(928,7,o),
(872,49,cs),
(816,91,o),
(737,120,o),
(642,140,cs),
(469,178,ls),
(380,199,o),
(333,218,o),
(333,253,cs),
(333,288,o),
(366,308,o),
(407,319,cs),
(448,330,o),
(501,332,o),
(538,329,c),
(515,434,l),
(484,434,o),
(453,432,o),
(420,429,cs),
(355,422,o),
(294,408,o),
(240,385,cs),
(213,374,o),
(189,360,o),
(169,343,cs),
(129,310,o),
(104,268,o),
(104,213,cs),
(104,164,o),
(129,119,o),
(182,80,c),
(110,75,o),
(33,54,o),
(-24,15,cs),
(-81,-25,o),
(-121,-80,o),
(-121,-156,cs),
(-121,-193,o),
(-113,-227,o),
(-96,-256,cs),
(-62,-314,o),
(-3,-356,o),
(70,-387,cs),
(107,-402,o),
(145,-415,o),
(185,-424,cs),
(264,-443,o),
(347,-450,o),
(415,-450,cs)
);
},
{
closed = 1;
nodes = (
(422,-285,o),
(403,-284,o),
(381,-282,cs),
(337,-278,o),
(289,-269,o),
(243,-253,cs),
(220,-245,o),
(199,-235,o),
(181,-223,cs),
(144,-199,o),
(119,-166,o),
(119,-122,cs),
(119,-78,o),
(151,-46,o),
(195,-26,cs),
(239,-6,o),
(295,1,o),
(346,-3,c),
(528,-41,ls),
(579,-52,o),
(623,-64,o),
(656,-83,cs),
(689,-102,o),
(709,-126,o),
(709,-155,cs),
(709,-200,o),
(673,-233,o),
(622,-254,cs),
(570,-275,o),
(502,-285,o),
(438,-285,cs)
);
},
{
closed = 1;
nodes = (
(697,315,o),
(817,354,o),
(906,422,cs),
(995,490,o),
(1056,586,o),
(1056,701,cs),
(1056,808,o),
(1004,890,o),
(925,946,cs),
(845,1001,o),
(738,1030,o),
(629,1030,cs),
(512,1030,o),
(393,992,o),
(305,925,cs),
(216,857,o),
(157,760,o),
(157,643,cs),
(157,539,o),
(209,457,o),
(288,401,cs),
(367,345,o),
(472,315,o),
(580,315,cs)
);
},
{
closed = 1;
nodes = (
(537,499,o),
(485,513,o),
(446,540,cs),
(407,567,o),
(384,606,o),
(384,657,cs),
(384,710,o),
(410,759,o),
(453,793,cs),
(496,827,o),
(554,847,o),
(618,847,cs),
(675,847,o),
(727,833,o),
(764,808,cs),
(801,783,o),
(824,744,o),
(824,696,cs),
(824,640,o),
(799,591,o),
(758,556,cs),
(717,520,o),
(660,499,o),
(596,499,cs)
);
},
{
closed = 1;
nodes = (
(1224,792,l),
(1311,1000,l),
(756,1000,l),
(781,867,l),
(874,842,o),
(950,822,o),
(1018,810,cs),
(1085,798,o),
(1141,792,o),
(1194,792,cs)
);
}
);
width = 1209;
},
{
layerId = "053D553B-8824-4E8E-8E3D-8C773BB81ED6";
shapes = (
{
closed = 1;
nodes = (
(399,-450,o),
(435,-448,o),
(472,-444,cs),
(546,-435,o),
(620,-414,o),
(688,-382,c),
(721,-365,o),
(751,-345,o),
(777,-321,cs),
(828,-273,o),
(861,-209,o),
(861,-126,cs),
(861,-73,o),
(835,-23,o),
(783,17,cs),
(731,57,o),
(651,90,o),
(543,110,cs),
(380,143,l),
(273,167,o),
(234,189,o),
(234,230,cs),
(234,270,o),
(269,297,o),
(318,313,cs),
(367,329,o),
(432,334,o),
(489,330,c),
(472,398,l),
(435,397,o),
(401,395,o),
(369,391,cs),
(304,382,o),
(250,367,o),
(207,345,cs),
(186,334,o),
(168,321,o),
(153,307,cs),
(124,278,o),
(108,243,o),
(108,203,cs),
(108,164,o),
(134,122,o),
(194,83,c),
(113,78,o),
(34,56,o),
(-25,17,cs),
(-85,-22,o),
(-123,-79,o),
(-123,-155,cs),
(-123,-189,o),
(-116,-220,o),
(-103,-248,cs),
(-76,-304,o),
(-28,-347,o),
(35,-379,cs),
(66,-395,o),
(100,-408,o),
(137,-419,cs),
(209,-440,o),
(289,-450,o),
(366,-450,cs)
);
},
{
closed = 1;
nodes = (
(372,-353,o),
(347,-352,o),
(320,-349,cs),
(264,-344,o),
(206,-331,o),
(151,-310,cs),
(123,-299,o),
(98,-286,o),
(77,-270,cs),
(33,-238,o),
(4,-194,o),
(4,-137,cs),
(4,-78,o),
(42,-32,o),
(100,-3,cs),
(158,26,o),
(234,40,o),
(313,35,c),
(482,0,ls),
(565,-17,o),
(628,-38,o),
(670,-65,cs),
(712,-92,o),
(733,-124,o),
(733,-161,cs),
(733,-217,o),
(701,-265,o),
(642,-299,cs),
(582,-333,o),
(497,-352,o),
(393,-352,c)
);
},
{
closed = 1;
nodes = (
(647,310,o),
(759,352,o),
(841,420,cs),
(923,487,o),
(976,579,o),
(976,676,cs),
(976,765,o),
(934,844,o),
(865,900,cs),
(796,956,o),
(697,990,o),
(585,990,cs),
(468,990,o),
(358,948,o),
(276,881,cs),
(194,814,o),
(141,721,o),
(141,620,cs),
(141,532,o),
(183,455,o),
(252,399,cs),
(320,343,o),
(417,310,o),
(528,310,cs)
);
},
{
closed = 1;
nodes = (
(459,418,o),
(391,438,o),
(343,473,cs),
(295,508,o),
(268,560,o),
(268,621,cs),
(268,688,o),
(299,753,o),
(352,802,cs),
(405,850,o),
(482,882,o),
(574,882,cs),
(657,882,o),
(724,863,o),
(772,828,cs),
(819,793,o),
(846,744,o),
(846,684,cs),
(846,615,o),
(816,548,o),
(763,499,cs),
(710,450,o),
(635,418,o),
(543,418,cs)
);
},
{
closed = 1;
nodes = (
(1155,856,l),
(1205,960,l),
(749,960,l),
(754,906,l),
(826,889,o),
(885,876,o),
(939,868,cs),
(993,860,o),
(1042,856,o),
(1095,856,cs)
);
}
);
width = 1168;
}
);
leftKerningGroup = g2;
rightKerningGroup = g;
unicode = 103;
},
{
glyphname = h;
layers = (
{
layerId = "E5A1D094-7979-46BB-98CB-6CA2CEC0290A";
shapes = (
{
closed = 1;
nodes = (
(388,0,l),
(532,534,ls),
(548,594,o),
(574,638,o),
(607,667,cs),
(640,695,o),
(679,710,o),
(728,710,cs),
(788,710,o),
(825,696,o),
(845,665,cs),
(865,634,o),
(866,590,o),
(851,534,cs),
(708,0,l),
(1108,0,l),
(1281,646,l),
(1312,774,o),
(1290,878,o),
(1230,954,cs),
(1170,1030,o),
(1076,1070,o),
(960,1070,cs),
(820,1070,o),
(698,1008,o),
(597,919,c),
(603,794,l),
(778,1440,l),
(378,1440,l),
(-12,0,l)
);
}
);
width = 1366;
},
{
layerId = "87D444F7-2C21-4B59-A154-9C48869C513F";
shapes = (
{
closed = 1;
nodes = (
(270,0,l),
(419,552,ls),
(440,633,o),
(479,694,o),
(530,735,cs),
(581,775,o),
(639,796,o),
(704,796,cs),
(776,796,o),
(831,776,o),
(863,737,cs),
(895,698,o),
(904,642,o),
(885,573,cs),
(730,0,l),
(986,0,l),
(1160,646,l),
(1188,762,o),
(1162,857,o),
(1102,925,cs),
(1042,993,o),
(948,1030,o),
(840,1030,cs),
(709,1030,o),
(585,976,o),
(481,872,c),
(484,789,l),
(660,1440,l),
(404,1440,l),
(14,0,l)
);
}
);
width = 1260;
},
{
layerId = "053D553B-8824-4E8E-8E3D-8C773BB81ED6";
shapes = (
{
closed = 1;
nodes = (
(153,0,l),
(307,570,ls),
(334,674,o),
(385,751,o),
(453,803,cs),
(521,855,o),
(597,882,o),
(681,882,cs),
(766,882,o),
(838,857,o),
(882,810,cs),
(926,762,o),
(942,696,o),
(919,612,cs),
(753,0,l),
(865,0,l),
(1039,646,l),
(1064,750,o),
(1035,836,o),
(975,896,cs),
(914,956,o),
(822,990,o),
(721,990,cs),
(600,990,o),
(473,945,o),
(366,825,c),
(366,784,l),
(543,1440,l),
(431,1440,l),
(41,0,l)
);
}
);
width = 1154;
}
);
leftKerningGroup = b2;
rightKerningGroup = a;
unicode = 104;
},
{
glyphname = k;
layers = (
{
layerId = "E5A1D094-7979-46BB-98CB-6CA2CEC0290A";
shapes = (
{
closed = 1;
nodes = (
(387,0,l),
(461,268,l),
(547,344,l),
(667,0,l),
(1119,0,l),
(889,591,l),
(1375,1040,l),
(890,1040,l),
(594,772,l),
(777,1440,l),
(377,1440,l),
(-13,0,l)
);
}
);
width = 1272;
},
{
layerId = "87D444F7-2C21-4B59-A154-9C48869C513F";
shapes = (
{
closed = 1;
nodes = (
(269,0,l),
(354,312,l),
(515,443,l),
(686,0,l),
(978,0,l),
(736,600,l),
(1198,1000,l),
(882,1000,l),
(441,637,l),
(659,1440,l),
(403,1440,l),
(13,0,l)
);
}
);
width = 1149;
},
{
layerId = "053D553B-8824-4E8E-8E3D-8C773BB81ED6";
shapes = (
{
closed = 1;
nodes = (
(151,0,l),
(248,356,l),
(484,542,l),
(705,0,l),
(837,0,l),
(583,609,l),
(1021,960,l),
(875,960,l),
(288,502,l),
(541,1440,l),
(429,1440,l),
(39,0,l)
);
}
);
width = 1026;
}
);
leftKerningGroup = b2;
rightKerningGroup = k;
unicode = 107;
},
{
glyphname = l;
layers = (
{
layerId = "E5A1D094-7979-46BB-98CB-6CA2CEC0290A";
shapes = (
{
closed = 1;
nodes = (
(470,-31,o),
(539,-20,o),
(623,9,c),
(636,318,l),
(611,310,o),
(589,307,o),
(569,307,cs),
(540,307,o),
(518,316,o),
(506,336,c),
(493,355,o),
(494,381,o),
(502,414,c),
(783,1440,l),
(383,1440,l),
(88,350,l),
(63,270,o),
(70,178,o),
(119,102,cs),
(168,25,o),
(262,-31,o),
(410,-31,cs)
);
}
);
width = 770;
},
{
layerId = "87D444F7-2C21-4B59-A154-9C48869C513F";
shapes = (
{
closed = 1;
nodes = (
(387,-31,o),
(453,-24,o),
(525,0,c),
(527,207,l),
(491,198,o),
(462,192,o),
(435,192,cs),
(396,192,o),
(374,206,o),
(363,233,cs),
(352,260,o),
(356,294,o),
(367,335,cs),
(666,1440,l),
(410,1440,l),
(96,280,l),
(73,207,o),
(77,130,o),
(116,70,cs),
(155,10,o),
(227,-31,o),
(340,-31,cs)
);
}
);
width = 678;
},
{
layerId = "053D553B-8824-4E8E-8E3D-8C773BB81ED6";
shapes = (
{
closed = 1;
nodes = (
(303,-31,o),
(367,-27,o),
(427,-8,c),
(418,97,l),
(371,86,o),
(336,78,o),
(301,78,cs),
(254,78,o),
(230,97,o),
(221,130,cs),
(212,163,o),
(220,206,o),
(232,257,c),
(550,1440,l),
(438,1440,l),
(105,211,l),
(85,142,o),
(86,83,o),
(113,39,cs),
(140,-5,o),
(190,-31,o),
(270,-31,cs)
);
}
);
width = 587;
}
);
leftKerningGroup = b2;
rightKerningGroup = d;
unicode = 108;
},
{
glyphname = m;
layers = (
{
layerId = "E5A1D094-7979-46BB-98CB-6CA2CEC0290A";
shapes = (
{
closed = 1;
nodes = (
(388,0,l),
(544,586,ls),
(555,627,o),
(578,657,o),
(609,678,cs),
(640,698,o),
(681,710,o),
(722,710,cs),
(769,710,o),
(801,698,o),
(818,671,cs),
(835,644,o),
(837,605,o),
(824,548,c),
(678,0,l),
(1078,0,l),
(1234,586,ls),
(1245,627,o),
(1268,657,o),
(1299,678,cs),
(1330,698,o),
(1371,710,o),
(1412,710,cs),
(1459,710,o),
(1491,698,o),
(1508,671,cs),
(1525,644,o),
(1527,605,o),
(1514,548,c),
(1368,0,l),
(1768,0,l),
(1945,662,ls),
(1980,802,o),
(1962,903,o),
(1909,971,cs),
(1856,1039,o),
(1768,1070,o),
(1655,1070,cs),
(1575,1070,o),
(1493,1055,o),
(1424,1020,cs),
(1355,985,o),
(1294,935,o),
(1251,867,c),
(1244,927,o),
(1217,978,o),
(1173,1014,cs),
(1128,1050,o),
(1066,1070,o),
(990,1070,cs),
(918,1070,o),
(845,1050,o),
(777,1013,cs),
(709,976,o),
(653,920,o),
(620,847,c),
(668,1040,l),
(268,1040,l),
(-12,0,l)
);
}
);
width = 2026;
},
{
layerId = "87D444F7-2C21-4B59-A154-9C48869C513F";
shapes = (
{
closed = 1;
nodes = (
(270,0,l),
(425,578,ls),
(444,650,o),
(482,703,o),
(531,740,cs),
(579,776,o),
(640,796,o),
(701,796,cs),
(769,796,o),
(817,777,o),
(845,741,c),
(872,704,o),
(877,652,o),
(858,580,cs),
(703,0,l),
(959,0,l),
(1114,578,ls),
(1133,650,o),
(1171,703,o),
(1220,740,cs),
(1268,776,o),
(1329,796,o),
(1390,796,cs),
(1458,796,o),
(1506,777,o),
(1534,741,c),
(1561,704,o),
(1566,652,o),
(1547,580,cs),
(1392,0,l),
(1648,0,l),
(1824,654,l),
(1853,775,o),
(1834,870,o),
(1782,934,cs),
(1729,998,o),
(1642,1030,o),
(1534,1030,cs),
(1458,1030,o),
(1384,1014,o),
(1316,978,cs),
(1247,942,o),
(1184,889,o),
(1128,816,c),
(1125,876,o),
(1101,929,o),
(1056,968,cs),
(1011,1007,o),
(945,1030,o),
(860,1030,cs),
(791,1030,o),
(720,1011,o),
(656,976,cs),
(592,940,o),
(536,888,o),
(495,823,c),
(539,1000,l),
(283,1000,l),
(14,0,l)
);
}
);
width = 1922;
},
{
layerId = "053D553B-8824-4E8E-8E3D-8C773BB81ED6";
shapes = (
{
closed = 1;
nodes = (
(153,0,l),
(306,570,ls),
(333,671,o),
(386,749,o),
(453,802,cs),
(520,854,o),
(600,882,o),
(680,882,cs),
(769,882,o),
(834,857,o),
(871,810,cs),
(908,763,o),
(916,697,o),
(892,612,cs),
(729,0,l),
(841,0,l),
(994,570,ls),
(1021,671,o),
(1074,749,o),
(1141,802,cs),
(1208,854,o),
(1288,882,o),
(1368,882,cs),
(1457,882,o),
(1522,857,o),
(1559,810,cs),
(1596,763,o),
(1604,697,o),
(1580,612,cs),
(1417,0,l),
(1529,0,l),
(1704,646,l),
(1727,750,o),
(1706,837,o),
(1654,897,cs),
(1602,957,o),
(1518,990,o),
(1413,990,cs),
(1345,990,o),
(1276,976,o),
(1208,937,cs),
(1140,898,o),
(1074,843,o),
(1006,766,c),
(1006,826,o),
(985,882,o),
(940,923,cs),
(895,964,o),
(826,990,o),
(730,990,cs),
(662,990,o),
(597,971,o),
(536,939,cs),
(475,906,o),
(421,859,o),
(370,799,c),
(410,960,l),
(298,960,l),
(41,0,l)
);
}
);
width = 1818;
}
);
leftKerningGroup = m;
rightKerningGroup = a;
unicode = 109;
},
{
glyphname = n;
layers = (
{
layerId = "E5A1D094-7979-46BB-98CB-6CA2CEC0290A";
shapes = (
{
closed = 1;
nodes = (
(388,0,l),
(532,536,l),
(545,596,o),
(572,639,o),
(608,668,cs),
(644,696,o),
(691,710,o),
(744,710,cs),
(793,710,o),
(829,700,o),
(848,672,cs),
(867,644,o),
(869,601,o),
(852,536,cs),
(708,0,l),
(1108,0,l),
(1285,662,l),
(1314,791,o),
(1290,891,o),
(1230,962,cs),
(1170,1033,o),
(1077,1070,o),
(972,1070,cs),
(844,1070,o),
(726,1018,o),
(631,905,c),
(668,1040,l),
(268,1040,l),
(-12,0,l)
);
}
);
width = 1366;
},
{
layerId = "87D444F7-2C21-4B59-A154-9C48869C513F";
shapes = (
{
closed = 1;
nodes = (
(270,0,l),
(419,553,l),
(439,633,o),
(478,694,o),
(530,735,cs),
(581,775,o),
(644,796,o),
(712,796,cs),
(780,796,o),
(833,777,o),
(864,740,cs),
(895,703,o),
(904,647,o),
(884,574,cs),
(730,0,l),
(986,0,l),
(1162,654,l),
(1190,770,o),
(1164,863,o),
(1104,928,cs),
(1044,993,o),
(951,1030,o),
(847,1030,cs),
(726,1030,o),
(602,979,o),
(503,863,c),
(539,1000,l),
(283,1000,l),
(14,0,l)
);
}
);
width = 1260;
},
{
layerId = "053D553B-8824-4E8E-8E3D-8C773BB81ED6";
shapes = (
{
closed = 1;
nodes = (
(153,0,l),
(307,570,l),
(332,671,o),
(383,750,o),
(451,802,cs),
(519,854,o),
(599,882,o),
(680,882,cs),
(768,882,o),
(837,856,o),
(880,809,cs),
(923,762,o),
(938,696,o),
(917,612,cs),
(753,0,l),
(865,0,l),
(1040,646,ls),
(1067,750,o),
(1038,835,o),
(978,895,cs),
(918,955,o),
(824,990,o),
(723,990,cs),
(607,990,o),
(479,941,o),
(376,822,c),
(410,960,l),
(298,960,l),
(41,0,l)
);
}
);
width = 1154;
}
);
leftKerningGroup = m;
rightKerningGroup = a;
unicode = 110;
},
{
glyphname = o;
layers = (
{
layerId = "E5A1D094-7979-46BB-98CB-6CA2CEC0290A";
shapes = (
{
closed = 1;
nodes = (
(748,-30,o),
(912,39,o),
(1035,152,cs),
(1096,208,o),
(1145,274,o),
(1182,350,cs),
(1219,426,o),
(1237,506,o),
(1237,593,cs),
(1237,725,o),
(1187,844,o),
(1095,931,cs),
(1003,1018,o),
(870,1070,o),
(705,1070,cs),
(530,1070,o),
(367,1002,o),
(243,889,cs),
(119,776,o),
(40,622,o),
(40,449,cs),
(40,317,o),
(90,200,o),
(182,112,cs),
(274,24,o),
(407,-30,o),
(572,-30,cs)
);
},
{
closed = 1;
nodes = (
(559,310,o),
(514,327,o),
(483,358,cs),
(452,389,o),
(434,430,o),
(434,482,cs),
(434,546,o),
(457,606,o),
(497,653,cs),
(537,700,o),
(594,730,o),
(666,730,cs),
(719,730,o),
(763,713,o),
(795,685,cs),
(827,657,o),
(843,614,o),
(843,562,cs),
(843,498,o),
(822,436,o),
(782,389,cs),
(741,342,o),
(682,310,o),
(610,310,cs)
);
}
);
width = 1276;
},
{
layerId = "87D444F7-2C21-4B59-A154-9C48869C513F";
shapes = (
{
closed = 1;
nodes = (
(711,-30,o),
(865,39,o),
(980,148,cs),
(1037,204,o),
(1082,267,o),
(1117,340,cs),
(1152,413,o),
(1168,490,o),
(1168,573,cs),
(1168,698,o),
(1121,812,o),
(1037,896,cs),
(952,980,o),
(830,1030,o),
(678,1030,cs),
(514,1030,o),
(361,964,o),
(245,853,cs),
(129,742,o),
(56,594,o),
(56,429,cs),
(56,301,o),
(103,189,o),
(188,105,cs),
(272,21,o),
(394,-30,o),
(546,-30,cs)
);
},
{
closed = 1;
nodes = (
(494,194,o),
(429,218,o),
(384,262,cs),
(339,305,o),
(313,367,o),
(313,443,cs),
(313,539,o),
(345,628,o),
(405,696,cs),
(465,764,o),
(549,806,o),
(650,806,cs),
(730,806,o),
(794,783,o),
(841,740,cs),
(888,697,o),
(911,635,o),
(911,559,cs),
(911,463,o),
(880,374,o),
(820,306,cs),
(760,238,o),
(678,194,o),
(574,194,cs)
);
}
);
width = 1224;
},
{
layerId = "053D553B-8824-4E8E-8E3D-8C773BB81ED6";
shapes = (
{
closed = 1;
nodes = (
(676,-30,o),
(820,38,o),
(925,145,cs),
(978,198,o),
(1020,259,o),
(1052,331,cs),
(1084,403,o),
(1100,476,o),
(1100,553,cs),
(1100,674,o),
(1056,782,o),
(979,862,cs),
(902,942,o),
(789,990,o),
(652,990,cs),
(499,990,o),
(356,925,o),
(248,817,cs),
(140,709,o),
(72,566,o),
(72,409,cs),
(72,288,o),
(115,179,o),
(194,99,cs),
(273,19,o),
(383,-30,o),
(520,-30,cs)
);
},
{
closed = 1;
nodes = (
(433,78,o),
(346,110,o),
(286,167,cs),
(226,223,o),
(193,304,o),
(193,404,cs),
(193,532,o),
(237,650,o),
(314,738,cs),
(390,826,o),
(501,882,o),
(634,882,cs),
(742,882,o),
(826,851,o),
(887,795,cs),
(947,739,o),
(979,657,o),
(979,557,cs),
(979,429,o),
(936,311,o),
(859,223,cs),
(782,135,o),
(671,78,o),
(538,78,cs)
);
}
);
width = 1172;
}
);
leftKerningGroup = c2;
rightKerningGroup = b;
unicode = 111;
},
{
glyphname = p;
layers = (
{
layerId = "E5A1D094-7979-46BB-98CB-6CA2CEC0290A";
shapes = (
{
closed = 1;
nodes = (
(270,-420,l),
(405,83,l),
(446,46,o),
(493,16,o),
(545,-3,cs),
(596,-22,o),
(650,-30,o),
(710,-30,cs),
(887,-30,o),
(1041,46,o),
(1149,167,cs),
(1257,288,o),
(1323,452,o),
(1323,631,cs),
(1323,767,o),
(1280,876,o),
(1201,953,cs),
(1122,1029,o),
(1009,1070,o),
(876,1070,cs),
(816,1070,o),
(763,1061,o),
(715,1045,cs),
(666,1028,o),
(622,1001,o),
(586,968,c),
(606,1040,l),
(266,1040,l),
(-128,-420,l)
);
},
{
closed = 1;
nodes = (
(641,310,o),
(599,327,o),
(568,359,cs),
(536,391,o),
(519,435,o),
(519,491,cs),
(519,551,o),
(542,611,o),
(582,656,cs),
(622,701,o),
(679,730,o),
(751,730,cs),
(803,730,o),
(848,714,o),
(880,686,cs),
(912,658,o),
(929,616,o),
(929,567,cs),
(929,487,o),
(902,424,o),
(859,380,cs),
(816,336,o),
(761,310,o),
(697,310,cs)
);
}
);
width = 1364;
},
{
layerId = "87D444F7-2C21-4B59-A154-9C48869C513F";
shapes = (
{
closed = 1;
nodes = (
(153,-420,l),
(303,138,l),
(340,87,o),
(390,44,o),
(451,16,c),
(511,-13,o),
(582,-30,o),
(666,-30,cs),
(833,-30,o),
(978,42,o),
(1083,159,cs),
(1187,275,o),
(1251,429,o),
(1251,596,cs),
(1251,725,o),
(1208,833,o),
(1132,910,cs),
(1055,986,o),
(944,1030,o),
(807,1030,cs),
(735,1030,o),
(675,1017,o),
(620,994,cs),
(565,970,o),
(519,937,o),
(478,897,c),
(507,1000,l),
(281,1000,l),
(-102,-420,l)
);
},
{
closed = 1;
nodes = (
(577,194,o),
(513,218,o),
(466,262,cs),
(419,306,o),
(394,369,o),
(394,445,cs),
(394,537,o),
(426,628,o),
(486,696,cs),
(546,764,o),
(628,806,o),
(732,806,cs),
(812,806,o),
(876,784,o),
(923,741,cs),
(970,698,o),
(994,637,o),
(994,564,cs),
(994,463,o),
(959,371,o),
(899,303,cs),
(839,235,o),
(757,194,o),
(657,194,cs)
);
}
);
width = 1309;
},
{
layerId = "053D553B-8824-4E8E-8E3D-8C773BB81ED6";
shapes = (
{
closed = 1;
nodes = (
(36,-420,l),
(201,194,l),
(236,130,o),
(288,73,o),
(357,34,cs),
(426,-6,o),
(515,-30,o),
(623,-30,cs),
(776,-30,o),
(916,40,o),
(1017,151,cs),
(1117,262,o),
(1180,408,o),
(1180,561,cs),
(1180,682,o),
(1140,790,o),
(1064,867,cs),
(988,944,o),
(878,990,o),
(738,990,cs),
(654,990,o),
(586,972,o),
(526,943,cs),
(466,914,o),
(416,873,o),
(371,826,c),
(409,960,l),
(297,960,l),
(-76,-420,l)
);
},
{
closed = 1;
nodes = (
(510,78,o),
(425,109,o),
(364,166,cs),
(303,222,o),
(270,303,o),
(270,400,cs),
(270,525,o),
(314,647,o),
(391,736,cs),
(467,825,o),
(577,882,o),
(713,882,cs),
(818,882,o),
(905,851,o),
(966,795,cs),
(1026,739,o),
(1059,658,o),
(1059,562,cs),
(1059,437,o),
(1016,316,o),
(939,227,cs),
(862,138,o),
(754,78,o),
(618,78,cs)
);
}
);
width = 1254;
}
);
leftKerningGroup = m;
rightKerningGroup = b;
unicode = 112;
},
{
glyphname = q;
layers = (
{
layerId = "E5A1D094-7979-46BB-98CB-6CA2CEC0290A";
shapes = (
{
closed = 1;
nodes = (
(988,-420,l),
(1380,1040,l),
(1040,1040,l),
(964,758,l),
(1045,815,l),
(1032,891,o),
(984,954,o),
(909,999,cs),
(834,1044,o),
(743,1070,o),
(639,1070,cs),
(464,1070,o),
(317,995,o),
(213,878,cs),
(108,761,o),
(47,602,o),
(47,429,cs),
(47,296,o),
(89,185,o),
(165,101,cs),
(241,17,o),
(346,-29,o),
(478,-29,cs),
(551,-29,o),
(615,-17,o),
(672,10,cs),
(728,37,o),
(777,75,o),
(833,128,c),
(764,232,l),
(590,-420,l)
);
},
{
closed = 1;
nodes = (
(562,311,o),
(518,327,o),
(487,356,cs),
(456,385,o),
(437,426,o),
(437,478,cs),
(437,542,o),
(460,605,o),
(500,653,cs),
(540,700,o),
(598,731,o),
(671,731,cs),
(720,731,o),
(766,715,o),
(797,684,cs),
(828,653,o),
(847,611,o),
(847,555,cs),
(847,495,o),
(826,434,o),
(786,387,cs),
(745,340,o),
(686,311,o),
(614,311,cs)
);
}
);
width = 1364;
},
{
layerId = "87D444F7-2C21-4B59-A154-9C48869C513F";
shapes = (
{
closed = 1;
nodes = (
(917,-420,l),
(1299,1000,l),
(1073,1000,l),
(1006,753,l),
(1058,778,l),
(1030,859,o),
(975,922,o),
(899,965,cs),
(823,1008,o),
(735,1030,o),
(639,1030,cs),
(474,1030,o),
(331,959,o),
(227,846,cs),
(123,733,o),
(61,581,o),
(61,414,cs),
(61,289,o),
(101,180,o),
(177,100,cs),
(253,20,o),
(360,-27,o),
(493,-27,cs),
(577,-27,o),
(646,-11,o),
(707,20,cs),
(768,51,o),
(822,95,o),
(875,151,c),
(835,225,l),
(662,-420,l)
);
},
{
closed = 1;
nodes = (
(499,196,o),
(433,219,o),
(388,262,cs),
(343,305,o),
(316,364,o),
(316,440,cs),
(316,533,o),
(348,625,o),
(408,693,cs),
(468,761,o),
(551,805,o),
(655,805,cs),
(732,805,o),
(799,781,o),
(844,738,cs),
(889,695,o),
(916,634,o),
(916,558,cs),
(916,465,o),
(885,375,o),
(825,307,cs),
(765,239,o),
(680,196,o),
(576,196,cs)
);
}
);
width = 1309;
},
{
layerId = "053D553B-8824-4E8E-8E3D-8C773BB81ED6";
shapes = (
{
closed = 1;
nodes = (
(847,-420,l),
(1219,960,l),
(1107,960,l),
(1049,748,l),
(1071,741,l),
(1028,830,o),
(966,892,o),
(890,932,cs),
(814,972,o),
(731,990,o),
(639,990,cs),
(483,990,o),
(342,922,o),
(241,814,cs),
(140,706,o),
(76,560,o),
(76,399,cs),
(76,279,o),
(115,175,o),
(190,99,cs),
(265,22,o),
(372,-24,o),
(509,-24,cs),
(601,-24,o),
(677,-5,o),
(744,31,cs),
(811,66,o),
(865,115,o),
(917,175,c),
(907,218,l),
(735,-420,l)
);
},
{
closed = 1;
nodes = (
(434,82,o),
(350,112,o),
(290,169,cs),
(230,225,o),
(195,303,o),
(195,403,cs),
(195,527,o),
(240,646,o),
(317,735,cs),
(394,823,o),
(503,880,o),
(640,880,cs),
(744,880,o),
(832,849,o),
(892,793,cs),
(952,737,o),
(985,658,o),
(985,561,cs),
(985,436,o),
(944,315,o),
(865,227,cs),
(786,138,o),
(675,82,o),
(538,82,cs)
);
}
);
width = 1254;
}
);
leftKerningGroup = c2;
unicode = 113;
},
{
glyphname = r;
layers = (
{
layerId = "E5A1D094-7979-46BB-98CB-6CA2CEC0290A";
shapes = (
{
closed = 1;
nodes = (
(389,0,l),
(525,506,l),
(541,571,o),
(573,614,o),
(612,642,cs),
(651,669,o),
(697,680,o),
(746,680,cs),
(802,680,o),
(861,666,o),
(908,645,c),
(1060,1058,l),
(1027,1066,o),
(990,1072,o),
(950,1072,cs),
(890,1072,o),
(826,1056,o),
(770,1024,cs),
(714,992,o),
(664,942,o),
(627,877,c),
(670,1040,l),
(271,1040,l),
(-11,0,l)
);
}
);
width = 936;
},
{
layerId = "87D444F7-2C21-4B59-A154-9C48869C513F";
shapes = (
{
closed = 1;
nodes = (
(271,0,l),
(415,532,l),
(436,616,o),
(478,676,o),
(531,717,cs),
(583,757,o),
(647,777,o),
(715,777,cs),
(763,777,o),
(811,767,o),
(854,751,c),
(955,1015,l),
(918,1026,o),
(877,1031,o),
(838,1031,cs),
(778,1031,o),
(716,1019,o),
(659,988,cs),
(602,957,o),
(548,911,o),
(500,843,c),
(542,1000,l),
(285,1000,l),
(15,0,l)
);
}
);
width = 846;
},
{
layerId = "053D553B-8824-4E8E-8E3D-8C773BB81ED6";
shapes = (
{
closed = 1;
nodes = (
(153,0,l),
(305,558,ls),
(332,659,o),
(382,739,o),
(450,792,cs),
(518,845,o),
(596,874,o),
(684,874,cs),
(724,874,o),
(762,869,o),
(801,857,c),
(850,972,l),
(810,985,o),
(764,990,o),
(727,990,cs),
(667,990,o),
(608,979,o),
(549,952,cs),
(490,924,o),
(433,878,o),
(373,810,c),
(414,960,l),
(300,960,l),
(41,0,l)
);
}
);
width = 756;
}
);
leftKerningGroup = m;
rightKerningGroup = r;
unicode = 114;
},
{
glyphname = s;
layers = (
{
layerId = "E5A1D094-7979-46BB-98CB-6CA2CEC0290A";
shapes = (
{
closed = 1;
nodes = (
(613,-28,o),
(738,11,o),
(827,83,cs),
(916,155,o),
(970,256,o),
(970,381,cs),
(970,449,o),
(944,503,o),
(885,551,cs),
(826,598,o),
(734,635,o),
(605,671,cs),
(548,687,o),
(514,696,o),
(493,707,cs),
(472,718,o),
(467,724,o),
(467,735,cs),
(467,752,o),
(478,765,o),
(495,774,cs),
(512,782,o),
(540,788,o),
(572,788,cs),
(628,788,o),
(690,776,o),
(747,753,cs),
(804,730,o),
(860,700,o),
(904,661,c),
(1078,914,l),
(1026,963,o),
(957,1006,o),
(873,1035,cs),
(789,1063,o),
(694,1080,o),
(594,1080,cs),
(461,1080,o),
(342,1046,o),
(251,975,cs),
(160,904,o),
(104,806,o),
(104,678,cs),
(104,601,o),
(134,539,o),
(194,490,cs),
(254,441,o),
(344,405,o),
(465,378,c),
(526,363,o),
(563,355,o),
(584,348,cs),
(605,340,o),
(613,335,o),
(613,323,cs),
(613,306,o),
(604,291,o),
(585,280,cs),
(565,269,o),
(537,264,o),
(500,264,cs),
(444,264,o),
(376,278,o),
(311,302,cs),
(246,325,o),
(181,359,o),
(121,402,c),
(-56,150,l),
(12,86,o),
(98,42,o),
(190,14,cs),
(282,-15,o),
(377,-28,o),
(469,-28,cs)
);
}
);
width = 1088;
},
{
layerId = "87D444F7-2C21-4B59-A154-9C48869C513F";
shapes = (
{
closed = 1;
nodes = (
(552,-29,o),
(661,7,o),
(740,72,cs),
(819,136,o),
(864,227,o),
(864,340,cs),
(864,401,o),
(840,451,o),
(789,494,cs),
(738,537,o),
(659,571,o),
(550,603,cs),
(482,623,o),
(438,639,o),
(409,658,cs),
(380,677,o),
(368,695,o),
(368,720,cs),
(368,759,o),
(386,789,o),
(415,810,cs),
(444,830,o),
(488,842,o),
(537,842,cs),
(597,842,o),
(656,829,o),
(709,806,cs),
(762,783,o),
(811,751,o),
(847,711,c),
(974,884,l),
(929,932,o),
(870,971,o),
(798,998,cs),
(726,1025,o),
(647,1040,o),
(559,1040,cs),
(439,1040,o),
(335,1006,o),
(256,942,cs),
(177,878,o),
(129,789,o),
(129,681,cs),
(129,613,o),
(154,561,o),
(206,517,cs),
(257,473,o),
(334,439,o),
(442,410,c),
(514,389,o),
(559,372,o),
(588,356,c),
(616,339,o),
(628,322,o),
(628,297,cs),
(628,257,o),
(611,226,o),
(579,203,cs),
(547,180,o),
(501,169,o),
(444,169,cs),
(384,169,o),
(323,182,o),
(263,206,cs),
(203,229,o),
(150,263,o),
(103,306,c),
(-28,137,l),
(24,81,o),
(93,41,o),
(173,13,cs),
(253,-15,o),
(339,-29,o),
(424,-29,cs)
);
}
);
width = 1010;
},
{
layerId = "053D553B-8824-4E8E-8E3D-8C773BB81ED6";
shapes = (
{
closed = 1;
nodes = (
(491,-30,o),
(585,2,o),
(653,61,cs),
(721,120,o),
(758,200,o),
(758,300,cs),
(758,356,o),
(737,399,o),
(694,438,cs),
(651,477,o),
(587,507,o),
(495,535,cs),
(419,559,o),
(365,582,o),
(326,609,cs),
(287,636,o),
(270,665,o),
(270,705,cs),
(270,766,o),
(295,813,o),
(336,846,cs),
(376,878,o),
(437,896,o),
(502,896,cs),
(566,896,o),
(623,883,o),
(672,860,c),
(720,836,o),
(762,804,o),
(791,761,c),
(870,854,l),
(831,901,o),
(784,938,o),
(725,962,cs),
(666,986,o),
(600,1000,o),
(524,1000,cs),
(419,1000,o),
(329,966,o),
(261,909,cs),
(193,852,o),
(154,773,o),
(154,685,cs),
(154,628,o),
(175,583,o),
(218,544,cs),
(261,505,o),
(328,475,o),
(420,443,cs),
(500,414,o),
(555,389,o),
(591,364,cs),
(627,339,o),
(644,311,o),
(644,271,cs),
(644,210,o),
(619,161,o),
(575,126,cs),
(530,91,o),
(468,74,o),
(388,74,cs),
(328,74,o),
(267,87,o),
(215,110,cs),
(163,133,o),
(119,167,o),
(86,211,c),
(1,125,l),
(36,78,o),
(90,40,o),
(157,13,cs),
(224,-15,o),
(299,-30,o),
(379,-30,cs)
);
}
);
width = 932;
}
);
leftKerningGroup = s2;
rightKerningGroup = s;
unicode = 115;
},
{
glyphname = t;
layers = (
{
layerId = "E5A1D094-7979-46BB-98CB-6CA2CEC0290A";
shapes = (
{
closed = 1;
nodes = (
(597,-30,o),
(681,-11,o),
(746,18,c),
(786,345,l),
(746,328,o),
(708,320,o),
(669,320,cs),
(626,320,o),
(598,332,o),
(583,352,cs),
(568,372,o),
(570,404,o),
(579,440,cs),
(658,728,l),
(874,728,l),
(956,1040,l),
(740,1040,l),
(820,1334,l),
(420,1334,l),
(163,378,ls),
(130,249,o),
(146,150,o),
(207,79,cs),
(267,8,o),
(367,-30,o),
(504,-30,cs)
);
},
{
closed = 1;
nodes = (
(290,728,l),
(372,1040,l),
(156,1040,l),
(74,728,l)
);
}
);
width = 930;
},
{
layerId = "87D444F7-2C21-4B59-A154-9C48869C513F";
shapes = (
{
closed = 1;
nodes = (
(547,-30,o),
(617,-16,o),
(673,9,c),
(688,224,l),
(652,208,o),
(615,200,o),
(572,200,cs),
(515,200,o),
(478,217,o),
(462,246,cs),
(445,275,o),
(447,319,o),
(462,375,cs),
(575,792,l),
(838,792,l),
(893,1000,l),
(630,1000,l),
(709,1290,l),
(453,1290,l),
(193,324,ls),
(164,211,o),
(176,124,o),
(225,64,cs),
(274,3,o),
(358,-30,o),
(475,-30,cs)
);
},
{
closed = 1;
nodes = (
(348,792,l),
(403,1000,l),
(163,1000,l),
(108,792,l)
);
}
);
width = 875;
},
{
layerId = "053D553B-8824-4E8E-8E3D-8C773BB81ED6";
shapes = (
{
closed = 1;
nodes = (
(498,-30,o),
(555,-22,o),
(600,1,c),
(591,103,l),
(558,90,o),
(522,80,o),
(475,80,cs),
(403,80,o),
(360,102,o),
(341,141,cs),
(321,180,o),
(326,238,o),
(346,310,cs),
(493,856,l),
(803,856,l),
(830,960,l),
(520,960,l),
(599,1246,l),
(487,1246,l),
(223,270,ls),
(198,174,o),
(205,101,o),
(244,50,cs),
(283,-2,o),
(350,-30,o),
(446,-30,cs)
);
},
{
closed = 1;
nodes = (
(407,856,l),
(434,960,l),
(170,960,l),
(143,856,l)
);
}
);
width = 820;
}
);
leftKerningGroup = t2;
rightKerningGroup = t;
unicode = 116;
},
{
glyphname = u;
layers = (
{
layerId = "E5A1D094-7979-46BB-98CB-6CA2CEC0290A";
shapes = (
{
closed = 1;
nodes = (
(484,-30,o),
(555,-8,o),
(615,24,cs),
(675,56,o),
(720,101,o),
(756,146,c),
(719,0,l),
(1059,0,l),
(1339,1040,l),
(939,1040,l),
(789,482,ls),
(776,434,o),
(753,394,o),
(721,369,cs),
(688,344,o),
(647,331,o),
(598,331,cs),
(549,331,o),
(522,344,o),
(510,369,c),
(497,393,o),
(500,433,o),
(509,482,c),
(659,1040,l),
(259,1040,l),
(95,428,ls),
(58,284,o),
(72,168,o),
(124,91,cs),
(175,14,o),
(270,-30,o),
(395,-30,cs)
);
}
);
width = 1326;
},
{
layerId = "87D444F7-2C21-4B59-A154-9C48869C513F";
shapes = (
{
closed = 1;
nodes = (
(478,-30,o),
(544,-14,o),
(604,14,cs),
(664,42,o),
(715,83,o),
(759,132,c),
(725,0,l),
(951,0,l),
(1220,1000,l),
(964,1000,l),
(812,436,ls),
(792,360,o),
(754,302,o),
(705,263,cs),
(656,223,o),
(596,203,o),
(532,203,cs),
(464,203,o),
(419,221,o),
(392,257,c),
(364,292,o),
(358,346,o),
(373,415,c),
(530,1000,l),
(274,1000,l),
(105,371,ls),
(74,250,o),
(93,148,o),
(146,79,cs),
(199,10,o),
(289,-30,o),
(405,-30,cs)
);
}
);
width = 1234;
},
{
layerId = "053D553B-8824-4E8E-8E3D-8C773BB81ED6";
shapes = (
{
closed = 1;
nodes = (
(475,-30,o),
(533,-19,o),
(594,5,cs),
(654,29,o),
(710,66,o),
(762,119,c),
(732,0,l),
(844,0,l),
(1101,960,l),
(989,960,l),
(835,390,ls),
(808,290,o),
(758,209,o),
(690,157,cs),
(622,104,o),
(547,76,o),
(467,76,cs),
(382,76,o),
(315,100,o),
(274,145,cs),
(233,190,o),
(218,260,o),
(237,348,c),
(401,960,l),
(289,960,l),
(116,314,ls),
(91,214,o),
(113,128,o),
(169,68,cs),
(225,7,o),
(311,-30,o),
(415,-30,cs)
);
}
);
width = 1142;
}
);
leftKerningGroup = u2;
rightKerningGroup = u;
unicode = 117;
},
{
glyphname = v;
layers = (
{
layerId = "E5A1D094-7979-46BB-98CB-6CA2CEC0290A";
shapes = (
{
closed = 1;
nodes = (
(692,0,l),
(1308,1040,l),
(872,1040,l),
(469,250,l),
(564,231,l),
(570,1040,l),
(151,1040,l),
(224,0,l)
);
}
);
width = 1178;
},
{
layerId = "87D444F7-2C21-4B59-A154-9C48869C513F";
shapes = (
{
closed = 1;
nodes = (
(553,0,l),
(1179,1000,l),
(894,1000,l),
(412,168,l),
(477,155,l),
(434,1000,l),
(162,1000,l),
(257,0,l)
);
}
);
width = 1072;
},
{
layerId = "053D553B-8824-4E8E-8E3D-8C773BB81ED6";
shapes = (
{
closed = 1;
nodes = (
(415,0,l),
(1050,960,l),
(916,960,l),
(356,86,l),
(390,80,l),
(299,960,l),
(174,960,l),
(291,0,l)
);
}
);
width = 966;
}
);
leftKerningGroup = v2;
rightKerningGroup = v;
unicode = 118;
},
{
glyphname = w;
layers = (
{
layerId = "E5A1D094-7979-46BB-98CB-6CA2CEC0290A";
shapes = (
{
closed = 1;
nodes = (
(563,0,l),
(870,544,l),
(868,0,l),
(1258,0,l),
(1850,1040,l),
(1456,1040,l),
(1177,476,l),
(1173,1040,l),
(815,1040,l),
(497,469,l),
(517,1040,l),
(147,1040,l),
(168,0,l)
);
}
);
width = 1716;
},
{
layerId = "87D444F7-2C21-4B59-A154-9C48869C513F";
shapes = (
{
closed = 1;
nodes = (
(459,0,l),
(854,673,l),
(873,0,l),
(1132,0,l),
(1718,1000,l),
(1461,1000,l),
(1076,308,l),
(1061,1000,l),
(818,1000,l),
(409,302,l),
(403,1000,l),
(158,1000,l),
(196,0,l)
);
}
);
width = 1607;
},
{
layerId = "053D553B-8824-4E8E-8E3D-8C773BB81ED6";
shapes = (
{
closed = 1;
nodes = (
(356,0,l),
(839,803,l),
(879,0,l),
(1007,0,l),
(1586,960,l),
(1466,960,l),
(976,140,l),
(949,960,l),
(821,960,l),
(322,136,l),
(289,960,l),
(170,960,l),
(225,0,l)
);
}
);
width = 1498;
}
);
leftKerningGroup = v2;
rightKerningGroup = v;
unicode = 119;
},
{
glyphname = x;
layers = (
{
layerId = "E5A1D094-7979-46BB-98CB-6CA2CEC0290A";
shapes = (
{
closed = 1;
nodes = (
(387,0,l),
(601,248,l),
(694,0,l),
(1183,0,l),
(944,493,l),
(1436,1040,l),
(913,1040,l),
(723,776,l),
(649,1040,l),
(169,1040,l),
(388,527,l),
(-123,2,l)
);
}
);
width = 1340;
},
{
layerId = "87D444F7-2C21-4B59-A154-9C48869C513F";
shapes = (
{
closed = 1;
nodes = (
(218,0,l),
(520,328,l),
(654,0,l),
(967,0,l),
(738,493,l),
(1205,1000,l),
(873,1000,l),
(602,679,l),
(483,1000,l),
(176,1000,l),
(390,512,l),
(-109,1,l)
);
}
);
width = 1127;
},
{
layerId = "053D553B-8824-4E8E-8E3D-8C773BB81ED6";
shapes = (
{
closed = 1;
nodes = (
(49,1,l),
(440,408,l),
(615,0,l),
(752,0,l),
(533,494,l),
(974,960,l),
(834,960,l),
(481,582,l),
(317,960,l),
(184,960,l),
(392,498,l),
(-95,1,l)
);
}
);
width = 914;
}
);
leftKerningGroup = x2;
rightKerningGroup = x;
unicode = 120;
},
{
glyphname = y;
layers = (
{
layerId = "E5A1D094-7979-46BB-98CB-6CA2CEC0290A";
shapes = (
{
closed = 1;
nodes = (
(218,-450,o),
(309,-431,o),
(398,-379,cs),
(487,-327,o),
(571,-247,o),
(647,-127,cs),
(1376,1040,l),
(925,1040,l),
(586,402,l),
(567,1040,l),
(142,1040,l),
(266,28,l),
(240,-30,l),
(227,-53,o),
(207,-66,o),
(186,-75,cs),
(165,-84,o),
(140,-88,o),
(115,-88,cs),
(63,-88,o),
(8,-70,o),
(-40,-46,c),
(-203,-368,l),
(-162,-396,o),
(-111,-415,o),
(-55,-430,cs),
(1,-445,o),
(65,-450,o),
(126,-450,cs)
);
}
);
width = 1236;
},
{
layerId = "87D444F7-2C21-4B59-A154-9C48869C513F";
shapes = (
{
closed = 1;
nodes = (
(148,-450,o),
(218,-433,o),
(290,-389,cs),
(362,-344,o),
(427,-273,o),
(495,-168,c),
(1216,1000,l),
(929,1000,l),
(494,244,l),
(432,1000,l),
(158,1000,l),
(284,-19,l),
(236,-110,l),
(215,-146,o),
(191,-172,o),
(164,-189,cs),
(136,-206,o),
(104,-215,o),
(67,-215,cs),
(14,-215,o),
(-45,-195,o),
(-89,-158,c),
(-198,-369,l),
(-158,-401,o),
(-115,-421,o),
(-70,-434,cs),
(-25,-446,o),
(24,-450,o),
(72,-450,cs)
);
}
);
width = 1100;
},
{
layerId = "053D553B-8824-4E8E-8E3D-8C773BB81ED6";
shapes = (
{
closed = 1;
nodes = (
(78,-449,o),
(130,-437,o),
(183,-398,cs),
(235,-359,o),
(287,-301,o),
(344,-209,cs),
(1057,960,l),
(933,960,l),
(403,87,l),
(298,960,l),
(175,960,l),
(303,-65,l),
(233,-190,l),
(204,-239,o),
(174,-277,o),
(141,-302,cs),
(108,-327,o),
(68,-342,o),
(20,-342,cs),
(-36,-342,o),
(-97,-320,o),
(-138,-269,c),
(-193,-369,l),
(-153,-406,o),
(-120,-426,o),
(-85,-438,cs),
(-50,-449,o),
(-15,-449,o),
(18,-449,cs)
);
}
);
width = 964;
}
);
leftKerningGroup = y;
rightKerningGroup = v;
unicode = 121;
},
{
glyphname = z;
layers = (
{
layerId = "E5A1D094-7979-46BB-98CB-6CA2CEC0290A";
shapes = (
{
closed = 1;
nodes = (
(851,0,l),
(945,350,l),
(580,350,l),
(1054,781,l),
(1123,1040,l),
(239,1040,l),
(145,690,l),
(514,690,l),
(10,263,l),
(-59,0,l)
);
}
);
width = 1070;
},
{
layerId = "87D444F7-2C21-4B59-A154-9C48869C513F";
shapes = (
{
closed = 1;
nodes = (
(772,0,l),
(833,227,l),
(361,227,l),
(986,821,l),
(1033,1000,l),
(237,1000,l),
(176,773,l),
(643,773,l),
(3,181,l),
(-44,0,l)
);
}
);
width = 996;
},
{
layerId = "053D553B-8824-4E8E-8E3D-8C773BB81ED6";
shapes = (
{
closed = 1;
nodes = (
(693,0,l),
(721,104,l),
(143,104,l),
(919,862,l),
(944,960,l),
(236,960,l),
(208,856,l),
(772,856,l),
(-4,99,l),
(-29,0,l)
);
}
);
width = 922;
}
);
leftKerningGroup = z2;
rightKerningGroup = z;
unicode = 122;
},
{
glyphname = braceleft;
layers = (
{
layerId = "E5A1D094-7979-46BB-98CB-6CA2CEC0290A";
shapes = (
{
closed = 1;
nodes = (
(524,40,l),
(463,39,o),
(422,46,o),
(402,67,cs),
(382,87,o),
(383,120,o),
(403,164,cs),
(533,442,l),
(561,506,o),
(567,562,o),
(550,605,cs),
(533,648,o),
(492,677,o),
(428,690,c),
(428,692,l),
(497,703,o),
(553,733,o),
(593,776,cs),
(632,819,o),
(657,874,o),
(661,938,c),
(687,1216,ls),
(692,1264,o),
(707,1297,o),
(739,1317,cs),
(770,1336,o),
(814,1344,o),
(874,1340,c),
(946,1606,l),
(763,1622,o),
(626,1595,o),
(529,1527,cs),
(432,1459,o),
(379,1349,o),
(363,1188,cs),
(342,948,ls),
(338,904,o),
(324,872,o),
(293,852,cs),
(261,832,o),
(211,824,o),
(135,824,c),
(64,558,l),
(140,558,o),
(186,550,o),
(207,531,cs),
(227,512,o),
(226,482,o),
(206,434,c),
(95,190,ls),
(26,33,o),
(20,-77,o),
(81,-145,cs),
(141,-213,o),
(263,-239,o),
(455,-226,c)
);
}
);
width = 732;
},
{
layerId = "87D444F7-2C21-4B59-A154-9C48869C513F";
shapes = (
{
closed = 1;
nodes = (
(441,-44,l),
(373,-48,o),
(330,-41,o),
(310,-20,cs),
(289,1,o),
(290,36,o),
(310,85,cs),
(464,452,ls),
(492,520,o),
(500,574,o),
(487,614,cs),
(474,653,o),
(437,678,o),
(380,690,c),
(380,692,l),
(444,703,o),
(491,728,o),
(526,768,cs),
(561,807,o),
(582,861,o),
(589,929,c),
(637,1295,ls),
(644,1346,o),
(660,1381,o),
(692,1402,cs),
(724,1422,o),
(771,1429,o),
(836,1424,c),
(885,1605,l),
(745,1621,o),
(638,1599,o),
(558,1546,cs),
(478,1493,o),
(434,1405,o),
(419,1284,cs),
(375,926,ls),
(368,870,o),
(355,835,o),
(324,812,cs),
(292,789,o),
(244,782,o),
(164,782,c),
(116,601,l),
(196,601,o),
(240,593,o),
(260,572,cs),
(279,551,o),
(273,516,o),
(249,456,cs),
(98,93,ls),
(47,-27,o),
(46,-113,o),
(97,-166,cs),
(148,-219,o),
(245,-240,o),
(394,-225,c)
);
}
);
width = 699;
},
{
layerId = "053D553B-8824-4E8E-8E3D-8C773BB81ED6";
shapes = (
{
closed = 1;
nodes = (
(358,-128,l),
(285,-133,o),
(241,-129,o),
(218,-106,cs),
(195,-83,o),
(197,-47,o),
(217,6,cs),
(395,462,ls),
(423,534,o),
(433,587,o),
(424,623,cs),
(415,659,o),
(384,679,o),
(333,690,c),
(333,692,l),
(389,703,o),
(431,724,o),
(460,761,cs),
(489,797,o),
(508,848,o),
(517,920,c),
(587,1374,ls),
(596,1430,o),
(613,1466,o),
(646,1487,cs),
(679,1508,o),
(729,1515,o),
(798,1508,c),
(825,1604,l),
(729,1621,o),
(648,1605,o),
(588,1566,cs),
(527,1527,o),
(490,1464,o),
(475,1380,c),
(409,904,l),
(398,836,o),
(386,796,o),
(355,772,cs),
(324,747,o),
(277,740,o),
(193,740,c),
(168,644,l),
(252,644,o),
(296,637,o),
(313,614,cs),
(330,590,o),
(321,550,o),
(293,478,cs),
(101,-4,ls),
(70,-84,o),
(74,-147,o),
(114,-186,cs),
(153,-225,o),
(225,-239,o),
(334,-224,c)
);
}
);
width = 666;
}
);
rightKerningGroup = parenleft;
unicode = 123;
},
{
glyphname = bar;
layers = (
{
layerId = "E5A1D094-7979-46BB-98CB-6CA2CEC0290A";
shapes = (
{
closed = 1;
nodes = (
(321,-220,l),
(812,1600,l),
(492,1600,l),
(1,-220,l)
);
}
);
width = 720;
},
{
layerId = "87D444F7-2C21-4B59-A154-9C48869C513F";
shapes = (
{
closed = 1;
nodes = (
(216,-220,l),
(707,1600,l),
(497,1600,l),
(6,-220,l)
);
}
);
width = 610;
},
{
layerId = "053D553B-8824-4E8E-8E3D-8C773BB81ED6";
shapes = (
{
closed = 1;
nodes = (
(111,-220,l),
(602,1600,l),
(502,1600,l),
(11,-220,l)
);
}
);
width = 500;
}
);
leftKerningGroup = bar2;
rightKerningGroup = bar;
unicode = 124;
},
{
glyphname = braceright;
layers = (
{
layerId = "E5A1D094-7979-46BB-98CB-6CA2CEC0290A";
shapes = (
{
closed = 1;
nodes = (
(-135,-226,l),
(48,-239,o),
(186,-213,o),
(283,-145,cs),
(380,-77,o),
(434,33,o),
(449,190,cs),
(471,434,l),
(474,482,o),
(489,512,o),
(521,531,cs),
(553,550,o),
(602,558,o),
(678,558,c),
(751,824,l),
(675,824,o),
(631,832,o),
(608,852,cs),
(585,872,o),
(589,904,o),
(610,948,c),
(716,1188,ls),
(788,1349,o),
(793,1459,o),
(733,1527,cs),
(673,1595,o),
(551,1622,o),
(360,1606,c),
(288,1340,l),
(349,1344,o),
(391,1336,o),
(411,1317,cs),
(431,1297,o),
(429,1264,o),
(409,1216,c),
(284,938,l),
(223,810,o),
(260,715,o),
(387,692,c),
(384,690,l),
(315,677,o),
(257,648,o),
(217,605,cs),
(177,562,o),
(150,506,o),
(145,442,cs),
(124,164,ls),
(120,120,o),
(106,87,o),
(75,67,cs),
(44,46,o),
(-2,39,o),
(-62,40,c)
);
}
);
width = 732;
},
{
layerId = "87D444F7-2C21-4B59-A154-9C48869C513F";
shapes = (
{
closed = 1;
nodes = (
(-95,-225,l),
(46,-240,o),
(154,-219,o),
(234,-166,cs),
(314,-113,o),
(359,-27,o),
(372,93,cs),
(417,456,l),
(422,516,o),
(436,551,o),
(468,572,cs),
(499,593,o),
(547,601,o),
(627,601,c),
(677,782,l),
(597,782,o),
(553,789,o),
(533,812,cs),
(513,835,o),
(519,870,o),
(543,926,cs),
(691,1284,ls),
(743,1405,o),
(742,1493,o),
(693,1546,cs),
(644,1599,o),
(546,1621,o),
(398,1605,c),
(349,1424,l),
(417,1429,o),
(461,1422,o),
(482,1402,c),
(502,1381,o),
(500,1346,o),
(480,1295,cs),
(330,929,l),
(270,793,o),
(298,713,o),
(413,692,c),
(410,690,l),
(346,678,o),
(297,653,o),
(262,614,cs),
(227,574,o),
(206,520,o),
(198,452,cs),
(154,85,l),
(147,36,o),
(131,1,o),
(99,-20,cs),
(67,-41,o),
(19,-48,o),
(-46,-44,c)
);
}
);
width = 699;
},
{
layerId = "053D553B-8824-4E8E-8E3D-8C773BB81ED6";
shapes = (
{
closed = 1;
nodes = (
(-54,-224,l),
(43,-239,o),
(125,-225,o),
(186,-186,cs),
(246,-147,o),
(283,-84,o),
(296,-4,c),
(364,478,l),
(371,550,o),
(384,590,o),
(415,614,cs),
(446,637,o),
(493,644,o),
(577,644,c),
(604,740,l),
(520,740,o),
(479,747,o),
(460,772,cs),
(441,796,o),
(450,836,o),
(477,904,cs),
(666,1380,ls),
(699,1464,o),
(692,1527,o),
(653,1566,cs),
(614,1605,o),
(540,1621,o),
(436,1604,c),
(411,1508,l),
(484,1515,o),
(532,1508,o),
(553,1487,cs),
(574,1466,o),
(572,1430,o),
(552,1374,c),
(376,920,l),
(317,777,o),
(338,712,o),
(439,692,c),
(436,690,l),
(379,679,o),
(336,659,o),
(308,623,cs),
(279,587,o),
(261,534,o),
(252,462,c),
(184,6,l),
(175,-47,o),
(159,-83,o),
(124,-106,cs),
(89,-129,o),
(40,-133,o),
(-29,-128,c)
);
}
);
width = 666;
}
);
leftKerningGroup = parenright;
unicode = 125;
},
{
glyphname = asciitilde;
layers = (
{
layerId = "E5A1D094-7979-46BB-98CB-6CA2CEC0290A";
shapes = (
{
closed = 1;
nodes = (
(1053,460,o),
(1179,519,o),
(1295,639,c),
(1210,874,l),
(1122,778,o),
(1039,732,o),
(955,732,cs),
(891,732,o),
(811,769,o),
(726,806,cs),
(641,843,o),
(550,880,o),
(461,880,cs),
(340,880,o),
(222,819,o),
(109,702,c),
(194,466,l),
(278,562,o),
(363,608,o),
(448,608,cs),
(519,608,o),
(583,571,o),
(659,534,cs),
(734,497,o),
(817,460,o),
(928,460,cs)
);
}
);
width = 1296;
},
{
layerId = "87D444F7-2C21-4B59-A154-9C48869C513F";
shapes = (
{
closed = 1;
nodes = (
(1031,500,o),
(1143,551,o),
(1248,660,c),
(1189,818,l),
(1105,729,o),
(1021,684,o),
(944,684,cs),
(880,684,o),
(810,721,o),
(731,758,cs),
(652,795,o),
(569,832,o),
(480,832,cs),
(372,832,o),
(264,779,o),
(159,670,c),
(223,518,l),
(300,602,o),
(389,648,o),
(466,648,cs),
(533,648,o),
(598,611,o),
(671,574,cs),
(744,537,o),
(824,500,o),
(923,500,cs)
);
}
);
width = 1296;
},
{
layerId = "053D553B-8824-4E8E-8E3D-8C773BB81ED6";
shapes = (
{
closed = 1;
nodes = (
(1007,540,o),
(1106,581,o),
(1202,682,c),
(1169,762,l),
(1088,678,o),
(1005,636,o),
(933,636,cs),
(869,636,o),
(807,673,o),
(735,710,cs),
(663,747,o),
(588,784,o),
(499,784,cs),
(407,784,o),
(307,742,o),
(210,638,c),
(253,570,l),
(325,643,o),
(413,688,o),
(485,688,cs),
(546,688,o),
(612,651,o),
(684,614,cs),
(756,577,o),
(831,540,o),
(919,540,cs)
);
}
);
width = 1296;
}
);
leftKerningGroup = plus2;
rightKerningGroup = plus;
unicode = 126;
},
{
glyphname = exclamdown;
layers = (
{
layerId = "E5A1D094-7979-46BB-98CB-6CA2CEC0290A";
shapes = (
{
closed = 1;
nodes = (
(364,-420,l),
(548,504,l),
(184,504,l),
(-128,-420,l)
);
},
{
closed = 1;
nodes = (
(492,624,o),
(557,649,o),
(606,694,cs),
(654,738,o),
(687,803,o),
(687,883,cs),
(687,943,o),
(663,988,o),
(624,1020,cs),
(585,1052,o),
(533,1070,o),
(476,1070,cs),
(408,1070,o),
(343,1048,o),
(294,1004,cs),
(245,960,o),
(212,897,o),
(212,813,cs),
(212,756,o),
(236,708,o),
(273,676,cs),
(310,644,o),
(364,624,o),
(424,624,cs)
);
}
);
width = 720;
},
{
layerId = "87D444F7-2C21-4B59-A154-9C48869C513F";
shapes = (
{
closed = 1;
nodes = (
(245,-420,l),
(456,517,l),
(230,517,l),
(-63,-420,l)
);
},
{
closed = 1;
nodes = (
(466,708,o),
(514,727,o),
(550,760,cs),
(586,792,o),
(610,840,o),
(610,897,cs),
(610,940,o),
(593,973,o),
(565,997,cs),
(537,1021,o),
(499,1035,o),
(456,1035,cs),
(405,1035,o),
(357,1018,o),
(321,986,cs),
(284,953,o),
(260,907,o),
(260,847,cs),
(260,806,o),
(277,771,o),
(305,747,cs),
(332,723,o),
(371,708,o),
(415,708,cs)
);
}
);
width = 680;
},
{
layerId = "053D553B-8824-4E8E-8E3D-8C773BB81ED6";
shapes = (
{
closed = 1;
nodes = (
(136,-420,l),
(370,530,l),
(271,530,l),
(-3,-420,l)
);
},
{
closed = 1;
nodes = (
(441,792,o),
(471,806,o),
(495,827,cs),
(518,847,o),
(534,878,o),
(534,911,cs),
(534,938,o),
(523,958,o),
(506,974,cs),
(489,990,o),
(464,1000,o),
(437,1000,cs),
(402,1000,o),
(372,989,o),
(348,968,cs),
(324,947,o),
(309,917,o),
(309,881,cs),
(309,856,o),
(320,834,o),
(337,819,c),
(353,803,o),
(378,792,o),
(406,792,cs)
);
}
);
width = 640;
}
);
leftKerningGroup = colon2;
rightKerningGroup = colon;
unicode = 161;
},
{
glyphname = cent;
layers = (
{
layerId = "E5A1D094-7979-46BB-98CB-6CA2CEC0290A";
shapes = (
{
closed = 1;
nodes = (
(623,-160,l),
(658,1,l),
(747,5,o),
(844,23,o),
(918,64,c),
(901,363,l),
(844,335,o),
(805,326,o),
(744,321,c),
(836,696,l),
(866,688,o),
(897,675,o),
(929,649,c),
(1108,889,l),
(1067,937,o),
(992,984,o),
(908,1007,c),
(957,1200,l),
(711,1200,l),
(674,1037,l),
(384,1012,o),
(148,760,o),
(148,439,cs),
(148,243,o),
(251,89,o),
(423,30,c),
(377,-160,l)
);
},
{
closed = 1;
nodes = (
(502,352,l),
(459,376,o),
(438,425,o),
(438,487,cs),
(438,575,o),
(496,702,o),
(588,707,c)
);
}
);
width = 1200;
},
{
layerId = "87D444F7-2C21-4B59-A154-9C48869C513F";
shapes = (
{
closed = 1;
nodes = (
(584,-160,l),
(619,0,l),
(723,0,o),
(823,26,o),
(912,83,c),
(872,270,l),
(810,229,o),
(746,209,o),
(672,209,c),
(815,772,l),
(859,763,o),
(898,742,o),
(934,709,c),
(1065,864,l),
(1013,920,o),
(946,957,o),
(862,976,c),
(909,1160,l),
(736,1160,l),
(699,994,l),
(412,979,o),
(176,736,o),
(176,419,cs),
(176,224,o),
(283,73,o),
(455,22,c),
(411,-160,l)
);
},
{
closed = 1;
nodes = (
(505,232,l),
(419,263,o),
(374,336,o),
(374,444,cs),
(374,613,o),
(475,780,o),
(642,782,c)
);
}
);
width = 1200;
},
{
layerId = "053D553B-8824-4E8E-8E3D-8C773BB81ED6";
shapes = (
{
closed = 1;
nodes = (
(545,-160,l),
(585,0,l),
(707,0,o),
(802,30,o),
(906,101,c),
(843,178,l),
(772,117,o),
(696,98,o),
(605,98,c),
(793,848,l),
(853,839,o),
(897,812,o),
(940,770,c),
(1022,839,l),
(964,900,o),
(903,931,o),
(816,945,c),
(861,1120,l),
(762,1120,l),
(724,952,l),
(442,946,o),
(205,713,o),
(205,399,cs),
(205,205,o),
(318,59,o),
(490,14,c),
(446,-160,l)
);
},
{
closed = 1;
nodes = (
(511,111,l),
(378,150,o),
(309,248,o),
(309,401,cs),
(309,656,o),
(453,855,o),
(697,857,c)
);
}
);
width = 1200;
}
);
unicode = 162;
},
{
glyphname = sterling;
layers = (
{
layerId = "E5A1D094-7979-46BB-98CB-6CA2CEC0290A";
shapes = (
{
closed = 1;
nodes = (
(1010,0,l),
(1085,298,l),
(561,298,l),
(614,369,o),
(654,467,o),
(654,560,cs),
(654,620,o),
(660,680,o),
(665,740,c),
(665,788,o),
(675,837,o),
(675,886,cs),
(675,1008,o),
(724,1124,o),
(866,1124,cs),
(945,1124,o),
(1026,1097,o),
(1111,1015,c),
(1291,1251,l),
(1210,1378,o),
(1004,1426,o),
(872,1426,cs),
(593,1426,o),
(332,1257,o),
(332,926,cs),
(332,855,o),
(335,785,o),
(337,714,cs),
(339,641,o),
(340,573,o),
(340,530,cs),
(340,330,o),
(205,306,o),
(53,295,c),
(-17,0,l)
);
},
{
closed = 1;
nodes = (
(954,560,l),
(1014,810,l),
(164,810,l),
(104,560,l)
);
}
);
width = 1200;
},
{
layerId = "87D444F7-2C21-4B59-A154-9C48869C513F";
shapes = (
{
closed = 1;
nodes = (
(980,0,l),
(1031,201,l),
(439,201,l),
(537,282,o),
(588,387,o),
(588,521,cs),
(588,587,o),
(595,659,o),
(600,731,c),
(606,799,o),
(610,867,o),
(610,936,cs),
(610,1104,o),
(701,1224,o),
(861,1224,cs),
(959,1224,o),
(1045,1192,o),
(1127,1106,c),
(1254,1267,l),
(1161,1384,o),
(1002,1428,o),
(865,1428,cs),
(603,1428,o),
(382,1253,o),
(382,952,cs),
(382,887,o),
(383,821,o),
(383,755,cs),
(383,665,o),
(385,574,o),
(382,484,cs),
(376,289,o),
(240,237,o),
(73,200,c),
(25,0,l)
);
},
{
closed = 1;
nodes = (
(969,599,l),
(1010,774,l),
(196,774,l),
(155,599,l)
);
}
);
width = 1200;
},
{
layerId = "053D553B-8824-4E8E-8E3D-8C773BB81ED6";
shapes = (
{
closed = 1;
nodes = (
(951,0,l),
(977,104,l),
(318,104,l),
(458,197,o),
(523,304,o),
(523,483,cs),
(523,563,o),
(528,644,o),
(536,723,c),
(541,803,o),
(547,883,o),
(547,964,cs),
(547,1173,o),
(654,1325,o),
(855,1325,cs),
(975,1325,o),
(1066,1287,o),
(1146,1197,c),
(1217,1283,l),
(1126,1389,o),
(989,1431,o),
(860,1431,cs),
(614,1431,o),
(433,1249,o),
(433,978,cs),
(433,898,o),
(434,819,o),
(431,739,cs),
(428,660,o),
(426,583,o),
(426,502,cs),
(426,256,o),
(293,169,o),
(93,107,c),
(67,0,l)
);
},
{
closed = 1;
nodes = (
(984,638,l),
(1007,738,l),
(228,738,l),
(205,638,l)
);
}
);
width = 1200;
}
);
unicode = 163;
},
{
glyphname = currency;
layers = (
{
layerId = "E5A1D094-7979-46BB-98CB-6CA2CEC0290A";
shapes = (
{
closed = 1;
nodes = (
(390,218,l),
(446,182,o),
(505,170,o),
(575,170,cs),
(642,170,o),
(698,187,o),
(759,221,c),
(885,63,l),
(1099,264,l),
(980,417,l),
(1029,498,o),
(1055,573,o),
(1055,674,cs),
(1055,726,o),
(1045,782,o),
(1027,829,c),
(1188,981,l),
(1027,1181,l),
(864,1027,l),
(809,1062,o),
(751,1074,o),
(681,1074,cs),
(615,1074,o),
(557,1056,o),
(496,1023,c),
(368,1181,l),
(156,981,l),
(276,830,l),
(232,756,o),
(200,672,o),
(200,569,cs),
(200,519,o),
(206,467,o),
(225,418,c),
(67,265,l),
(227,63,l)
);
},
{
closed = 1;
nodes = (
(533,456,o),
(476,512,o),
(476,596,cs),
(476,698,o),
(549,786,o),
(644,786,cs),
(724,786,o),
(779,734,o),
(779,645,cs),
(779,543,o),
(705,456,o),
(609,456,cs)
);
}
);
width = 1200;
},
{
layerId = "87D444F7-2C21-4B59-A154-9C48869C513F";
shapes = (
{
closed = 1;
nodes = (
(384,262,l),
(442,217,o),
(506,198,o),
(581,198,cs),
(651,198,o),
(721,220,o),
(787,265,c),
(911,108,l),
(1058,247,l),
(938,399,l),
(999,480,o),
(1033,568,o),
(1033,671,cs),
(1033,730,o),
(1020,790,o),
(993,843,c),
(1153,994,l),
(1040,1135,l),
(881,983,l),
(825,1027,o),
(759,1045,o),
(685,1045,cs),
(615,1045,o),
(545,1023,o),
(476,978,c),
(352,1135,l),
(205,997,l),
(326,845,l),
(270,768,o),
(233,680,o),
(233,568,cs),
(233,511,o),
(243,454,o),
(270,401,c),
(111,249,l),
(223,108,l)
);
},
{
closed = 1;
nodes = (
(500,391,o),
(420,468,o),
(420,588,cs),
(420,729,o),
(527,851,o),
(658,851,cs),
(768,851,o),
(845,775,o),
(845,654,cs),
(845,511,o),
(742,391,o),
(608,391,cs)
);
}
);
width = 1200;
},
{
layerId = "053D553B-8824-4E8E-8E3D-8C773BB81ED6";
shapes = (
{
closed = 1;
nodes = (
(379,306,l),
(437,252,o),
(505,226,o),
(586,226,cs),
(664,226,o),
(742,251,o),
(815,308,c),
(937,153,l),
(1018,230,l),
(897,381,l),
(968,459,o),
(1010,562,o),
(1010,669,cs),
(1010,736,o),
(997,799,o),
(959,857,c),
(1119,1008,l),
(1053,1089,l),
(896,940,l),
(840,992,o),
(770,1016,o),
(689,1016,cs),
(612,1016,o),
(534,991,o),
(458,933,c),
(335,1089,l),
(256,1014,l),
(377,861,l),
(309,784,o),
(267,687,o),
(267,567,cs),
(267,504,o),
(279,442,o),
(317,385,c),
(155,234,l),
(219,153,l)
);
},
{
closed = 1;
nodes = (
(470,326,o),
(364,427,o),
(364,581,cs),
(364,762,o),
(506,916,o),
(673,916,cs),
(814,916,o),
(911,818,o),
(911,663,cs),
(911,480,o),
(779,326,o),
(608,326,cs)
);
}
);
width = 1200;
}
);
unicode = 164;
},
{
glyphname = yen;
layers = (
{
layerId = "E5A1D094-7979-46BB-98CB-6CA2CEC0290A";
shapes = (
{
closed = 1;
nodes = (
(630,0,l),
(689,246,l),
(1019,246,l),
(1074,472,l),
(745,472,l),
(770,584,l),
(1103,584,l),
(1159,810,l),
(922,810,l),
(1432,1400,l),
(1042,1400,l),
(680,941,l),
(565,1400,l),
(206,1400,l),
(398,810,l),
(156,810,l),
(101,584,l),
(428,584,l),
(402,472,l),
(71,472,l),
(16,246,l),
(343,246,l),
(284,0,l)
);
}
);
width = 1200;
},
{
layerId = "87D444F7-2C21-4B59-A154-9C48869C513F";
shapes = (
{
closed = 1;
nodes = (
(581,0,l),
(649,282,l),
(995,282,l),
(1035,445,l),
(689,445,l),
(730,605,l),
(1076,605,l),
(1116,768,l),
(849,768,l),
(1389,1400,l),
(1130,1400,l),
(668,840,l),
(503,1400,l),
(264,1400,l),
(466,768,l),
(197,768,l),
(157,605,l),
(502,605,l),
(461,445,l),
(116,445,l),
(76,282,l),
(421,282,l),
(353,0,l)
);
}
);
width = 1200;
},
{
layerId = "053D553B-8824-4E8E-8E3D-8C773BB81ED6";
shapes = (
{
closed = 1;
nodes = (
(533,0,l),
(609,318,l),
(972,318,l),
(997,418,l),
(634,418,l),
(687,626,l),
(1049,626,l),
(1075,726,l),
(777,726,l),
(1346,1400,l),
(1219,1400,l),
(657,739,l),
(441,1400,l),
(322,1400,l),
(535,726,l),
(240,726,l),
(214,626,l),
(576,626,l),
(524,418,l),
(161,418,l),
(136,318,l),
(499,318,l),
(423,0,l)
);
}
);
width = 1200;
}
);
unicode = 165;
},
{
glyphname = brokenbar;
layers = (
{
layerId = "E5A1D094-7979-46BB-98CB-6CA2CEC0290A";
shapes = (
{
closed = 1;
nodes = (
(599,810,l),
(779,1480,l),
(459,1480,l),
(279,810,l)
);
},
{
closed = 1;
nodes = (
(354,-100,l),
(533,570,l),
(213,570,l),
(34,-100,l)
);
}
);
width = 720;
},
{
layerId = "87D444F7-2C21-4B59-A154-9C48869C513F";
shapes = (
{
closed = 1;
nodes = (
(494,810,l),
(674,1480,l),
(464,1480,l),
(284,810,l)
);
},
{
closed = 1;
nodes = (
(249,-100,l),
(428,570,l),
(218,570,l),
(39,-100,l)
);
}
);
width = 610;
},
{
layerId = "053D553B-8824-4E8E-8E3D-8C773BB81ED6";
shapes = (
{
closed = 1;
nodes = (
(389,810,l),
(569,1480,l),
(469,1480,l),
(289,810,l)
);
},
{
closed = 1;
nodes = (
(145,-100,l),
(323,570,l),
(223,570,l),
(45,-100,l)
);
}
);
width = 500;
}
);
leftKerningGroup = bar2;
rightKerningGroup = bar;
unicode = 166;
},
{
glyphname = section;
layers = (
{
layerId = "E5A1D094-7979-46BB-98CB-6CA2CEC0290A";
shapes = (
{
closed = 1;
nodes = (
(607,-450,o),
(744,-409,o),
(848,-332,cs),
(952,-255,o),
(1016,-141,o),
(1016,3,cs),
(1016,84,o),
(986,149,o),
(930,204,cs),
(874,259,o),
(787,300,o),
(670,336,c),
(601,355,o),
(546,377,o),
(507,401,cs),
(468,425,o),
(446,453,o),
(446,489,cs),
(446,545,o),
(476,586,o),
(525,613,cs),
(573,640,o),
(638,653,o),
(707,648,c),
(747,854,l),
(659,855,o),
(576,847,o),
(496,831,cs),
(416,814,o),
(347,790,o),
(287,755,cs),
(227,720,o),
(179,677,o),
(144,624,cs),
(109,569,o),
(91,506,o),
(91,433,cs),
(91,344,o),
(131,281,o),
(203,225,cs),
(275,169,o),
(382,126,o),
(519,85,cs),
(583,66,o),
(623,50,o),
(651,30,cs),
(678,10,o),
(687,-11,o),
(687,-34,cs),
(687,-70,o),
(665,-95,o),
(632,-114,cs),
(599,-133,o),
(552,-142,o),
(505,-142,cs),
(433,-142,o),
(362,-129,o),
(294,-102,cs),
(226,-75,o),
(162,-41,o),
(111,0,c),
(-77,-267,l),
(-17,-318,o),
(60,-364,o),
(152,-397,cs),
(244,-429,o),
(349,-450,o),
(458,-450,cs)
);
},
{
closed = 1;
nodes = (
(579,132,l),
(756,133,o),
(918,163,o),
(1039,231,cs),
(1160,299,o),
(1236,403,o),
(1236,556,cs),
(1236,640,o),
(1201,705,o),
(1130,760,cs),
(1059,815,o),
(962,856,o),
(834,893,c),
(761,917,o),
(712,934,o),
(684,953,cs),
(655,972,o),
(643,990,o),
(643,1014,cs),
(643,1055,o),
(664,1082,o),
(696,1099,cs),
(727,1116,o),
(770,1122,o),
(813,1122,cs),
(873,1122,o),
(940,1108,o),
(1008,1084,cs),
(1076,1059,o),
(1137,1025,o),
(1185,980,c),
(1373,1247,l),
(1312,1307,o),
(1232,1350,o),
(1144,1382,cs),
(1055,1414,o),
(956,1430,o),
(859,1430,cs),
(710,1430,o),
(577,1390,o),
(477,1314,cs),
(377,1237,o),
(316,1123,o),
(316,978,cs),
(316,815,o),
(428,714,o),
(648,654,cs),
(728,633,o),
(786,610,o),
(825,586,cs),
(864,562,o),
(883,532,o),
(883,499,cs),
(883,439,o),
(851,398,o),
(803,371,cs),
(754,343,o),
(687,332,o),
(619,337,c)
);
}
);
width = 1320;
},
{
layerId = "87D444F7-2C21-4B59-A154-9C48869C513F";
shapes = (
{
closed = 1;
nodes = (
(567,-450,o),
(694,-411,o),
(787,-339,cs),
(880,-266,o),
(939,-159,o),
(939,-26,cs),
(939,50,o),
(911,110,o),
(859,161,cs),
(807,212,o),
(729,250,o),
(625,286,cs),
(549,311,o),
(489,338,o),
(446,370,cs),
(403,401,o),
(379,439,o),
(379,488,cs),
(379,564,o),
(416,620,o),
(480,657,cs),
(544,694,o),
(628,714,o),
(721,711,c),
(754,858,l),
(678,863,o),
(604,858,o),
(531,842,cs),
(458,826,o),
(394,801,o),
(337,766,cs),
(280,731,o),
(235,687,o),
(200,632,cs),
(165,577,o),
(148,517,o),
(148,445,cs),
(148,365,o),
(181,303,o),
(241,250,cs),
(301,197,o),
(389,153,o),
(505,113,cs),
(582,85,o),
(634,61,o),
(669,34,cs),
(704,6,o),
(718,-23,o),
(718,-59,cs),
(718,-119,o),
(691,-163,o),
(644,-195,cs),
(597,-227,o),
(534,-244,o),
(462,-244,cs),
(393,-244,o),
(322,-232,o),
(258,-205,cs),
(193,-178,o),
(133,-143,o),
(88,-96,c),
(-51,-274,l),
(-2,-322,o),
(67,-366,o),
(151,-398,cs),
(235,-430,o),
(330,-450,o),
(430,-450,cs)
);
},
{
closed = 1;
nodes = (
(561,142,l),
(718,138,o),
(868,172,o),
(977,241,cs),
(1086,310,o),
(1157,417,o),
(1157,558,cs),
(1157,638,o),
(1124,698,o),
(1064,750,cs),
(1004,801,o),
(920,841,o),
(812,877,cs),
(732,905,o),
(677,927,o),
(638,954,cs),
(599,981,o),
(581,1008,o),
(581,1048,cs),
(581,1108,o),
(607,1150,o),
(650,1181,cs),
(693,1212,o),
(750,1225,o),
(814,1225,cs),
(879,1225,o),
(946,1211,o),
(1010,1187,cs),
(1074,1162,o),
(1129,1127,o),
(1172,1080,c),
(1307,1260,l),
(1254,1316,o),
(1185,1357,o),
(1108,1386,cs),
(1031,1415,o),
(945,1430,o),
(853,1430,cs),
(720,1430,o),
(599,1392,o),
(510,1320,cs),
(421,1248,o),
(365,1144,o),
(365,1015,cs),
(365,870,o),
(469,778,o),
(670,710,cs),
(755,681,o),
(817,654,o),
(860,626,cs),
(903,597,o),
(922,564,o),
(922,523,cs),
(922,446,o),
(884,384,o),
(824,343,cs),
(764,302,o),
(681,282,o),
(592,287,c)
);
}
);
width = 1272;
},
{
layerId = "053D553B-8824-4E8E-8E3D-8C773BB81ED6";
shapes = (
{
closed = 1;
nodes = (
(528,-450,o),
(642,-413,o),
(727,-345,cs),
(811,-277,o),
(863,-179,o),
(863,-55,cs),
(863,17,o),
(836,71,o),
(789,118,cs),
(741,165,o),
(669,200,o),
(580,237,c),
(500,268,o),
(433,300,o),
(386,339,cs),
(339,378,o),
(313,423,o),
(313,487,cs),
(313,583,o),
(359,654,o),
(436,702,cs),
(513,749,o),
(619,775,o),
(736,774,c),
(761,862,l),
(697,873,o),
(633,870,o),
(566,855,cs),
(499,839,o),
(440,813,o),
(387,777,cs),
(334,741,o),
(291,697,o),
(256,641,cs),
(221,585,o),
(205,526,o),
(205,458,cs),
(205,386,o),
(232,328,o),
(280,276,cs),
(327,224,o),
(399,180,o),
(492,141,cs),
(584,104,o),
(645,73,o),
(688,38,cs),
(731,2,o),
(749,-35,o),
(749,-83,cs),
(749,-167,o),
(715,-229,o),
(655,-276,cs),
(595,-323,o),
(513,-346,o),
(420,-346,cs),
(351,-346,o),
(283,-334,o),
(222,-307,cs),
(161,-280,o),
(105,-244,o),
(65,-192,c),
(-25,-281,l),
(16,-325,o),
(77,-367,o),
(152,-399,cs),
(227,-430,o),
(311,-450,o),
(403,-450,cs)
);
},
{
closed = 1;
nodes = (
(543,152,l),
(684,144,o),
(816,180,o),
(916,252,cs),
(1016,324,o),
(1079,428,o),
(1079,561,cs),
(1079,634,o),
(1050,691,o),
(999,740,cs),
(948,788,o),
(878,826,o),
(790,861,cs),
(706,894,o),
(639,922,o),
(592,955,cs),
(545,988,o),
(520,1026,o),
(520,1082,cs),
(520,1159,o),
(552,1219,o),
(604,1263,cs),
(656,1306,o),
(731,1328,o),
(816,1328,cs),
(888,1328,o),
(953,1314,o),
(1013,1290,cs),
(1073,1265,o),
(1122,1229,o),
(1159,1180,c),
(1241,1273,l),
(1196,1325,o),
(1140,1363,o),
(1073,1391,cs),
(1006,1418,o),
(932,1430,o),
(848,1430,cs),
(731,1430,o),
(624,1394,o),
(544,1327,cs),
(464,1260,o),
(415,1168,o),
(415,1052,cs),
(415,924,o),
(511,842,o),
(692,766,cs),
(784,729,o),
(849,698,o),
(894,666,cs),
(939,633,o),
(961,596,o),
(961,548,cs),
(961,451,o),
(918,372,o),
(846,316,cs),
(774,260,o),
(677,233,o),
(565,238,c)
);
}
);
width = 1225;
}
);
unicode = 167;
},
{
glyphname = copyright;
layers = (
{
layerId = "E5A1D094-7979-46BB-98CB-6CA2CEC0290A";
shapes = (
{
closed = 1;
nodes = (
(1047,-48,o),
(1230,30,o),
(1363,162,cs),
(1496,294,o),
(1576,474,o),
(1576,682,cs),
(1576,887,o),
(1496,1067,o),
(1363,1200,cs),
(1230,1333,o),
(1047,1412,o),
(838,1412,cs),
(629,1412,o),
(446,1335,o),
(313,1203,cs),
(180,1071,o),
(100,891,o),
(100,682,cs),
(100,475,o),
(181,295,o),
(314,163,cs),
(447,30,o),
(630,-48,o),
(839,-48,cs)
);
},
{
closed = 1;
nodes = (
(681,112,o),
(543,169,o),
(442,269,cs),
(341,369,o),
(278,509,o),
(278,682,cs),
(278,857,o),
(341,996,o),
(442,1096,cs),
(543,1196,o),
(685,1250,o),
(838,1250,cs),
(995,1250,o),
(1133,1196,o),
(1234,1096,cs),
(1335,996,o),
(1398,857,o),
(1398,682,cs),
(1398,509,o),
(1337,369,o),
(1236,269,cs),
(1135,169,o),
(995,112,o),
(838,112,cs)
);
},
{
closed = 1;
nodes = (
(1006,274,o),
(1104,310,o),
(1180,366,c),
(1088,536,l),
(1024,491,o),
(953,470,o),
(880,470,cs),
(807,470,o),
(748,491,o),
(708,528,cs),
(668,564,o),
(646,617,o),
(646,682,cs),
(646,747,o),
(667,800,o),
(707,837,cs),
(747,874,o),
(806,894,o),
(878,894,cs),
(958,894,o),
(1018,872,o),
(1062,828,c),
(1162,994,l),
(1087,1057,o),
(1000,1090,o),
(864,1090,cs),
(739,1090,o),
(632,1048,o),
(556,976,cs),
(479,904,o),
(434,801,o),
(434,680,cs),
(434,555,o),
(479,456,o),
(555,385,cs),
(631,314,o),
(737,274,o),
(862,274,cs)
);
}
);
width = 1676;
},
{
layerId = "87D444F7-2C21-4B59-A154-9C48869C513F";
shapes = (
{
closed = 1;
nodes = (
(1049,-39,o),
(1231,39,o),
(1364,171,cs),
(1497,303,o),
(1576,483,o),
(1576,691,cs),
(1576,896,o),
(1497,1076,o),
(1364,1209,cs),
(1231,1342,o),
(1049,1421,o),
(838,1421,cs),
(627,1421,o),
(445,1344,o),
(312,1212,cs),
(179,1080,o),
(100,900,o),
(100,691,cs),
(100,484,o),
(179,304,o),
(312,172,cs),
(445,39,o),
(627,-39,o),
(838,-39,cs)
);
},
{
closed = 1;
nodes = (
(674,84,o),
(527,144,o),
(416,251,cs),
(305,358,o),
(236,507,o),
(236,691,cs),
(236,876,o),
(305,1025,o),
(416,1132,cs),
(527,1239,o),
(677,1297,o),
(838,1297,cs),
(1002,1297,o),
(1150,1239,o),
(1261,1132,cs),
(1372,1025,o),
(1440,876,o),
(1440,691,cs),
(1440,507,o),
(1373,358,o),
(1262,251,cs),
(1151,144,o),
(1002,84,o),
(838,84,cs)
);
},
{
closed = 1;
nodes = (
(995,283,o),
(1092,317,o),
(1169,374,c),
(1099,503,l),
(1031,451,o),
(955,431,o),
(879,431,cs),
(791,431,o),
(722,456,o),
(674,501,cs),
(626,545,o),
(599,610,o),
(599,691,cs),
(599,771,o),
(625,836,o),
(673,881,cs),
(721,926,o),
(790,951,o),
(874,951,cs),
(955,951,o),
(1021,929,o),
(1070,884,c),
(1148,1010,l),
(1079,1067,o),
(991,1099,o),
(863,1099,cs),
(739,1099,o),
(635,1056,o),
(559,984,cs),
(483,912,o),
(439,811,o),
(439,690,cs),
(439,565,o),
(482,466,o),
(557,394,cs),
(632,322,o),
(737,283,o),
(862,283,cs)
);
}
);
width = 1676;
},
{
layerId = "053D553B-8824-4E8E-8E3D-8C773BB81ED6";
shapes = (
{
closed = 1;
nodes = (
(1051,-30,o),
(1233,48,o),
(1366,180,cs),
(1498,312,o),
(1576,492,o),
(1576,700,cs),
(1576,907,o),
(1498,1086,o),
(1366,1219,cs),
(1233,1352,o),
(1051,1430,o),
(839,1430,cs),
(626,1430,o),
(444,1354,o),
(311,1222,cs),
(178,1090,o),
(100,911,o),
(100,700,cs),
(100,495,o),
(178,314,o),
(311,181,cs),
(444,48,o),
(626,-30,o),
(839,-30,cs)
);
},
{
closed = 1;
nodes = (
(667,56,o),
(510,120,o),
(390,233,cs),
(270,346,o),
(194,505,o),
(194,700,cs),
(194,897,o),
(269,1055,o),
(389,1168,cs),
(509,1281,o),
(669,1344,o),
(838,1344,cs),
(1010,1344,o),
(1167,1281,o),
(1287,1168,cs),
(1407,1055,o),
(1482,897,o),
(1482,700,cs),
(1482,505,o),
(1408,346,o),
(1288,233,cs),
(1168,120,o),
(1009,56,o),
(838,56,cs)
);
},
{
closed = 1;
nodes = (
(983,292,o),
(1078,322,o),
(1158,382,c),
(1110,470,l),
(1038,413,o),
(958,392,o),
(878,392,cs),
(778,392,o),
(696,422,o),
(640,475,cs),
(584,527,o),
(552,603,o),
(552,700,cs),
(552,796,o),
(583,871,o),
(639,926,cs),
(695,981,o),
(774,1008,o),
(870,1008,cs),
(954,1008,o),
(1022,988,o),
(1078,940,c),
(1134,1026,l),
(1071,1078,o),
(983,1108,o),
(862,1108,cs),
(741,1108,o),
(638,1065,o),
(562,993,cs),
(486,921,o),
(444,821,o),
(444,700,cs),
(444,576,o),
(487,477,o),
(560,405,cs),
(632,333,o),
(737,292,o),
(862,292,cs)
);
}
);
width = 1676;
}
);
rightKerningGroup = at;
unicode = 169;
},
{
glyphname = ordfeminine;
layers = (
{
layerId = "E5A1D094-7979-46BB-98CB-6CA2CEC0290A";
shapes = (
{
closed = 1;
nodes = (
(499,706,o),
(576,740,o),
(616,788,c),
(601,722,l),
(823,722,l),
(919,1079,ls),
(946,1179,o),
(936,1265,o),
(885,1326,cs),
(834,1387,o),
(744,1424,o),
(607,1424,cs),
(490,1424,o),
(402,1401,o),
(326,1349,c),
(355,1181,l),
(376,1196,o),
(404,1208,o),
(437,1216,cs),
(470,1224,o),
(509,1230,o),
(542,1230,cs),
(595,1230,o),
(634,1223,o),
(659,1207,c),
(683,1190,o),
(691,1162,o),
(680,1122,cs),
(643,984,ls),
(634,952,o),
(616,928,o),
(592,912,cs),
(567,895,o),
(537,884,o),
(498,884,cs),
(453,884,o),
(424,901,o),
(424,932,cs),
(424,956,o),
(452,978,o),
(500,991,cs),
(548,1004,o),
(610,1008,o),
(679,999,c),
(716,1145,l),
(552,1158,o),
(419,1143,o),
(327,1103,cs),
(234,1063,o),
(182,997,o),
(182,908,cs),
(182,847,o),
(203,796,o),
(242,761,cs),
(281,725,o),
(334,706,o),
(403,706,cs)
);
}
);
width = 858;
},
{
layerId = "87D444F7-2C21-4B59-A154-9C48869C513F";
shapes = (
{
closed = 1;
nodes = (
(495,704,o),
(580,735,o),
(627,795,c),
(609,722,l),
(768,722,l),
(869,1092,ls),
(894,1188,o),
(884,1263,o),
(837,1318,cs),
(790,1373,o),
(711,1402,o),
(594,1402,cs),
(494,1402,o),
(410,1378,o),
(338,1329,c),
(359,1205,l),
(386,1222,o),
(416,1236,o),
(451,1245,cs),
(486,1254,o),
(521,1260,o),
(553,1260,cs),
(606,1260,o),
(649,1251,o),
(677,1228,cs),
(704,1205,o),
(713,1169,o),
(700,1116,c),
(660,969,ls),
(649,932,o),
(627,899,o),
(592,876,cs),
(557,852,o),
(514,837,o),
(465,837,cs),
(405,837,o),
(363,864,o),
(363,909,cs),
(363,958,o),
(407,988,o),
(472,1004,cs),
(537,1019,o),
(621,1019,o),
(702,1008,c),
(730,1117,l),
(581,1133,o),
(447,1125,o),
(350,1089,cs),
(253,1053,o),
(192,989,o),
(192,890,cs),
(192,834,o),
(213,787,o),
(249,755,cs),
(285,722,o),
(335,704,o),
(399,704,cs)
);
}
);
width = 814;
},
{
layerId = "053D553B-8824-4E8E-8E3D-8C773BB81ED6";
shapes = (
{
closed = 1;
nodes = (
(492,703,o),
(583,730,o),
(639,802,c),
(618,722,l),
(714,722,l),
(820,1106,ls),
(844,1195,o),
(832,1262,o),
(789,1310,cs),
(746,1357,o),
(677,1381,o),
(581,1381,cs),
(501,1381,o),
(419,1357,o),
(351,1309,c),
(363,1230,l),
(396,1250,o),
(429,1264,o),
(464,1275,cs),
(499,1286,o),
(535,1290,o),
(564,1290,cs),
(620,1290,o),
(664,1279,o),
(695,1251,cs),
(726,1222,o),
(736,1178,o),
(720,1110,c),
(678,954,l),
(665,911,o),
(635,872,o),
(592,841,cs),
(548,810,o),
(493,790,o),
(432,790,cs),
(359,790,o),
(303,826,o),
(303,887,cs),
(303,960,o),
(361,998,o),
(445,1017,cs),
(529,1036,o),
(630,1030,o),
(726,1018,c),
(744,1090,l),
(611,1109,o),
(478,1107,o),
(375,1075,cs),
(274,1043,o),
(203,980,o),
(203,873,cs),
(203,822,o),
(223,780,o),
(258,749,cs),
(293,718,o),
(339,703,o),
(396,703,cs)
);
}
);
width = 770;
}
);
leftKerningGroup = degree2;
rightKerningGroup = degree;
unicode = 170;
},
{
glyphname = logicalnot;
layers = (
{
layerId = "E5A1D094-7979-46BB-98CB-6CA2CEC0290A";
shapes = (
{
closed = 1;
nodes = (
(1170,290,l),
(1371,1050,l),
(211,1050,l),
(140,782,l),
(1016,782,l),
(886,290,l)
);
}
);
width = 1296;
},
{
layerId = "87D444F7-2C21-4B59-A154-9C48869C513F";
shapes = (
{
closed = 1;
nodes = (
(1140,374,l),
(1296,960,l),
(248,960,l),
(200,778,l),
(1056,778,l),
(948,374,l)
);
}
);
width = 1296;
},
{
layerId = "053D553B-8824-4E8E-8E3D-8C773BB81ED6";
shapes = (
{
closed = 1;
nodes = (
(1111,458,l),
(1221,870,l),
(285,870,l),
(260,774,l),
(1096,774,l),
(1011,458,l)
);
}
);
width = 1296;
}
);
leftKerningGroup = plus2;
rightKerningGroup = plus;
unicode = 172;
},
{
glyphname = registered;
layers = (
{
layerId = "E5A1D094-7979-46BB-98CB-6CA2CEC0290A";
shapes = (
{
closed = 1;
nodes = (
(886,470,o),
(1019,526,o),
(1112,618,cs),
(1205,710,o),
(1262,834,o),
(1262,979,cs),
(1262,1123,o),
(1206,1249,o),
(1110,1342,cs),
(1014,1435,o),
(884,1492,o),
(735,1492,cs),
(587,1492,o),
(460,1438,o),
(364,1346,cs),
(268,1254,o),
(214,1128,o),
(214,983,cs),
(214,838,o),
(269,711,o),
(365,619,cs),
(461,527,o),
(592,470,o),
(741,470,cs)
);
},
{
closed = 1;
nodes = (
(628,566,o),
(522,608,o),
(446,681,cs),
(370,753,o),
(322,855,o),
(322,983,cs),
(322,1108,o),
(369,1210,o),
(445,1282,cs),
(521,1354,o),
(622,1394,o),
(735,1394,cs),
(848,1394,o),
(953,1354,o),
(1030,1281,cs),
(1106,1208,o),
(1154,1104,o),
(1154,979,cs),
(1154,855,o),
(1108,753,o),
(1032,681,cs),
(956,609,o),
(854,566,o),
(741,566,cs)
);
},
{
closed = 1;
nodes = (
(663,706,l),
(664,912,l),
(724,912,l),
(864,706,l),
(1011,706,l),
(848,936,l),
(924,956,o),
(977,1008,o),
(977,1088,cs),
(977,1141,o),
(957,1183,o),
(921,1212,c),
(884,1240,o),
(833,1256,o),
(769,1256,cs),
(541,1256,l),
(542,706,l)
);
},
{
closed = 1;
nodes = (
(664,1156,l),
(758,1156,ls),
(822,1156,o),
(854,1130,o),
(854,1082,cs),
(854,1034,o),
(818,1010,o),
(754,1010,cs),
(664,1010,l)
);
}
);
width = 1212;
},
{
layerId = "87D444F7-2C21-4B59-A154-9C48869C513F";
shapes = (
{
closed = 1;
nodes = (
(896,474,o),
(1026,529,o),
(1119,621,cs),
(1212,713,o),
(1269,837,o),
(1269,982,cs),
(1269,1126,o),
(1213,1253,o),
(1117,1346,cs),
(1021,1439,o),
(891,1496,o),
(742,1496,cs),
(593,1496,o),
(466,1442,o),
(371,1350,cs),
(276,1258,o),
(221,1132,o),
(221,987,cs),
(221,842,o),
(276,714,o),
(372,622,cs),
(468,530,o),
(599,474,o),
(748,474,cs)
);
},
{
closed = 1;
nodes = (
(631,555,o),
(523,598,o),
(443,674,cs),
(363,750,o),
(312,855,o),
(312,987,cs),
(312,1116,o),
(361,1221,o),
(441,1297,cs),
(521,1373,o),
(626,1414,o),
(742,1414,cs),
(859,1414,o),
(967,1372,o),
(1047,1296,cs),
(1127,1220,o),
(1178,1114,o),
(1178,982,cs),
(1178,853,o),
(1129,749,o),
(1049,673,cs),
(969,597,o),
(864,555,o),
(748,555,cs)
);
},
{
closed = 1;
nodes = (
(658,710,l),
(657,925,l),
(730,925,l),
(884,710,l),
(1008,710,l),
(836,943,l),
(920,960,o),
(975,1014,o),
(975,1094,cs),
(975,1145,o),
(956,1186,o),
(921,1215,cs),
(886,1243,o),
(836,1259,o),
(775,1259,cs),
(554,1259,l),
(556,710,l)
);
},
{
closed = 1;
nodes = (
(657,1175,l),
(767,1175,ls),
(836,1175,o),
(873,1143,o),
(873,1090,cs),
(873,1037,o),
(833,1008,o),
(761,1008,cs),
(657,1008,l)
);
}
);
width = 1220;
},
{
layerId = "053D553B-8824-4E8E-8E3D-8C773BB81ED6";
shapes = (
{
closed = 1;
nodes = (
(904,478,o),
(1034,533,o),
(1127,625,cs),
(1220,717,o),
(1277,840,o),
(1277,985,cs),
(1277,1129,o),
(1221,1257,o),
(1125,1350,cs),
(1029,1443,o),
(901,1500,o),
(749,1500,cs),
(600,1500,o),
(473,1446,o),
(378,1355,cs),
(283,1264,o),
(229,1136,o),
(229,992,cs),
(229,844,o),
(284,718,o),
(380,626,cs),
(476,534,o),
(607,478,o),
(756,478,cs)
);
},
{
closed = 1;
nodes = (
(636,544,o),
(524,588,o),
(440,667,cs),
(356,746,o),
(303,855,o),
(303,992,cs),
(303,1124,o),
(357,1235,o),
(438,1312,cs),
(519,1389,o),
(632,1434,o),
(749,1434,cs),
(869,1434,o),
(981,1392,o),
(1065,1312,cs),
(1149,1232,o),
(1203,1122,o),
(1203,985,cs),
(1203,852,o),
(1151,743,o),
(1067,666,cs),
(983,589,o),
(873,544,o),
(756,544,cs)
);
},
{
closed = 1;
nodes = (
(653,714,l),
(651,938,l),
(737,938,l),
(904,714,l),
(1006,714,l),
(825,950,l),
(917,965,o),
(973,1020,o),
(973,1100,cs),
(973,1149,o),
(955,1190,o),
(923,1219,c),
(890,1247,o),
(841,1262,o),
(781,1262,cs),
(567,1262,l),
(571,714,l)
);
},
{
closed = 1;
nodes = (
(651,1194,l),
(777,1194,ls),
(853,1194,o),
(893,1158,o),
(893,1098,cs),
(893,1038,o),
(849,1006,o),
(769,1006,cs),
(651,1006,l)
);
}
);
width = 1228;
}
);
leftKerningGroup = degree2;
rightKerningGroup = degree;
unicode = 174;
},
{
glyphname = degree;
layers = (
{
layerId = "E5A1D094-7979-46BB-98CB-6CA2CEC0290A";
shapes = (
{
closed = 1;
nodes = (
(652,606,o),
(769,659,o),
(857,744,cs),
(945,829,o),
(1001,946,o),
(1001,1071,cs),
(1001,1171,o),
(963,1258,o),
(899,1321,cs),
(835,1384,o),
(744,1420,o),
(632,1420,cs),
(507,1420,o),
(388,1367,o),
(300,1283,cs),
(211,1199,o),
(156,1084,o),
(156,959,cs),
(156,859,o),
(192,773,o),
(259,709,cs),
(326,645,o),
(415,606,o),
(527,606,cs)
);
},
{
closed = 1;
nodes = (
(517,852,o),
(481,866,o),
(457,890,cs),
(433,913,o),
(418,949,o),
(418,990,cs),
(418,1039,o),
(439,1085,o),
(471,1120,cs),
(503,1155,o),
(548,1174,o),
(597,1174,cs),
(641,1174,o),
(675,1160,o),
(700,1137,cs),
(725,1114,o),
(739,1080,o),
(739,1040,cs),
(739,984,o),
(718,938,o),
(685,905,cs),
(652,872,o),
(608,852,o),
(561,852,cs)
);
}
);
width = 890;
},
{
layerId = "87D444F7-2C21-4B59-A154-9C48869C513F";
shapes = (
{
closed = 1;
nodes = (
(666,658,o),
(776,705,o),
(859,785,cs),
(942,865,o),
(995,972,o),
(995,1089,cs),
(995,1182,o),
(960,1265,o),
(900,1325,cs),
(840,1385,o),
(755,1420,o),
(651,1420,cs),
(534,1420,o),
(425,1373,o),
(341,1294,cs),
(257,1215,o),
(204,1108,o),
(204,991,cs),
(204,898,o),
(239,815,o),
(300,755,cs),
(361,695,o),
(446,658,o),
(550,658,cs)
);
},
{
closed = 1;
nodes = (
(516,829,o),
(469,847,o),
(437,878,cs),
(404,909,o),
(385,955,o),
(385,1008,cs),
(385,1076,o),
(412,1136,o),
(455,1180,cs),
(498,1223,o),
(559,1249,o),
(624,1249,cs),
(684,1249,o),
(730,1233,o),
(763,1202,cs),
(796,1171,o),
(814,1128,o),
(814,1076,cs),
(814,1008,o),
(789,946,o),
(746,902,cs),
(703,857,o),
(644,829,o),
(576,829,cs)
);
}
);
width = 908;
},
{
layerId = "053D553B-8824-4E8E-8E3D-8C773BB81ED6";
shapes = (
{
closed = 1;
nodes = (
(678,710,o),
(783,754,o),
(860,827,cs),
(937,899,o),
(990,999,o),
(990,1108,cs),
(990,1196,o),
(958,1273,o),
(902,1329,cs),
(846,1385,o),
(766,1420,o),
(670,1420,cs),
(562,1420,o),
(462,1376,o),
(382,1304,cs),
(302,1232,o),
(253,1133,o),
(253,1024,cs),
(253,936,o),
(285,858,o),
(342,802,cs),
(399,745,o),
(478,710,o),
(574,710,cs)
);
},
{
closed = 1;
nodes = (
(518,806,o),
(457,830,o),
(417,867,cs),
(376,904,o),
(352,962,o),
(352,1027,cs),
(352,1111,o),
(387,1187,o),
(440,1240,cs),
(493,1292,o),
(571,1324,o),
(652,1324,cs),
(728,1324,o),
(785,1303,o),
(826,1267,cs),
(867,1230,o),
(889,1177,o),
(889,1113,cs),
(889,1029,o),
(859,954,o),
(807,898,cs),
(755,842,o),
(680,806,o),
(591,806,cs)
);
}
);
width = 926;
}
);
leftKerningGroup = degree2;
rightKerningGroup = degree;
unicode = 176;
},
{
glyphname = twosuperior;
layers = (
{
layerId = "E5A1D094-7979-46BB-98CB-6CA2CEC0290A";
shapes = (
{
closed = 1;
nodes = (
(463,1267,l),
(504,1335,o),
(600,1442,o),
(683,1442,cs),
(727,1442,o),
(775,1423,o),
(775,1372,cs),
(775,1228,o),
(339,989,o),
(213,922,c),
(159,722,l),
(849,722,l),
(908,941,l),
(608,941,l),
(792,1010,o),
(1032,1163,o),
(1032,1383,cs),
(1032,1573,o),
(863,1652,o),
(692,1652,cs),
(485,1652,o),
(371,1516,o),
(259,1367,c)
);
}
);
width = 854;
},
{
layerId = "87D444F7-2C21-4B59-A154-9C48869C513F";
shapes = (
{
closed = 1;
nodes = (
(456,1321,l),
(497,1403,o),
(593,1500,o),
(689,1500,cs),
(769,1500,o),
(821,1470,o),
(821,1403,cs),
(821,1218,o),
(368,953,o),
(214,866,c),
(175,722,l),
(816,722,l),
(860,883,l),
(504,883,l),
(692,971,o),
(1005,1177,o),
(1005,1406,cs),
(1005,1578,o),
(877,1652,o),
(695,1652,cs),
(515,1652,o),
(391,1531,o),
(304,1392,c)
);
}
);
width = 855;
},
{
layerId = "053D553B-8824-4E8E-8E3D-8C773BB81ED6";
shapes = (
{
closed = 1;
nodes = (
(448,1374,l),
(489,1470,o),
(586,1558,o),
(695,1558,cs),
(811,1558,o),
(867,1517,o),
(867,1433,cs),
(867,1207,o),
(396,917,o),
(215,810,c),
(191,722,l),
(783,722,l),
(811,824,l),
(400,824,l),
(591,931,o),
(978,1191,o),
(978,1429,cs),
(978,1582,o),
(890,1652,o),
(698,1652,cs),
(545,1652,o),
(410,1545,o),
(348,1417,c)
);
}
);
width = 856;
}
);
unicode = 178;
},
{
glyphname = threesuperior;
layers = (
{
layerId = "E5A1D094-7979-46BB-98CB-6CA2CEC0290A";
shapes = (
{
closed = 1;
nodes = (
(581,702,o),
(679,734,o),
(751,791,cs),
(823,847,o),
(869,929,o),
(869,1029,cs),
(869,1090,o),
(848,1137,o),
(817,1176,cs),
(785,1215,o),
(740,1238,o),
(696,1250,c),
(948,1444,l),
(996,1632,l),
(372,1632,l),
(319,1422,l),
(643,1422,l),
(388,1255,l),
(411,1104,l),
(444,1112,o),
(473,1112,o),
(497,1112,cs),
(578,1112,o),
(628,1081,o),
(628,1025,cs),
(628,993,o),
(616,967,o),
(589,948,cs),
(562,928,o),
(526,918,o),
(483,918,cs),
(440,918,o),
(399,927,o),
(360,946,cs),
(321,965,o),
(291,990,o),
(271,1019,c),
(151,830,l),
(174,795,o),
(221,763,o),
(280,740,cs),
(339,716,o),
(408,702,o),
(476,702,cs)
);
}
);
width = 826;
},
{
layerId = "87D444F7-2C21-4B59-A154-9C48869C513F";
shapes = (
{
closed = 1;
nodes = (
(581,702,o),
(675,735,o),
(744,792,cs),
(813,848,o),
(857,930,o),
(857,1026,cs),
(857,1094,o),
(830,1143,o),
(789,1182,cs),
(748,1221,o),
(689,1243,o),
(628,1252,c),
(949,1496,l),
(983,1632,l),
(383,1632,l),
(344,1481,l),
(724,1481,l),
(398,1246,l),
(415,1140,l),
(442,1145,o),
(470,1146,o),
(494,1146,cs),
(611,1146,o),
(682,1101,o),
(682,1021,cs),
(682,972,o),
(662,931,o),
(627,903,cs),
(591,874,o),
(541,858,o),
(484,858,cs),
(437,858,o),
(391,868,o),
(351,885,cs),
(310,902,o),
(276,927,o),
(252,955,c),
(163,819,l),
(188,787,o),
(236,757,o),
(292,736,cs),
(348,715,o),
(413,702,o),
(477,702,cs)
);
}
);
width = 821;
},
{
layerId = "053D553B-8824-4E8E-8E3D-8C773BB81ED6";
shapes = (
{
closed = 1;
nodes = (
(579,702,o),
(670,736,o),
(738,793,cs),
(806,849,o),
(846,931,o),
(846,1023,cs),
(846,1096,o),
(813,1149,o),
(762,1188,cs),
(711,1227,o),
(638,1249,o),
(561,1254,c),
(951,1549,l),
(971,1632,l),
(395,1632,l),
(370,1540,l),
(806,1540,l),
(408,1237,l),
(419,1176,l),
(440,1180,o),
(467,1180,o),
(492,1180,cs),
(645,1180,o),
(736,1118,o),
(736,1018,cs),
(736,950,o),
(710,897,o),
(666,858,cs),
(621,819,o),
(557,799,o),
(485,799,cs),
(434,799,o),
(386,808,o),
(343,825,c),
(299,841,o),
(262,864,o),
(233,891,c),
(175,808,l),
(203,780,o),
(252,752,o),
(305,733,cs),
(358,713,o),
(422,702,o),
(478,702,cs)
);
}
);
width = 816;
}
);
leftKerningGroup = degree2;
rightKerningGroup = degree;
unicode = 179;
},
{
glyphname = paragraph;
layers = (
{
layerId = "E5A1D094-7979-46BB-98CB-6CA2CEC0290A";
shapes = (
{
closed = 1;
nodes = (
(567,-420,l),
(1000,1186,l),
(1132,1186,l),
(699,-420,l),
(959,-420,l),
(1392,1186,l),
(1596,1186,l),
(1656,1400,l),
(825,1400,ls),
(640,1400,o),
(471,1351,o),
(347,1259,cs),
(223,1166,o),
(146,1035,o),
(146,864,cs),
(146,743,o),
(194,638,o),
(278,569,cs),
(362,500,o),
(478,461,o),
(623,464,c),
(558,510,l),
(307,-420,l)
);
}
);
width = 1444;
},
{
layerId = "87D444F7-2C21-4B59-A154-9C48869C513F";
shapes = (
{
closed = 1;
nodes = (
(461,-420,l),
(909,1243,l),
(1078,1243,l),
(630,-420,l),
(812,-420,l),
(1260,1243,l),
(1473,1243,l),
(1517,1400,l),
(782,1400,ls),
(622,1400,o),
(476,1356,o),
(368,1275,cs),
(260,1194,o),
(192,1079,o),
(192,931,cs),
(192,826,o),
(233,736,o),
(306,673,cs),
(378,610,o),
(481,575,o),
(610,578,c),
(560,620,l),
(279,-420,l)
);
}
);
width = 1320;
},
{
layerId = "053D553B-8824-4E8E-8E3D-8C773BB81ED6";
shapes = (
{
closed = 1;
nodes = (
(355,-420,l),
(818,1300,l),
(1024,1300,l),
(561,-420,l),
(665,-420,l),
(1128,1300,l),
(1350,1300,l),
(1379,1400,l),
(739,1400,ls),
(606,1400,o),
(481,1364,o),
(389,1292,cs),
(297,1220,o),
(238,1123,o),
(238,998,cs),
(238,910,o),
(272,832,o),
(335,777,cs),
(398,722,o),
(484,691,o),
(597,692,c),
(562,730,l),
(251,-420,l)
);
}
);
width = 1196;
}
);
unicode = 182;
},
{
glyphname = periodcentered;
layers = (
{
layerId = "E5A1D094-7979-46BB-98CB-6CA2CEC0290A";
shapes = (
{
closed = 1;
nodes = (
(396,492,o),
(461,515,o),
(510,559,cs),
(558,602,o),
(591,667,o),
(591,747,cs),
(591,807,o),
(570,856,o),
(531,888,cs),
(492,920,o),
(441,938,o),
(381,938,cs),
(313,938,o),
(249,916,o),
(198,872,cs),
(147,828,o),
(116,765,o),
(116,681,c),
(113,624,o),
(137,576,o),
(176,544,cs),
(215,512,o),
(268,492,o),
(328,492,cs)
);
}
);
width = 600;
},
{
layerId = "87D444F7-2C21-4B59-A154-9C48869C513F";
shapes = (
{
closed = 1;
nodes = (
(354,521,o),
(404,539,o),
(440,571,cs),
(476,603,o),
(500,651,o),
(500,708,cs),
(500,751,o),
(484,786,o),
(457,810,cs),
(429,834,o),
(391,848,o),
(347,848,cs),
(296,848,o),
(247,831,o),
(211,799,cs),
(174,766,o),
(150,720,o),
(150,660,c),
(149,619,o),
(166,584,o),
(194,560,cs),
(222,536,o),
(261,521,o),
(305,521,cs)
);
}
);
width = 550;
},
{
layerId = "053D553B-8824-4E8E-8E3D-8C773BB81ED6";
shapes = (
{
closed = 1;
nodes = (
(315,550,o),
(348,563,o),
(371,584,cs),
(394,604,o),
(409,634,o),
(409,669,cs),
(409,694,o),
(399,717,o),
(383,733,c),
(366,748,o),
(342,758,o),
(314,758,cs),
(281,758,o),
(247,747,o),
(224,726,cs),
(200,705,o),
(185,675,o),
(185,639,c),
(184,614,o),
(194,592,o),
(213,577,cs),
(232,561,o),
(254,550,o),
(282,550,cs)
);
}
);
width = 500;
}
);
leftKerningGroup = hyphen2;
rightKerningGroup = hyphen;
unicode = 183;
},
{
glyphname = onesuperior;
layers = (
{
layerId = "E5A1D094-7979-46BB-98CB-6CA2CEC0290A";
shapes = (
{
closed = 1;
nodes = (
(624,722,l),
(866,1632,l),
(787,1632,l),
(278,1479,l),
(340,1280,l),
(553,1339,l),
(384,722,l)
);
}
);
width = 666;
},
{
layerId = "87D444F7-2C21-4B59-A154-9C48869C513F";
shapes = (
{
closed = 1;
nodes = (
(568,722,l),
(812,1632,l),
(739,1632,l),
(297,1494,l),
(341,1356,l),
(591,1430,l),
(398,722,l)
);
}
);
width = 641;
},
{
layerId = "053D553B-8824-4E8E-8E3D-8C773BB81ED6";
shapes = (
{
closed = 1;
nodes = (
(513,722,l),
(758,1632,l),
(691,1632,l),
(316,1510,l),
(343,1433,l),
(630,1521,l),
(413,722,l)
);
}
);
width = 616;
}
);
leftKerningGroup = degree2;
rightKerningGroup = degree;
unicode = 185;
},
{
glyphname = ordmasculine;
layers = (
{
layerId = "E5A1D094-7979-46BB-98CB-6CA2CEC0290A";
shapes = (
{
closed = 1;
nodes = (
(671,702,o),
(780,747,o),
(861,820,cs),
(942,893,o),
(995,993,o),
(995,1106,cs),
(995,1191,o),
(962,1271,o),
(899,1328,cs),
(836,1384,o),
(748,1418,o),
(639,1418,cs),
(523,1418,o),
(414,1374,o),
(333,1301,cs),
(252,1228,o),
(199,1130,o),
(199,1017,cs),
(199,929,o),
(231,851,o),
(294,795,cs),
(357,739,o),
(442,702,o),
(555,702,cs)
);
},
{
closed = 1;
nodes = (
(542,924,o),
(509,935,o),
(488,955,cs),
(467,974,o),
(453,1002,o),
(453,1037,cs),
(453,1077,o),
(469,1118,o),
(497,1147,cs),
(524,1176,o),
(567,1196,o),
(616,1196,cs),
(652,1196,o),
(684,1187,o),
(705,1168,c),
(725,1148,o),
(739,1120,o),
(739,1085,cs),
(739,1045,o),
(724,1007,o),
(696,976,cs),
(668,945,o),
(629,924,o),
(578,924,cs)
);
}
);
width = 892;
},
{
layerId = "87D444F7-2C21-4B59-A154-9C48869C513F";
shapes = (
{
closed = 1;
nodes = (
(649,702,o),
(754,746,o),
(831,818,cs),
(907,890,o),
(957,987,o),
(957,1095,cs),
(957,1179,o),
(926,1252,o),
(867,1308,cs),
(808,1364,o),
(725,1396,o),
(624,1396,cs),
(515,1396,o),
(410,1353,o),
(334,1281,cs),
(257,1209,o),
(207,1114,o),
(207,1006,cs),
(207,922,o),
(238,847,o),
(297,791,cs),
(356,735,o),
(436,702,o),
(540,702,cs)
);
},
{
closed = 1;
nodes = (
(507,860,o),
(463,875,o),
(434,902,cs),
(405,929,o),
(387,968,o),
(387,1016,cs),
(387,1073,o),
(409,1129,o),
(446,1170,cs),
(483,1211,o),
(538,1238,o),
(606,1238,cs),
(657,1238,o),
(700,1224,o),
(729,1197,cs),
(758,1170,o),
(776,1131,o),
(776,1083,cs),
(776,1026,o),
(756,970,o),
(717,929,cs),
(678,888,o),
(626,860,o),
(558,860,cs)
);
}
);
width = 863;
},
{
layerId = "053D553B-8824-4E8E-8E3D-8C773BB81ED6";
shapes = (
{
closed = 1;
nodes = (
(630,702,o),
(728,746,o),
(800,815,cs),
(872,884,o),
(919,980,o),
(919,1084,cs),
(919,1164,o),
(890,1237,o),
(835,1290,cs),
(780,1342,o),
(703,1374,o),
(610,1374,cs),
(506,1374,o),
(407,1332,o),
(335,1261,cs),
(263,1190,o),
(216,1099,o),
(216,995,cs),
(216,914,o),
(244,840,o),
(300,788,cs),
(356,735,o),
(430,702,o),
(526,702,cs)
);
},
{
closed = 1;
nodes = (
(474,796,o),
(417,815,o),
(381,850,cs),
(344,885,o),
(322,934,o),
(322,995,cs),
(322,1071,o),
(349,1141,o),
(396,1194,cs),
(443,1246,o),
(513,1280,o),
(597,1280,cs),
(662,1280,o),
(717,1263,o),
(754,1228,cs),
(791,1193,o),
(814,1142,o),
(814,1081,cs),
(814,1005,o),
(786,935,o),
(738,883,cs),
(689,831,o),
(623,796,o),
(539,796,cs)
);
}
);
width = 834;
}
);
leftKerningGroup = degree2;
rightKerningGroup = degree;
unicode = 186;
},
{
glyphname = onequarter;
layers = (
{
layerId = "E5A1D094-7979-46BB-98CB-6CA2CEC0290A";
shapes = (
{
closed = 1;
nodes = (
(1583,1298,l),
(1417,1440,l),
(286,101,l),
(453,-40,l)
);
},
{
closed = 1;
nodes = (
(557,490,l),
(800,1400,l),
(722,1400,l),
(213,1247,l),
(273,1048,l),
(486,1107,l),
(318,490,l)
);
},
{
closed = 1;
nodes = (
(1616,0,l),
(1659,160,l),
(1777,160,l),
(1830,366,l),
(1712,366,l),
(1754,528,l),
(1544,528,l),
(1498,366,l),
(1345,366,l),
(1740,910,l),
(1471,910,l),
(1059,340,l),
(1011,160,l),
(1445,160,l),
(1402,0,l)
);
}
);
width = 1890;
},
{
layerId = "87D444F7-2C21-4B59-A154-9C48869C513F";
shapes = (
{
closed = 1;
nodes = (
(1538,1339,l),
(1426,1435,l),
(277,61,l),
(392,-35,l)
);
},
{
closed = 1;
nodes = (
(504,490,l),
(748,1400,l),
(676,1400,l),
(234,1262,l),
(277,1124,l),
(527,1198,l),
(334,490,l)
);
},
{
closed = 1;
nodes = (
(1533,0,l),
(1581,178,l),
(1717,178,l),
(1756,327,l),
(1619,327,l),
(1669,516,l),
(1516,516,l),
(1464,327,l),
(1207,327,l),
(1667,910,l),
(1474,910,l),
(1003,310,l),
(969,178,l),
(1426,178,l),
(1378,0,l)
);
}
);
width = 1842;
},
{
layerId = "053D553B-8824-4E8E-8E3D-8C773BB81ED6";
shapes = (
{
closed = 1;
nodes = (
(1493,1380,l),
(1436,1430,l),
(269,21,l),
(332,-30,l)
);
},
{
closed = 1;
nodes = (
(451,490,l),
(696,1400,l),
(631,1400,l),
(256,1278,l),
(282,1201,l),
(568,1289,l),
(351,490,l)
);
},
{
closed = 1;
nodes = (
(1451,0,l),
(1504,196,l),
(1658,196,l),
(1683,288,l),
(1527,288,l),
(1584,504,l),
(1489,504,l),
(1431,288,l),
(1070,288,l),
(1594,910,l),
(1477,910,l),
(948,281,l),
(928,196,l),
(1408,196,l),
(1355,0,l)
);
}
);
width = 1794;
}
);
leftKerningGroup = onehalf;
unicode = 188;
},
{
glyphname = onehalf;
layers = (
{
layerId = "E5A1D094-7979-46BB-98CB-6CA2CEC0290A";
shapes = (
{
closed = 1;
nodes = (
(1574,1298,l),
(1406,1440,l),
(275,101,l),
(442,-40,l)
);
},
{
closed = 1;
nodes = (
(548,490,l),
(791,1400,l),
(711,1400,l),
(202,1247,l),
(262,1048,l),
(477,1107,l),
(307,490,l)
);
},
{
alignment = -1;
pos = (881,-723);
ref = twosuperior;
}
);
width = 1906;
},
{
layerId = "87D444F7-2C21-4B59-A154-9C48869C513F";
shapes = (
{
closed = 1;
nodes = (
(1533,1339,l),
(1420,1435,l),
(271,61,l),
(386,-35,l)
);
},
{
closed = 1;
nodes = (
(499,490,l),
(743,1400,l),
(670,1400,l),
(228,1262,l),
(271,1124,l),
(522,1198,l),
(328,490,l)
);
},
{
alignment = -1;
pos = (857,-722);
ref = twosuperior;
}
);
width = 1870;
},
{
layerId = "053D553B-8824-4E8E-8E3D-8C773BB81ED6";
shapes = (
{
closed = 1;
nodes = (
(1493,1380,l),
(1434,1430,l),
(267,21,l),
(330,-30,l)
);
},
{
closed = 1;
nodes = (
(451,490,l),
(696,1400,l),
(629,1400,l),
(254,1278,l),
(280,1201,l),
(568,1289,l),
(349,490,l)
);
},
{
alignment = -1;
pos = (815,-722);
ref = twosuperior;
}
);
width = 1834;
}
);
leftKerningGroup = onehalf;
unicode = 189;
},
{
glyphname = threequarters;
layers = (
{
layerId = "E5A1D094-7979-46BB-98CB-6CA2CEC0290A";
shapes = (
{
closed = 1;
nodes = (
(1721,1298,l),
(1555,1440,l),
(424,101,l),
(591,-40,l)
);
},
{
closed = 1;
nodes = (
(517,470,o),
(614,502,o),
(687,559,cs),
(759,615,o),
(805,697,o),
(805,797,cs),
(805,858,o),
(784,905,o),
(753,944,cs),
(721,983,o),
(679,1006,o),
(632,1018,c),
(884,1212,l),
(932,1400,l),
(307,1400,l),
(254,1190,l),
(578,1190,l),
(325,1023,l),
(348,872,l),
(379,880,o),
(410,880,o),
(433,880,cs),
(514,880,o),
(565,849,o),
(565,793,cs),
(565,761,o),
(551,735,o),
(524,716,cs),
(497,696,o),
(463,686,o),
(420,686,cs),
(377,686,o),
(334,695,o),
(295,714,cs),
(256,733,o),
(225,758,o),
(208,787,c),
(88,598,l),
(111,563,o),
(156,531,o),
(216,508,cs),
(276,484,o),
(341,470,o),
(413,470,cs)
);
},
{
closed = 1;
nodes = (
(1755,0,l),
(1798,160,l),
(1916,160,l),
(1969,366,l),
(1851,366,l),
(1893,528,l),
(1683,528,l),
(1637,366,l),
(1484,366,l),
(1879,910,l),
(1610,910,l),
(1198,340,l),
(1150,160,l),
(1584,160,l),
(1541,0,l)
);
}
);
width = 2050;
},
{
layerId = "87D444F7-2C21-4B59-A154-9C48869C513F";
shapes = (
{
closed = 1;
nodes = (
(1702,1339,l),
(1590,1435,l),
(441,61,l),
(556,-35,l)
);
},
{
closed = 1;
nodes = (
(516,470,o),
(612,503,o),
(681,560,cs),
(750,616,o),
(794,698,o),
(794,794,cs),
(794,862,o),
(767,911,o),
(726,950,cs),
(685,989,o),
(629,1011,o),
(565,1020,c),
(886,1264,l),
(920,1400,l),
(320,1400,l),
(281,1249,l),
(661,1249,l),
(336,1014,l),
(353,908,l),
(378,913,o),
(408,914,o),
(431,914,cs),
(548,914,o),
(620,869,o),
(620,789,cs),
(620,740,o),
(599,699,o),
(564,671,cs),
(528,642,o),
(479,626,o),
(422,626,cs),
(375,626,o),
(328,636,o),
(288,653,cs),
(247,670,o),
(213,695,o),
(190,723,c),
(101,587,l),
(126,555,o),
(173,525,o),
(230,504,cs),
(286,483,o),
(351,470,o),
(415,470,cs)
);
},
{
closed = 1;
nodes = (
(1697,0,l),
(1745,178,l),
(1881,178,l),
(1920,327,l),
(1783,327,l),
(1833,516,l),
(1680,516,l),
(1628,327,l),
(1371,327,l),
(1831,910,l),
(1638,910,l),
(1167,310,l),
(1133,178,l),
(1590,178,l),
(1542,0,l)
);
}
);
width = 2022;
},
{
layerId = "053D553B-8824-4E8E-8E3D-8C773BB81ED6";
shapes = (
{
closed = 1;
nodes = (
(1683,1380,l),
(1626,1430,l),
(459,21,l),
(522,-30,l)
);
},
{
closed = 1;
nodes = (
(518,470,o),
(608,504,o),
(676,561,cs),
(744,617,o),
(784,699,o),
(784,791,cs),
(784,864,o),
(751,917,o),
(700,956,cs),
(649,995,o),
(578,1017,o),
(498,1022,c),
(889,1317,l),
(909,1400,l),
(333,1400,l),
(308,1308,l),
(744,1308,l),
(347,1005,l),
(359,944,l),
(378,948,o),
(407,948,o),
(430,948,cs),
(583,948,o),
(676,886,o),
(676,786,cs),
(676,718,o),
(648,665,o),
(604,626,cs),
(559,587,o),
(497,567,o),
(425,567,cs),
(374,567,o),
(324,576,o),
(281,593,c),
(237,609,o),
(200,632,o),
(173,659,c),
(115,576,l),
(143,548,o),
(188,520,o),
(244,501,cs),
(300,481,o),
(358,470,o),
(418,470,cs)
);
},
{
closed = 1;
nodes = (
(1640,0,l),
(1693,196,l),
(1847,196,l),
(1872,288,l),
(1716,288,l),
(1773,504,l),
(1678,504,l),
(1620,288,l),
(1259,288,l),
(1783,910,l),
(1666,910,l),
(1137,281,l),
(1117,196,l),
(1597,196,l),
(1544,0,l)
);
}
);
width = 1994;
}
);
unicode = 190;
},
{
glyphname = questiondown;
leftMetricsKey = "=105";
widthMetricsKey = "=1001";
layers = (
{
guides = (
{
position = "{4, 1400}";
}
);
layerId = "E5A1D094-7979-46BB-98CB-6CA2CEC0290A";
shapes = (
{
closed = 1;
nodes = (
(701,551,l),
(756,510,o),
(837,448,o),
(837,371,cs),
(837,266,o),
(767,211,o),
(687,176,cs),
(587,132,ls),
(526,105,o),
(479,73,o),
(479,19,cs),
(479,-43,o),
(583,-47,o),
(627,-47,cs),
(698,-47,o),
(768,-26,o),
(837,-4,c),
(825,-329,l),
(750,-381,o),
(583,-390,o),
(492,-390,cs),
(287,-390,o),
(-29,-306,o),
(-29,-51,cs),
(-29,122,o),
(91,200,o),
(241,259,cs),
(385,316,ls),
(448,341,o),
(489,373,o),
(489,421,cs),
(489,461,o),
(450,503,o),
(424,529,c)
);
},
{
closed = 1;
nodes = (
(610,1070,o),
(487,962,o),
(487,820,cs),
(487,696,o),
(595,632,o),
(707,632,cs),
(847,632,o),
(966,737,o),
(966,881,cs),
(966,1002,o),
(862,1070,o),
(749,1070,cs)
);
}
);
width = 1052;
},
{
guides = (
{
position = "{0, 1400}";
}
);
layerId = "87D444F7-2C21-4B59-A154-9C48869C513F";
shapes = (
{
closed = 1;
nodes = (
(645,578,l),
(704,531,o),
(764,471,o),
(764,390,cs),
(764,246,o),
(667,184,o),
(558,145,cs),
(421,96,ls),
(336,66,o),
(272,21,o),
(272,-68,cs),
(272,-175,o),
(441,-196,o),
(518,-196,cs),
(596,-196,o),
(672,-178,o),
(741,-145,c),
(747,-359,l),
(662,-411,o),
(537,-425,o),
(438,-425,cs),
(239,-425,o),
(-39,-338,o),
(-39,-95,cs),
(-39,96,o),
(92,219,o),
(269,271,cs),
(430,318,ls),
(498,338,o),
(545,366,o),
(545,423,cs),
(545,470,o),
(494,523,o),
(463,555,c)
);
},
{
closed = 1;
nodes = (
(611,1035,o),
(521,955,o),
(521,851,cs),
(521,762,o),
(600,714,o),
(682,714,cs),
(783,714,o),
(873,791,o),
(873,895,cs),
(873,983,o),
(795,1035,o),
(712,1035,cs)
);
}
);
width = 1001;
},
{
layerId = "053D553B-8824-4E8E-8E3D-8C773BB81ED6";
leftMetricsKey = "=116";
widthMetricsKey = "=950";
shapes = (
{
closed = 1;
nodes = (
(600,604,l),
(654,553,o),
(705,492,o),
(705,413,cs),
(705,281,o),
(580,223,o),
(444,167,cs),
(271,96,ls),
(163,52,o),
(82,-21,o),
(82,-141,cs),
(82,-305,o),
(297,-347,o),
(425,-347,cs),
(506,-347,o),
(588,-330,o),
(657,-285,c),
(681,-390,l),
(595,-437,o),
(499,-460,o),
(402,-460,cs),
(221,-460,o),
(-47,-376,o),
(-47,-155,cs),
(-47,45,o),
(130,139,o),
(293,208,cs),
(474,285,ls),
(553,319,o),
(605,361,o),
(605,419,cs),
(605,486,o),
(554,539,o),
(512,583,c)
);
},
{
closed = 1;
nodes = (
(624,1000,o),
(566,950,o),
(566,885,cs),
(566,828,o),
(616,797,o),
(670,797,cs),
(732,797,o),
(791,843,o),
(791,909,cs),
(791,966,o),
(740,1000,o),
(686,1000,cs)
);
}
);
width = 950;
}
);
unicode = 191;
},
{
glyphname = AE;
layers = (
{
layerId = "E5A1D094-7979-46BB-98CB-6CA2CEC0290A";
shapes = (
{
closed = 1;
nodes = (
(208,0,l),
(378,250,l),
(717,250,l),
(653,0,l),
(1615,0,l),
(1707,352,l),
(1149,352,l),
(1202,550,l),
(1670,550,l),
(1756,870,l),
(1288,870,l),
(1338,1052,l),
(1888,1052,l),
(1980,1400,l),
(756,1400,l),
(-250,0,l)
);
},
{
closed = 1;
nodes = (
(941,1063,l),
(804,566,l),
(598,566,l)
);
}
);
width = 1846;
},
{
layerId = "87D444F7-2C21-4B59-A154-9C48869C513F";
shapes = (
{
closed = 1;
nodes = (
(103,0,l),
(329,315,l),
(730,315,l),
(647,0,l),
(1538,0,l),
(1598,230,l),
(967,230,l),
(1072,619,l),
(1620,619,l),
(1677,833,l),
(1129,833,l),
(1221,1172,l),
(1844,1172,l),
(1904,1400,l),
(851,1400,l),
(-194,0,l)
);
},
{
closed = 1;
nodes = (
(966,1181,l),
(787,525,l),
(476,525,l)
);
}
);
width = 1794;
},
{
layerId = "053D553B-8824-4E8E-8E3D-8C773BB81ED6";
shapes = (
{
closed = 1;
nodes = (
(-1,0,l),
(280,380,l),
(743,380,l),
(642,0,l),
(1462,0,l),
(1489,108,l),
(785,108,l),
(942,688,l),
(1570,688,l),
(1598,796,l),
(970,796,l),
(1105,1292,l),
(1801,1292,l),
(1828,1400,l),
(947,1400,l),
(-137,0,l)
);
},
{
closed = 1;
nodes = (
(992,1299,l),
(771,484,l),
(355,484,l)
);
}
);
width = 1742;
}
);
leftKerningGroup = AE;
rightKerningGroup = E;
unicode = 198;
},
{
glyphname = Eth;
layers = (
{
layerId = "E5A1D094-7979-46BB-98CB-6CA2CEC0290A";
shapes = (
{
closed = 1;
nodes = (
(871,558,l),
(954,866,l),
(68,866,l),
(-15,558,l)
);
},
{
closed = 1;
nodes = (
(640,0,ls),
(880,0,o),
(1083,89,o),
(1232,234,cs),
(1380,379,o),
(1465,581,o),
(1465,812,cs),
(1465,1008,o),
(1391,1152,o),
(1263,1252,cs),
(1134,1352,o),
(960,1400,o),
(752,1400,cs),
(388,1400,l),
(13,0,l)
);
},
{
closed = 1;
nodes = (
(690,1024,l),
(729,1024,ls),
(821,1024,o),
(899,1004,o),
(954,961,cs),
(1009,918,o),
(1037,857,o),
(1037,769,cs),
(1037,657,o),
(1006,561,o),
(942,490,cs),
(878,419,o),
(787,376,o),
(670,376,cs),
(519,376,l)
);
}
);
width = 1520;
},
{
layerId = "87D444F7-2C21-4B59-A154-9C48869C513F";
shapes = (
{
closed = 1;
nodes = (
(906,628,l),
(959,826,l),
(104,826,l),
(51,628,l)
);
},
{
closed = 1;
nodes = (
(566,0,ls),
(815,0,o),
(1024,83,o),
(1173,228,cs),
(1322,373,o),
(1407,575,o),
(1407,816,cs),
(1407,1012,o),
(1333,1157,o),
(1205,1254,cs),
(1077,1351,o),
(903,1400,o),
(698,1400,cs),
(414,1400,l),
(39,0,l)
);
},
{
closed = 1;
nodes = (
(609,1158,l),
(703,1158,ls),
(836,1158,o),
(942,1123,o),
(1018,1059,cs),
(1094,994,o),
(1133,901,o),
(1133,784,cs),
(1133,632,o),
(1083,497,o),
(991,400,cs),
(899,303,o),
(770,242,o),
(610,242,cs),
(364,242,l)
);
}
);
width = 1478;
},
{
layerId = "053D553B-8824-4E8E-8E3D-8C773BB81ED6";
shapes = (
{
closed = 1;
nodes = (
(942,698,l),
(965,786,l),
(141,786,l),
(118,698,l)
);
},
{
closed = 1;
nodes = (
(493,0,ls),
(752,0,o),
(962,79,o),
(1114,223,cs),
(1266,367,o),
(1350,569,o),
(1350,821,cs),
(1350,1017,o),
(1276,1161,o),
(1148,1257,cs),
(1020,1353,o),
(848,1400,o),
(645,1400,cs),
(441,1400,l),
(66,0,l)
);
},
{
closed = 1;
nodes = (
(528,1292,l),
(678,1292,ls),
(850,1292,o),
(988,1245,o),
(1084,1157,cs),
(1180,1069,o),
(1229,949,o),
(1229,800,cs),
(1229,608,o),
(1161,437,o),
(1040,312,cs),
(919,187,o),
(751,108,o),
(550,108,cs),
(210,108,l)
);
}
);
width = 1436;
}
);
leftKerningGroup = Eth;
rightKerningGroup = D;
unicode = 208;
},
{
glyphname = multiply;
layers = (
{
layerId = "E5A1D094-7979-46BB-98CB-6CA2CEC0290A";
shapes = (
{
closed = 1;
nodes = (
(653,491,l),
(910,145,l),
(1127,311,l),
(869,657,l),
(1332,1013,l),
(1189,1207,l),
(724,850,l),
(467,1197,l),
(251,1029,l),
(509,683,l),
(47,327,l),
(188,135,l)
);
}
);
width = 1296;
},
{
layerId = "87D444F7-2C21-4B59-A154-9C48869C513F";
shapes = (
{
closed = 1;
nodes = (
(668,543,l),
(918,209,l),
(1067,325,l),
(819,658,l),
(1258,997,l),
(1161,1131,l),
(719,791,l),
(470,1125,l),
(321,1007,l),
(570,675,l),
(129,335,l),
(227,203,l)
);
}
);
width = 1296;
},
{
layerId = "053D553B-8824-4E8E-8E3D-8C773BB81ED6";
shapes = (
{
closed = 1;
nodes = (
(683,596,l),
(926,274,l),
(1008,339,l),
(769,659,l),
(1185,981,l),
(1133,1056,l),
(714,732,l),
(473,1054,l),
(391,985,l),
(631,667,l),
(212,343,l),
(266,272,l)
);
}
);
width = 1296;
}
);
leftKerningGroup = plus2;
rightKerningGroup = plus;
unicode = 215;
},
